# Blender v3.4.1 OBJ File: 'Halloween_Bits_Export.blend'
# www.blender.org
mtllib bench.mtl
o bench_Cube.117
v -0.775000 0.000000 -0.150000
v -0.737500 0.400000 -0.112500
v -0.775000 0.000000 -0.337500
v -0.737500 0.400000 -0.300000
v -0.962500 0.000000 -0.150000
v -0.925000 0.400000 -0.112500
v 0.962500 0.000000 -0.150000
v 0.925000 0.400000 -0.112500
v 0.775000 0.000000 -0.150000
v 0.737500 0.400000 -0.112500
v 0.775000 0.000000 -0.337500
v 0.737500 0.400000 -0.300000
v -0.953125 0.000000 -0.337500
v -0.962500 0.000000 -0.328125
v -0.925000 0.400000 -0.290625
v -0.915625 0.400000 -0.300000
v 0.962500 0.000000 -0.328125
v 0.953125 0.000000 -0.337500
v 0.915625 0.400000 -0.300000
v 0.925000 0.400000 -0.290625
v -0.775000 0.000000 0.337500
v -0.737500 0.400000 0.300000
v -0.775000 0.000000 0.150000
v -0.737500 0.400000 0.112500
v -0.962500 0.000000 0.150000
v -0.925000 0.400000 0.112500
v 0.962500 0.000000 0.150000
v 0.925000 0.400000 0.112500
v 0.775000 0.000000 0.337500
v 0.737500 0.400000 0.300000
v 0.775000 0.000000 0.150000
v 0.737500 0.400000 0.112500
v -0.962500 0.000000 0.328125
v -0.953125 0.000000 0.337500
v -0.915625 0.400000 0.300000
v -0.925000 0.400000 0.290625
v 0.953125 0.000000 0.337500
v 0.962500 0.000000 0.328125
v 0.925000 0.400000 0.290625
v 0.915625 0.400000 0.300000
v 0.887500 0.100000 0.300000
v 0.887500 0.100000 0.225000
v 0.887500 0.200000 0.225000
v -0.887500 0.100000 0.300000
v -0.887500 0.100000 0.225000
v -0.887500 0.200000 0.225000
v 0.887500 0.100000 -0.225000
v 0.887500 0.200000 -0.225000
v 0.887500 0.100000 -0.300000
v -0.887500 0.100000 -0.225000
v -0.887500 0.200000 -0.225000
v -0.887500 0.100000 -0.300000
v 0.887500 0.187500 0.300000
v 0.887500 0.200000 0.290625
v -0.887500 0.200000 0.290625
v -0.887500 0.187500 0.300000
v 0.887500 0.200000 -0.290625
v 0.887500 0.187500 -0.300000
v -0.887500 0.187500 -0.300000
v -0.887500 0.200000 -0.290625
v -0.996876 0.300000 0.001293
v -1.000000 0.475000 0.018750
v -0.981250 0.500000 0.018750
v 1.000000 0.475000 0.018750
v 0.981250 0.500000 0.018750
v 0.996876 0.300000 0.001293
v 0.993746 0.300000 0.356250
v 1.000000 0.475000 0.356250
v 0.981250 0.500000 0.356250
v 0.981250 0.475000 0.375000
v -0.981250 0.475000 0.375000
v -0.981250 0.500000 0.356250
v -1.000000 0.475000 0.356250
v -1.000006 0.300000 0.356250
v -1.000000 0.475000 0.168750
v -0.981250 0.500000 0.168750
v -1.000006 0.300000 0.168750
v 0.993746 0.300000 0.072221
v 0.993746 0.300000 0.215279
v 0.949721 0.300000 0.168750
v 0.981250 0.500000 0.215279
v 0.981250 0.500000 0.072221
v 0.949721 0.500000 0.168750
v 1.000000 0.475000 0.215279
v 1.000000 0.475000 0.072221
v 0.967793 0.475000 0.168750
v 1.000006 0.300000 -0.356250
v 1.000000 0.475000 -0.356250
v 0.981250 0.475000 -0.375000
v 0.981250 0.500000 -0.356250
v -0.981250 0.475000 -0.375000
v -1.000000 0.475000 -0.356250
v -0.981250 0.500000 -0.356250
v -0.993746 0.300000 -0.356250
v -1.000000 0.475000 -0.018750
v -0.981250 0.500000 -0.018750
v -0.981250 0.475000 -0.000000
v 0.981250 0.475000 -0.000000
v 0.981250 0.500000 -0.018750
v 1.000000 0.475000 -0.018750
v 1.000000 0.475000 -0.206250
v 0.981250 0.500000 -0.206250
v 1.000006 0.300000 -0.206250
v -0.993746 0.300000 -0.272779
v -0.993746 0.300000 -0.139721
v -0.929721 0.300000 -0.206250
v -0.981250 0.500000 -0.139721
v -0.981250 0.500000 -0.272779
v -0.929721 0.500000 -0.206250
v -1.000000 0.475000 -0.139721
v -1.000000 0.475000 -0.272779
v -0.947793 0.475000 -0.206250
vt 0.954507 0.536290
vt 0.967855 0.536290
vt 0.967855 0.536290
vt 0.966743 0.536290
vt 0.954507 0.563991
vt 0.954507 0.563991
vt 0.950058 0.640865
vt 0.950058 0.640865
vt 0.967855 0.563991
vt 0.967855 0.563991
vt 0.963406 0.640865
vt 0.963406 0.640865
vt 0.966743 0.563991
vt 0.962294 0.640865
vt 0.887768 0.536290
vt 0.901116 0.536290
vt 0.901116 0.536290
vt 0.888880 0.563991
vt 0.901116 0.563991
vt 0.905565 0.640865
vt 0.893329 0.640865
vt 0.901116 0.563991
vt 0.905565 0.640865
vt 0.887768 0.563991
vt 0.892217 0.640865
vt 0.887768 0.563991
vt 0.892217 0.640865
vt 0.963406 0.682416
vt 0.962294 0.682416
vt 0.966743 0.605541
vt 0.967855 0.605541
vt 0.893329 0.682416
vt 0.892217 0.682416
vt 0.887768 0.605541
vt 0.888880 0.605541
vt 0.954507 0.536290
vt 0.887768 0.536290
vt 0.888880 0.536290
vt 0.954507 0.563991
vt 0.954507 0.563991
vt 0.950058 0.640865
vt 0.950058 0.640865
vt 0.967855 0.563991
vt 0.963406 0.640865
vt 0.966743 0.563991
vt 0.962294 0.640865
vt 0.967855 0.563991
vt 0.963406 0.640865
vt 0.887768 0.536290
vt 0.901116 0.536290
vt 0.901116 0.536290
vt 0.901116 0.563991
vt 0.888880 0.563991
vt 0.893329 0.640865
vt 0.905565 0.640865
vt 0.887768 0.563991
vt 0.901116 0.563991
vt 0.905565 0.640865
vt 0.892217 0.640865
vt 0.887768 0.563991
vt 0.892217 0.640865
vt 0.967855 0.536290
vt 0.954507 0.536290
vt 0.966743 0.536290
vt 0.967855 0.536290
vt 0.962294 0.682416
vt 0.963406 0.682416
vt 0.967855 0.605541
vt 0.966743 0.605541
vt 0.888880 0.605541
vt 0.887768 0.605541
vt 0.892217 0.682416
vt 0.893329 0.682416
vt 0.954507 0.536290
vt 0.887768 0.536290
vt 0.888880 0.536290
vt 0.896666 0.583209
vt 0.958957 0.583209
vt 0.958957 0.602428
vt 0.896666 0.602428
vt 0.958957 0.630128
vt 0.958957 0.630128
vt 0.896666 0.630128
vt 0.896666 0.630128
vt 0.896666 0.555509
vt 0.896666 0.555509
vt 0.958957 0.555509
vt 0.958957 0.555509
vt 0.958957 0.630128
vt 0.958957 0.630128
vt 0.896666 0.630128
vt 0.896666 0.630128
vt 0.958957 0.583209
vt 0.896666 0.583209
vt 0.896666 0.602428
vt 0.958957 0.602428
vt 0.896666 0.555509
vt 0.896666 0.555509
vt 0.958957 0.555509
vt 0.958957 0.555509
vt 0.896666 0.583209
vt 0.958957 0.583209
vt 0.958957 0.600026
vt 0.896666 0.600026
vt 0.958957 0.643979
vt 0.958957 0.641576
vt 0.896666 0.641576
vt 0.896666 0.643979
vt 0.896666 0.643979
vt 0.896666 0.641576
vt 0.958957 0.641576
vt 0.958957 0.643979
vt 0.958957 0.583209
vt 0.896666 0.583209
vt 0.896666 0.600026
vt 0.958957 0.600026
vt 0.906678 0.679084
vt 0.926699 0.679084
vt 0.926699 0.667982
vt 0.906678 0.667982
vt 0.926699 0.642056
vt 0.926699 0.625240
vt 0.927811 0.642056
vt 0.906678 0.642056
vt 0.906678 0.625240
vt 0.905565 0.642056
vt 0.906678 0.725959
vt 0.906678 0.714857
vt 0.905565 0.714857
vt 0.926699 0.725959
vt 0.927811 0.714857
vt 0.926699 0.714857
vt 0.905565 0.642056
vt 0.905565 0.642056
vt 0.906678 0.625240
vt 0.906678 0.625240
vt 0.926699 0.625240
vt 0.926699 0.642056
vt 0.927811 0.642056
vt 0.906678 0.642056
vt 0.927811 0.714857
vt 0.926699 0.725959
vt 0.926699 0.714857
vt 0.906678 0.714857
vt 0.906678 0.725959
vt 0.905565 0.714857
vt 0.905565 0.714857
vt 0.906678 0.717259
vt 0.926699 0.683434
vt 0.923939 0.683434
vt 0.906678 0.683434
vt 0.906678 0.597540
vt 0.923939 0.597540
vt 0.926699 0.597540
vt 0.926699 0.683434
vt 0.926699 0.683434
vt 0.906678 0.683434
vt 0.926699 0.625240
vt 0.927811 0.642056
vt 0.925011 0.600506
vt 0.923939 0.583689
vt 0.926699 0.583689
vt 0.927811 0.600506
vt 0.926699 0.683434
vt 0.906678 0.683434
vt 0.926699 0.717259
vt 0.927811 0.714857
vt 0.926699 0.717259
vt 0.927811 0.714857
vt 0.926699 0.744960
vt 0.927811 0.742557
vt 0.925011 0.742557
vt 0.923939 0.744960
vt 0.923939 0.675709
vt 0.925011 0.673306
vt 0.927811 0.673306
vt 0.926699 0.675709
vt 0.927811 0.669757
vt 0.926699 0.652940
vt 0.923939 0.652940
vt 0.925011 0.669757
vt 0.926699 0.625240
vt 0.927811 0.642056
vt 0.926699 0.597540
vt 0.906678 0.597540
vt 0.926699 0.597540
vt 0.906678 0.597540
vt 0.926699 0.597540
vt 0.906678 0.642056
vt 0.906678 0.625240
vt 0.926699 0.625240
vt 0.926699 0.642056
vt 0.906678 0.725959
vt 0.906678 0.714857
vt 0.926699 0.714857
vt 0.926699 0.725959
vt 0.926699 0.563931
vt 0.927811 0.642056
vt 0.926699 0.625240
vt 0.905565 0.642056
vt 0.905565 0.714857
vt 0.927811 0.714857
vt 0.905565 0.642056
vt 0.906678 0.625240
vt 0.906678 0.625240
vt 0.905565 0.642056
vt 0.927811 0.642056
vt 0.906678 0.563931
vt 0.927811 0.714857
vt 0.926699 0.636732
vt 0.926699 0.725959
vt 0.906678 0.636732
vt 0.905565 0.714857
vt 0.906678 0.725959
vt 0.926699 0.694709
vt 0.926699 0.605482
vt 0.906678 0.605482
vt 0.906678 0.694709
vt 0.905565 0.714857
vt 0.906678 0.717259
vt 0.926699 0.683434
vt 0.906678 0.683434
vt 0.923939 0.683434
vt 0.906678 0.597540
vt 0.926699 0.597540
vt 0.923939 0.597540
vt 0.926699 0.683434
vt 0.906678 0.683434
vt 0.926699 0.683434
vt 0.926699 0.625240
vt 0.927811 0.642056
vt 0.925011 0.600506
vt 0.927811 0.600506
vt 0.926699 0.583689
vt 0.923939 0.583689
vt 0.926699 0.683434
vt 0.906678 0.683434
vt 0.926699 0.717259
vt 0.927811 0.714857
vt 0.927811 0.714857
vt 0.926699 0.717259
vt 0.926699 0.744960
vt 0.923939 0.744960
vt 0.925011 0.742557
vt 0.927811 0.742557
vt 0.923939 0.675709
vt 0.926699 0.675709
vt 0.927811 0.673306
vt 0.925011 0.673306
vt 0.927811 0.669757
vt 0.925011 0.669757
vt 0.923939 0.652940
vt 0.926699 0.652940
vt 0.927811 0.642056
vt 0.926699 0.625240
vt 0.926699 0.597540
vt 0.906678 0.597540
vt 0.926699 0.597540
vt 0.906678 0.597540
vt 0.926699 0.597540
vn 0.0000 -1.0000 0.0000
vn 0.9956 -0.0933 0.0000
vn -0.9956 0.0933 0.0000
vn 0.0000 -0.0933 0.9956
vn 0.0000 0.0933 -0.9956
vn -0.9956 -0.0933 0.0000
vn 0.9956 0.0933 0.0000
vn -0.7010 0.1314 -0.7010
vn 0.7010 0.1314 -0.7010
vn 0.0000 -0.0933 -0.9956
vn 0.0000 0.0933 0.9956
vn -0.7010 0.1314 0.7010
vn 0.7010 0.1314 0.7010
vn 0.0000 0.0000 -1.0000
vn 0.0000 1.0000 0.0000
vn 0.0000 0.0000 1.0000
vn 0.0000 0.3162 -0.9487
vn 0.0000 0.6000 0.8000
vn 0.0000 0.3162 0.9487
vn 0.0000 0.6000 -0.8000
vn -0.5257 0.6689 -0.5257
vn 0.5257 0.6689 -0.5257
vn 0.2769 0.5765 -0.7687
vn -0.2769 0.5765 -0.7687
vn 0.7069 -0.0253 0.7069
vn -0.7059 0.0578 -0.7059
vn -0.7687 0.5765 -0.2769
vn 0.7687 0.5765 -0.2769
vn -1.0000 0.0000 0.0000
vn -1.0000 -0.0042 -0.0049
vn 0.7059 0.0578 -0.7059
vn -0.7071 0.0000 0.7071
vn 0.7687 0.5765 0.2769
vn 0.5257 0.6689 0.5257
vn 0.2769 0.5765 0.7687
vn -0.2769 0.5765 0.7687
vn -0.5257 0.6689 0.5257
vn -0.7687 0.5765 0.2769
vn 0.0000 -0.1065 0.9943
vn -0.8000 0.6000 0.0000
vn -0.9999 -0.0084 -0.0099
vn 0.9787 -0.0471 0.1998
vn 0.9993 -0.0280 0.0251
vn 0.9790 -0.0469 0.1983
vn 0.9282 -0.0645 0.3665
vn 0.7720 0.5736 -0.2738
vn 0.7828 0.5828 -0.2181
vn 0.7952 0.5908 0.1368
vn 0.7965 0.5924 0.1212
vn 0.7975 0.5873 -0.1384
vn 0.8013 0.5901 -0.0987
vn 0.9415 -0.0474 -0.3338
vn 0.9397 -0.0475 -0.3386
vn 0.7725 -0.0537 -0.6328
vn 0.9994 -0.0357 0.0000
vn 0.0000 -0.1065 -0.9943
vn -0.7055 0.0682 0.7055
vn 0.7071 0.0000 -0.7071
vn 0.9999 -0.0085 0.0079
vn 1.0000 -0.0042 0.0040
vn -0.7069 -0.0253 -0.7069
vn 0.7055 0.0682 0.7055
vn 0.8000 0.6000 0.0000
vn 1.0000 0.0000 0.0000
vn -0.9342 -0.0471 0.3536
vn -0.9362 -0.0469 0.3483
vn -0.9994 -0.0357 0.0000
vn -0.7521 -0.0523 0.6570
vn -0.7642 0.5678 -0.3061
vn -0.7789 0.5800 -0.2385
vn -0.7789 0.5800 0.2385
vn -0.7642 0.5678 0.3061
vn -0.6820 0.5022 -0.5317
vn -0.6820 0.5022 0.5317
vn -0.9343 -0.0424 -0.3540
vn -0.7521 -0.0523 -0.6570
vn -0.9323 -0.0426 -0.3592
vn -0.9996 -0.0275 -0.0119
usemtl HalloweenBits
s 1
f 3/1/1 5/2/1 14/3/1 13/4/1
f 1/5/2 3/6/2 4/7/2 2/8/2
f 14/9/3 5/10/3 6/11/3 15/12/3
f 5/10/4 1/5/4 2/8/4 6/11/4
f 3/6/5 13/13/5 16/14/5 4/7/5
f 7/15/1 9/16/1 11/17/1
f 18/18/5 11/19/5 12/20/5 19/21/5
f 11/19/6 9/22/6 10/23/6 12/20/6
f 9/22/4 7/24/4 8/25/4 10/23/4
f 7/24/7 17/26/7 20/27/7 8/25/7
f 15/28/8 16/29/8 13/30/8 14/31/8
f 19/32/9 20/33/9 17/34/9 18/35/9
f 1/36/1 5/2/1 3/1/1
f 17/37/1 7/15/1 11/17/1 18/38/1
f 21/39/2 23/40/2 24/41/2 22/42/2
f 23/40/10 25/43/10 26/44/10 24/41/10
f 34/45/11 21/39/11 22/42/11 35/46/11
f 25/43/3 33/47/3 36/48/3 26/44/3
f 27/49/1 29/50/1 31/51/1
f 29/52/11 37/53/11 40/54/11 30/55/11
f 27/56/10 31/57/10 32/58/10 28/59/10
f 31/57/6 29/52/6 30/55/6 32/58/6
f 38/60/7 27/56/7 28/59/7 39/61/7
f 25/62/1 21/63/1 34/64/1 33/65/1
f 35/66/12 36/67/12 33/68/12 34/69/12
f 37/70/13 38/71/13 39/72/13 40/73/13
f 23/74/1 21/63/1 25/62/1
f 38/75/1 37/76/1 29/50/1 27/49/1
f 42/77/14 45/78/14 46/79/14 43/80/14
f 46/81/15 55/82/15 54/83/15 43/84/15
f 42/85/1 41/86/1 44/87/1 45/88/1
f 60/89/15 51/90/15 48/91/15 57/92/15
f 50/93/16 47/94/16 48/95/16 51/96/16
f 49/97/1 47/98/1 50/99/1 52/100/1
f 49/101/14 52/102/14 59/103/17 58/104/17
f 55/105/18 56/106/19 53/107/19 54/108/18
f 57/109/20 58/110/17 59/111/17 60/112/20
f 44/113/16 41/114/16 53/115/19 56/116/19
f 63/117/21 65/118/22 98/119/23 97/120/24
f 70/121/25 67/122/25 68/123/25
f 97/124/26 61/125/26 62/126/26
f 63/127/21 97/128/24 62/129/27
f 65/130/22 64/131/28 98/132/23
f 73/133/29 75/134/30 77/135/30 74/136/29
f 66/137/31 98/138/31 64/139/31
f 73/133/32 74/136/32 71/140/32
f 68/141/33 69/142/34 70/143/35
f 71/144/36 72/145/37 73/146/38
f 74/136/39 67/122/39 70/121/39 71/140/39
f 69/142/34 72/145/37 71/144/36 70/143/35
f 75/147/40 73/146/38 72/145/37 76/148/40
f 75/134/30 62/126/41 61/125/41 77/135/30
f 81/149/15 83/150/15 76/151/15
f 77/152/1 80/153/1 79/154/1
f 82/155/15 65/156/15 63/157/15 76/151/15
f 78/158/42 66/137/43 64/139/43 85/159/44
f 86/160/45 80/161/45 78/162/42 85/163/44
f 62/129/27 75/147/40 76/148/40 63/127/21
f 69/164/15 81/149/15 76/151/15 72/165/15
f 81/166/46 69/142/34 68/141/33 84/167/47
f 65/130/22 82/168/48 85/169/49 64/131/28
f 81/170/46 84/171/47 86/172/50 83/173/51
f 83/174/51 86/175/50 85/176/49 82/177/48
f 84/178/52 79/179/53 80/180/54 86/181/54
f 67/122/55 79/182/53 84/183/52 68/123/55
f 83/150/15 82/155/15 76/151/15
f 77/152/1 78/184/1 80/153/1
f 61/185/1 66/186/1 78/184/1 77/152/1
f 74/187/1 77/152/1 79/154/1 67/188/1
f 89/189/56 87/190/56 94/191/56 91/192/56
f 90/193/22 89/194/23 91/195/24 93/196/21
f 97/197/57 95/198/57 61/199/57
f 89/189/58 88/200/58 87/190/58
f 90/193/22 88/201/28 89/194/23
f 93/196/21 91/195/24 92/202/27
f 100/203/59 66/204/59 103/205/60 101/206/60
f 94/191/61 92/207/61 91/192/61
f 100/203/62 98/208/62 66/204/62
f 95/209/38 97/210/36 96/211/37
f 98/212/35 100/213/33 99/214/34
f 96/215/37 97/216/36 98/217/35 99/218/34
f 101/219/63 102/220/63 99/214/34 100/213/33
f 101/206/60 103/205/60 87/190/64 88/200/64
f 107/221/15 102/222/15 109/223/15
f 103/224/1 105/225/1 106/226/1
f 108/227/15 102/222/15 90/228/15 93/229/15
f 104/230/65 111/231/66 92/207/67 94/191/67
f 112/232/68 111/233/66 104/234/65 106/235/68
f 88/201/28 90/193/22 102/220/63 101/219/63
f 96/236/15 99/237/15 102/222/15 107/221/15
f 107/238/69 110/239/70 95/209/38 96/211/37
f 93/196/21 92/202/27 111/240/71 108/241/72
f 107/242/69 109/243/73 112/244/73 110/245/70
f 109/246/74 108/247/72 111/248/71 112/249/74
f 110/250/75 112/251/76 106/252/76 105/253/77
f 61/199/78 95/198/78 110/254/75 105/255/77
f 109/223/15 102/222/15 108/227/15
f 103/224/1 106/226/1 104/256/1
f 87/257/1 103/224/1 104/256/1 94/258/1
f 66/259/1 61/260/1 105/225/1 103/224/1
