# Blender v3.4.1 OBJ File: 'Halloween_Bits_Export.blend'
# www.blender.org
mtllib bone_B.mtl
o bone_B_Cube.545
v -0.255513 -0.063902 -0.109929
v -0.206898 -0.073236 -0.114055
v -0.207470 0.032729 -0.143336
v -0.197954 -0.062799 -0.000000
v -0.197954 0.062799 0.000000
v -0.207470 -0.032729 -0.143336
v -0.268903 -0.032729 -0.127741
v -0.206236 -0.087331 -0.069750
v -0.255512 0.063902 -0.109929
v -0.206898 0.073235 -0.114055
v -0.206236 0.087330 -0.069749
v -0.268903 0.073223 -0.071652
v -0.297556 -0.032730 -0.077222
v -0.297556 0.032729 -0.077222
v -0.268903 0.032729 -0.127741
v -0.292751 -0.032730 -0.041680
v -0.264451 0.073223 -0.036030
v -0.292751 0.032729 -0.041680
v -0.264451 -0.073223 -0.036030
v -0.268903 -0.073223 -0.071652
v -0.132534 -0.048849 -0.080134
v -0.132534 0.048850 -0.080134
v -0.132534 0.023128 -0.102671
v -0.132534 -0.023127 -0.102671
v -0.132534 0.045884 -0.053832
v -0.132534 -0.045882 -0.053832
v 0.178320 0.000000 0.000000
v -0.267265 -0.024942 0.000000
v -0.238613 -0.055505 -0.000000
v -0.255513 -0.063902 0.109929
v -0.206898 -0.073236 0.114055
v -0.207470 0.032729 0.143336
v -0.207470 -0.032730 0.143336
v -0.268903 -0.032730 0.127741
v -0.206236 -0.087331 0.069750
v -0.255512 0.063902 0.109929
v -0.206898 0.073235 0.114055
v -0.206236 0.087330 0.069750
v -0.268903 0.073223 0.071652
v -0.297556 -0.032730 0.077222
v -0.297556 0.032729 0.077222
v -0.268903 0.032729 0.127741
v -0.292751 -0.032730 0.041680
v -0.264451 0.073223 0.036030
v -0.292751 0.032729 0.041680
v -0.264451 -0.073223 0.036030
v -0.268903 -0.073223 0.071652
v -0.132534 -0.048849 0.080134
v -0.132534 0.048850 0.080134
v -0.132534 0.023128 0.102671
v -0.132534 -0.023127 0.102671
v -0.132534 0.045884 0.053832
v -0.132534 -0.045882 0.053832
v -0.267265 0.024941 0.000000
v -0.238613 0.055505 0.000000
v 0.217560 0.057491 0.000000
v 0.157670 -0.042004 0.049283
v 0.157670 0.042006 0.049283
v 0.157670 -0.021173 0.093993
v 0.157670 0.021174 0.093993
v 0.157670 0.044721 0.073361
v 0.157670 -0.044720 0.073361
v 0.282513 -0.067035 0.065596
v 0.258437 -0.067035 0.000000
v 0.284345 0.029962 0.000000
v 0.258437 0.067034 0.000000
v 0.284345 -0.029963 0.000000
v 0.282513 0.029962 0.116944
v 0.308744 0.029962 0.070696
v 0.308744 -0.029963 0.070695
v 0.282513 0.067034 0.065596
v 0.225142 0.077524 0.063854
v 0.225749 0.067045 0.104415
v 0.270254 0.058501 0.100638
v 0.225142 -0.077525 0.063854
v 0.282513 -0.029963 0.116945
v 0.226272 -0.029963 0.131222
v 0.217560 -0.057492 -0.000000
v 0.226272 0.029962 0.131222
v 0.225749 -0.067046 0.104415
v 0.270254 -0.058502 0.100638
v 0.129843 0.013928 0.018805
v 0.129843 -0.013926 0.018805
v 0.157670 -0.042004 -0.049283
v 0.157670 0.042006 -0.049283
v 0.157670 -0.021173 -0.093993
v 0.157670 0.021174 -0.093993
v 0.157670 0.044721 -0.073361
v 0.157670 -0.044720 -0.073361
v 0.282513 -0.067035 -0.065596
v 0.282513 0.029962 -0.116944
v 0.308744 0.029962 -0.070696
v 0.308744 -0.029963 -0.070695
v 0.282513 0.067034 -0.065596
v 0.225142 0.077524 -0.063854
v 0.225749 0.067045 -0.104415
v 0.270254 0.058501 -0.100638
v 0.225142 -0.077525 -0.063854
v 0.282513 -0.029963 -0.116945
v 0.226272 -0.029963 -0.131222
v 0.226272 0.029962 -0.131222
v 0.225749 -0.067046 -0.104415
v 0.270254 -0.058502 -0.100638
v 0.129843 -0.013926 -0.018805
v 0.129843 0.013928 -0.018805
v -0.105059 -0.015212 -0.020541
v -0.105059 0.015214 -0.020541
v -0.158012 0.000000 -0.000000
v -0.105059 0.015214 0.020541
v -0.105059 -0.015212 0.020541
vt 0.315646 0.568236
vt 0.325448 0.568388
vt 0.325448 0.571679
vt 0.315646 0.571830
vt 0.308808 0.628667
vt 0.311372 0.628667
vt 0.311396 0.592632
vt 0.309367 0.593735
vt 0.307813 0.636400
vt 0.307612 0.636400
vt 0.307612 0.628667
vt 0.307813 0.628667
vt 0.308994 0.592634
vt 0.311769 0.593865
vt 0.311424 0.590967
vt 0.309367 0.671332
vt 0.311396 0.672434
vt 0.311372 0.636400
vt 0.308808 0.636400
vt 0.308808 0.672433
vt 0.308994 0.672433
vt 0.314499 0.629801
vt 0.314499 0.595513
vt 0.326609 0.596001
vt 0.314499 0.595513
vt 0.314499 0.595864
vt 0.326609 0.596321
vt 0.314499 0.595864
vt 0.326609 0.596321
vt 0.311424 0.674099
vt 0.308994 0.656808
vt 0.311769 0.655577
vt 0.310072 0.592215
vt 0.308877 0.613962
vt 0.308877 0.619855
vt 0.307813 0.620775
vt 0.307813 0.613042
vt 0.314499 0.669204
vt 0.314499 0.669554
vt 0.310072 0.610352
vt 0.308994 0.577009
vt 0.313436 0.570033
vt 0.308808 0.592634
vt 0.311424 0.590967
vt 0.311424 0.674099
vt 0.311769 0.671202
vt 0.308994 0.672433
vt 0.314499 0.635266
vt 0.326609 0.630032
vt 0.326609 0.596001
vt 0.309367 0.671332
vt 0.308808 0.636400
vt 0.311372 0.636400
vt 0.311396 0.672434
vt 0.308877 0.582712
vt 0.307813 0.613042
vt 0.307813 0.620775
vt 0.308877 0.588605
vt 0.308994 0.592634
vt 0.315646 0.568236
vt 0.315646 0.571830
vt 0.310072 0.623465
vt 0.308994 0.656808
vt 0.314499 0.635266
vt 0.311372 0.628667
vt 0.314499 0.629801
vt 0.326609 0.668746
vt 0.326609 0.669066
vt 0.326609 0.630032
vt 0.326609 0.635035
vt 0.307612 0.636400
vt 0.307612 0.628667
vt 0.308808 0.628667
vt 0.329450 0.671703
vt 0.329472 0.636073
vt 0.326609 0.635035
vt 0.314499 0.669204
vt 0.314499 0.669554
vt 0.308808 0.592634
vt 0.309367 0.593735
vt 0.311396 0.592632
vt 0.329109 0.670575
vt 0.329425 0.672941
vt 0.307813 0.628667
vt 0.308808 0.672433
vt 0.325448 0.571679
vt 0.326609 0.668746
vt 0.311769 0.578240
vt 0.326609 0.669066
vt 0.310072 0.579102
vt 0.308994 0.577009
vt 0.329425 0.672941
vt 0.307813 0.636400
vt 0.329472 0.636073
vt 0.329450 0.671703
vt 0.327471 0.570033
vt 0.329425 0.592125
vt 0.329450 0.593364
vt 0.329472 0.628994
vt 0.331819 0.671702
vt 0.331308 0.670694
vt 0.331819 0.636073
vt 0.332914 0.636073
vt 0.332914 0.628994
vt 0.331819 0.628994
vt 0.331308 0.594373
vt 0.331819 0.593365
vt 0.332730 0.636073
vt 0.332730 0.628994
vt 0.331649 0.593365
vt 0.331649 0.671702
vt 0.329109 0.594492
vt 0.329425 0.592125
vt 0.329450 0.593364
vt 0.329472 0.628994
vt 0.331819 0.671702
vt 0.332914 0.636073
vt 0.331819 0.636073
vt 0.331308 0.670694
vt 0.332914 0.628994
vt 0.331819 0.593365
vt 0.331308 0.594373
vt 0.331819 0.628994
vt 0.325448 0.568388
vn 0.1636 -0.0000 0.9865
vn -0.1709 -0.0000 0.9853
vn -0.5794 -0.2924 -0.7608
vn 0.1309 -0.2989 -0.9453
vn 0.1359 -0.8173 -0.5600
vn -0.4095 -0.7330 -0.5432
vn -0.8969 0.2859 0.3375
vn -0.9405 0.2876 -0.1809
vn -0.9405 -0.2876 -0.1809
vn -0.8969 -0.2859 0.3375
vn -0.4983 -0.7970 -0.3413
vn 0.2976 -0.8336 -0.4653
vn 0.1381 -0.9904 -0.0023
vn -0.4095 0.7330 -0.5432
vn 0.1359 0.8173 -0.5600
vn 0.1309 0.2989 -0.9453
vn -0.5794 0.2924 -0.7608
vn -0.5662 0.8124 -0.1392
vn -0.4983 0.7970 0.3413
vn 0.2864 -0.3291 -0.8998
vn 0.2811 -0.8732 -0.3981
vn -0.2543 -0.8868 0.3859
vn 0.2811 -0.8732 0.3981
vn 0.2746 -0.8946 -0.3526
vn -0.2626 -0.8974 -0.3546
vn 0.2746 -0.8946 0.3526
vn -0.2626 -0.8974 0.3546
vn -0.0161 -0.7424 0.6698
vn 0.0158 -0.7421 0.6702
vn 0.1381 0.9904 0.0023
vn -0.4983 0.7970 -0.3413
vn 0.2976 0.8336 -0.4653
vn -0.3786 0.7237 -0.5770
vn -0.7778 -0.2527 0.5755
vn -0.7778 0.2527 0.5755
vn 0.2746 0.8946 0.3526
vn 0.2811 0.8732 -0.3981
vn -0.3786 -0.7237 0.5770
vn -0.4983 -0.7970 0.3413
vn 0.3617 0.0000 0.9323
vn -0.5662 -0.8124 -0.1392
vn 0.1381 -0.9904 0.0023
vn 0.1381 0.9904 -0.0023
vn 0.2864 0.3291 -0.8998
vn -0.2574 -0.3328 -0.9072
vn -0.2543 -0.8868 -0.3859
vn 0.4337 -0.5740 0.6945
vn -0.4095 0.7330 0.5432
vn -0.5794 0.2924 0.7608
vn 0.1309 0.2989 0.9453
vn 0.1359 0.8173 0.5600
vn -0.7778 -0.2527 -0.5755
vn -0.8969 -0.2859 -0.3375
vn -0.8969 0.2859 -0.3375
vn -0.7778 0.2527 -0.5755
vn 0.2976 -0.8336 0.4653
vn 0.1636 0.0000 -0.9865
vn 0.3617 0.0000 -0.9323
vn 0.4337 -0.5740 -0.6945
vn -0.3786 0.7237 0.5770
vn 0.2864 0.3291 0.8998
vn 0.1309 -0.2989 0.9453
vn 0.2864 -0.3291 0.8998
vn -0.2626 0.8974 0.3546
vn -0.2543 0.8868 -0.3859
vn -0.2574 -0.3328 0.9072
vn -0.2574 0.3328 0.9072
vn -0.9405 0.2876 0.1809
vn -0.9405 -0.2876 0.1809
vn -0.5794 -0.2924 0.7608
vn -0.1368 0.8259 -0.5470
vn -0.1309 0.2989 -0.9453
vn -0.2574 0.3328 -0.9072
vn 0.2746 0.8946 -0.3526
vn 0.2811 0.8732 0.3981
vn -0.5662 -0.8124 0.1392
vn -0.4095 -0.7330 0.5432
vn 0.1359 -0.8173 0.5600
vn -0.4520 0.8920 0.0000
vn -0.1485 0.9888 -0.0149
vn -0.5662 0.8124 0.1392
vn -0.0161 0.7424 -0.6698
vn 0.0158 0.7421 -0.6702
vn -0.2626 0.8974 -0.3546
vn -0.2543 0.8868 0.3859
vn -0.3786 -0.7237 -0.5770
vn -0.1485 0.9888 0.0149
vn -0.1309 0.2989 0.9453
vn -0.1368 0.8259 0.5470
vn -0.4219 0.5951 -0.6840
vn -0.1485 -0.9888 0.0149
vn -0.1368 -0.8259 0.5470
vn -0.1309 -0.2989 0.9453
vn 0.2976 0.8336 0.4653
vn 0.5773 0.8140 0.0638
vn 0.4045 0.7412 0.5357
vn 0.5794 0.2924 0.7608
vn 0.9541 0.2857 0.0901
vn 0.9541 -0.2857 0.0901
vn 0.5794 -0.2924 0.7608
vn 0.4045 -0.7412 0.5357
vn 0.5773 -0.8140 0.0638
vn 0.9499 0.3125 -0.0000
vn 0.9499 -0.3125 -0.0000
vn 0.8274 -0.5616 -0.0000
vn 0.8274 0.5616 -0.0000
vn -0.4520 -0.8920 -0.0000
vn -0.0516 -0.9987 -0.0000
vn -0.0516 0.9987 -0.0000
vn -0.1485 -0.9888 -0.0149
vn -0.4219 0.5951 0.6840
vn -0.1368 -0.8259 -0.5470
vn -0.1309 -0.2989 -0.9453
vn 0.5773 0.8140 -0.0638
vn 0.9541 0.2857 -0.0901
vn 0.5794 0.2924 -0.7608
vn 0.4045 0.7412 -0.5357
vn 0.9541 -0.2857 -0.0901
vn 0.5773 -0.8140 -0.0638
vn 0.4045 -0.7412 -0.5357
vn 0.5794 -0.2924 -0.7608
vn 0.0158 0.7421 0.6702
vn -0.0161 0.7424 0.6698
vn 0.4337 0.5740 0.6945
vn 0.4337 0.5740 -0.6945
vn -0.4219 -0.5951 0.6840
vn -0.3617 0.0000 0.9323
vn -0.0161 -0.7424 -0.6698
vn -0.4219 -0.5951 -0.6840
vn -0.3617 0.0000 -0.9323
vn -0.1709 0.0000 -0.9853
vn 0.0158 -0.7421 -0.6702
usemtl HalloweenBits
s 1
f 106/1/1 104/2/2 105/3/2 107/4/1
f 7/5/3 6/6/4 2/7/5 1/8/6
f 18/9/7 14/10/8 13/11/9 16/12/10
f 46/13/11 4/14/12 35/15/13
f 9/16/14 10/17/15 3/18/16 15/19/17
f 12/20/18 14/10/8 18/9/7 17/21/19
f 24/22/20 21/23/21 2/7/5 6/6/4
f 62/24/22 48/25/23 53/26/24 57/27/25
f 35/15/13 4/14/12 53/26/24
f 26/28/26 84/29/27 104/2/28 106/1/29
f 11/30/30 12/20/18 17/21/19
f 44/31/31 5/32/32 55/33/33
f 28/34/34 54/35/35 18/36/7 16/37/10
f 25/38/36 22/39/37 10/17/15 11/30/30
f 10/17/15 9/16/14 12/20/18 11/30/30
f 29/40/38 28/34/34 16/37/10 19/41/39
f 108/42/40 106/1/1 107/4/1
f 20/43/41 1/8/6 2/7/5 8/44/42
f 12/20/18 9/16/14 15/19/17 14/10/8
f 38/45/43 5/46/32 44/47/31
f 23/48/44 24/22/20 6/6/4 3/18/16
f 15/19/17 7/5/3 13/11/9 14/10/8
f 24/22/20 86/49/45 89/50/46 21/23/21
f 26/28/26 106/1/29 108/42/47
f 36/51/48 42/52/49 32/53/50 37/54/51
f 28/55/52 43/56/53 45/57/54 54/58/55
f 13/11/9 7/5/3 1/8/6 20/43/41
f 21/23/21 26/28/26 8/44/42 2/7/5
f 16/12/10 13/11/9 20/43/41 19/59/39
f 26/28/26 4/14/56 8/44/42
f 8/44/42 4/14/56 19/59/39
f 110/60/57 108/42/58 109/61/57
f 53/26/24 4/14/12 108/42/59
f 54/35/35 55/62/60 17/63/19 18/36/7
f 50/64/61 32/53/50 33/65/62 51/66/63
f 25/38/36 85/67/64 88/68/65 22/39/37
f 51/66/63 59/69/66 60/70/67 50/64/61
f 42/52/49 41/71/68 40/72/69 34/73/70
f 15/19/17 3/18/16 6/6/4 7/5/3
f 88/68/65 96/74/71 101/75/72 87/76/73
f 42/52/49 34/73/70 33/65/62 32/53/50
f 52/77/74 38/45/43 37/54/51 49/78/75
f 40/72/69 47/79/76 30/80/77 34/73/70
f 47/79/76 35/15/13 31/81/78 30/80/77
f 51/66/63 33/65/62 31/81/78 48/25/23
f 23/48/44 87/76/73 86/49/45 24/22/20
f 49/78/75 37/54/51 32/53/50 50/64/61
f 56/82/79 95/83/80 85/67/64
f 43/84/53 46/13/11 47/79/76 40/72/69
f 39/85/81 41/71/68 42/52/49 36/51/48
f 82/86/82 109/61/83 52/77/74 58/87/84
f 4/88/56 29/40/38 19/41/39
f 49/78/75 61/89/85 58/87/84 52/77/74
f 29/90/86 46/91/11 43/56/53 28/55/52
f 34/73/70 30/80/77 31/81/78 33/65/62
f 58/87/84 72/92/87 56/82/79
f 22/39/37 23/48/44 3/18/16 10/17/15
f 48/25/23 31/81/78 35/15/13 53/26/24
f 54/58/55 45/57/54 44/31/31 55/33/33
f 48/25/23 62/24/22 59/69/66 51/66/63
f 45/93/54 43/84/53 40/72/69 41/71/68
f 37/54/51 38/45/43 39/85/81 36/51/48
f 22/39/37 88/68/65 87/76/73 23/48/44
f 29/90/86 4/88/12 46/91/11
f 61/89/85 60/70/67 79/94/88 73/95/89
f 27/96/90 82/86/82 58/87/84
f 50/64/61 60/70/67 61/89/85 49/78/75
f 39/85/81 44/47/31 45/93/54 41/71/68
f 62/24/22 57/27/25 75/97/91 80/98/92
f 52/77/74 5/46/32 38/45/43
f 59/69/66 62/24/22 80/98/92 77/99/93
f 55/62/60 5/32/94 17/63/19
f 58/87/84 61/89/85 73/95/89 72/92/87
f 60/70/67 59/69/66 77/99/93 79/94/88
f 5/46/94 25/38/36 11/30/30
f 71/100/95 74/101/96 68/102/97 69/103/98
f 73/95/89 74/101/96 71/100/95 72/92/87
f 70/104/99 76/105/100 81/106/101 63/107/102
f 65/108/103 69/103/98 70/104/99 67/109/104
f 67/109/104 70/104/99 63/107/102 64/110/105
f 68/102/97 76/105/100 70/104/99 69/103/98
f 68/102/97 79/94/88 77/99/93 76/105/100
f 74/101/96 73/95/89 79/94/88 68/102/97
f 63/107/102 81/106/101 80/98/92 75/97/91
f 71/100/95 69/103/98 65/108/103 66/111/106
f 75/97/91 78/112/107 64/110/108
f 76/105/100 77/99/93 80/98/92 81/106/101
f 72/92/87 71/100/95 66/111/109
f 84/29/27 98/113/110 78/112/107
f 27/96/111 56/82/79 85/67/64
f 89/50/46 84/29/27 26/28/26 21/23/21
f 89/50/46 102/114/112 98/113/110 84/29/27
f 86/49/45 100/115/113 102/114/112 89/50/46
f 85/67/64 95/83/80 96/74/71 88/68/65
f 87/76/73 101/75/72 100/115/113 86/49/45
f 94/116/114 92/117/115 91/118/116 97/119/117
f 96/74/71 95/83/80 94/116/114 97/119/117
f 93/120/118 90/121/119 103/122/120 99/123/121
f 65/108/103 67/109/104 93/120/118 92/117/115
f 67/109/104 64/110/105 90/121/119 93/120/118
f 91/118/116 92/117/115 93/120/118 99/123/121
f 91/118/116 99/123/121 100/115/113 101/75/72
f 97/119/117 91/118/116 101/75/72 96/74/71
f 90/121/119 98/113/110 102/114/112 103/122/120
f 94/116/114 66/111/106 65/108/103 92/117/115
f 64/110/108 78/112/107 98/113/110
f 99/123/121 103/122/120 102/114/112 100/115/113
f 95/83/80 56/82/79 66/111/109
f 107/4/122 105/3/123 85/67/64 25/38/36
f 108/42/124 107/4/122 25/38/36
f 75/97/91 57/27/25 78/112/107
f 108/42/125 5/46/32 52/77/74
f 84/29/27 78/112/107 27/96/126
f 104/2/2 27/96/127 105/3/2
f 57/27/25 83/124/128 27/96/129
f 27/96/130 83/124/131 82/86/131
f 57/27/25 53/26/24 110/60/132 83/124/128
f 83/124/131 110/60/57 109/61/57 82/86/131
f 105/3/123 27/96/111 85/67/64
f 56/82/79 27/96/90 58/87/84
f 5/46/94 108/42/124 25/38/36
f 109/61/83 108/42/125 52/77/74
f 4/14/56 26/28/26 108/42/47
f 110/60/132 53/26/24 108/42/59
f 78/112/107 57/27/25 27/96/129
f 104/2/28 84/29/27 27/96/126
f 94/116/114 95/83/80 66/111/109
f 56/82/79 72/92/87 66/111/109
f 63/107/102 75/97/91 64/110/108
f 90/121/119 64/110/108 98/113/110
f 20/43/41 8/44/42 19/59/39
f 47/79/76 46/13/11 35/15/13
f 5/46/94 11/30/30 17/21/19
f 39/85/81 38/45/43 44/47/31
