# Blender v3.4.1 OBJ File: 'Halloween_Bits_Export.blend'
# www.blender.org
mtllib candle.mtl
o candle_Cylinder.112
v -0.000000 0.000000 -0.000000
v -0.000000 0.667904 -0.152788
v 0.098210 0.667904 -0.117043
v 0.150467 0.667904 -0.026531
v 0.132318 0.667904 0.076394
v 0.052257 0.667904 0.143574
v -0.052257 0.667904 0.143574
v -0.132318 0.667904 0.076394
v -0.150467 0.667904 -0.026531
v -0.098210 0.667904 -0.117043
v -0.000000 0.694422 -0.000000
v 0.070823 0.720570 -0.084403
v -0.000000 0.720570 -0.110181
v 0.108507 0.720570 -0.019133
v 0.095419 0.720570 0.055090
v 0.037684 0.720570 0.103536
v -0.037684 0.720570 0.103536
v -0.095419 0.720570 0.055090
v -0.108507 0.720570 -0.019133
v -0.070823 0.720570 -0.084403
v -0.000000 0.000000 -0.152788
v 0.098210 0.000000 -0.117043
v 0.150467 0.000000 -0.026531
v 0.132318 0.000000 0.076394
v 0.052257 0.000000 0.143574
v -0.052257 0.000000 0.143574
v -0.132318 0.000000 0.076394
v -0.150467 0.000000 -0.026531
v -0.098210 0.000000 -0.117043
v -0.000000 0.635490 0.000000
v -0.000000 0.779152 -0.029885
v 0.025881 0.779152 -0.014942
v 0.025881 0.779152 0.014942
v -0.000000 0.779152 0.029885
v -0.025881 0.779152 0.014942
v -0.025881 0.779152 -0.014942
v -0.000000 0.785684 0.000000
vt 0.564500 0.803797
vt 0.564500 0.937171
vt 0.582731 0.937171
vt 0.582731 0.803797
vt 0.592437 0.937171
vt 0.592437 0.803797
vt 0.589065 0.937171
vt 0.589065 0.803797
vt 0.574200 0.937171
vt 0.574200 0.803797
vt 0.554799 0.937171
vt 0.554799 0.803797
vt 0.539934 0.937171
vt 0.539934 0.803797
vt 0.592437 0.961573
vt 0.582731 0.961573
vt 0.577648 0.971350
vt 0.584644 0.971350
vt 0.536565 0.937171
vt 0.536565 0.803797
vt 0.546268 0.937171
vt 0.546268 0.803797
vt 0.564500 0.961573
vt 0.546268 0.961573
vt 0.551351 0.971350
vt 0.564500 0.971350
vt 0.536565 0.961573
vt 0.544355 0.971350
vt 0.539934 0.961573
vt 0.546787 0.971350
vt 0.554799 0.961573
vt 0.557504 0.971350
vt 0.574200 0.961573
vt 0.571495 0.971350
vt 0.589065 0.961573
vt 0.582215 0.971350
vt 0.564500 0.851863
vt 0.577648 0.923823
vt 0.564500 0.923823
vt 0.584644 0.923823
vt 0.582215 0.923823
vt 0.571495 0.923823
vt 0.557504 0.923823
vt 0.546787 0.923823
vt 0.544355 0.923823
vt 0.551351 0.923823
vt 0.564500 0.757547
vt 0.564500 0.757547
vt 0.582731 0.757547
vt 0.579818 0.757547
vt 0.592437 0.757547
vt 0.587972 0.757547
vt 0.589065 0.757547
vt 0.585140 0.757547
vt 0.574200 0.757547
vt 0.572650 0.757547
vt 0.554799 0.757547
vt 0.556349 0.757547
vt 0.539934 0.757547
vt 0.543859 0.757547
vt 0.536565 0.757547
vt 0.541029 0.757547
vt 0.546268 0.757547
vt 0.549181 0.757547
vt 0.921876 0.517472
vt 0.921876 0.581170
vt 0.949458 0.581170
vt 0.949458 0.581170
vt 0.921876 0.581170
vt 0.894294 0.581170
vt 0.894294 0.581170
vt 0.894294 0.581170
vt 0.921876 0.581170
vt 0.949458 0.581170
vn -0.0000 0.0000 -1.0000
vn -0.0000 0.3127 -0.9498
vn 0.6105 0.3127 -0.7276
vn 0.6428 0.0000 -0.7660
vn 0.9354 0.3127 -0.1649
vn 0.9848 0.0000 -0.1736
vn 0.8226 0.3127 0.4749
vn 0.8660 0.0000 0.5000
vn 0.3249 0.3127 0.8926
vn 0.3420 0.0000 0.9397
vn -0.3249 0.3127 0.8926
vn -0.3420 0.0000 0.9397
vn -0.8226 0.3127 0.4749
vn -0.8660 0.0000 0.5000
vn 0.4997 0.6290 -0.5956
vn 0.7656 0.6290 -0.1350
vn -0.9354 0.3127 -0.1649
vn -0.9848 0.0000 -0.1736
vn -0.6105 0.3127 -0.7276
vn -0.6428 0.0000 -0.7660
vn -0.4997 0.6290 -0.5956
vn 0.0000 0.6290 -0.7774
vn -0.7656 0.6290 -0.1350
vn -0.6733 0.6290 0.3887
vn -0.2659 0.6290 0.7306
vn 0.2659 0.6290 0.7306
vn 0.6733 0.6290 0.3887
vn 0.0000 1.0000 -0.0000
vn -0.1484 0.9730 0.1769
vn 0.0000 0.9730 0.2309
vn -0.2274 0.9730 0.0401
vn -0.2000 0.9730 -0.1155
vn -0.0790 0.9730 -0.2170
vn 0.0790 0.9730 -0.2170
vn 0.2000 0.9730 -0.1155
vn 0.2274 0.9730 0.0401
vn 0.1484 0.9730 0.1769
vn 0.0000 -1.0000 0.0000
vn 0.4921 -0.1773 -0.8523
vn 0.9842 -0.1773 0.0000
vn 0.4921 -0.1773 0.8523
vn -0.4921 -0.1773 0.8523
vn -0.1849 0.9769 -0.1068
vn -0.1849 0.9769 0.1068
vn -0.9842 -0.1773 0.0000
vn -0.4921 -0.1773 -0.8523
vn -0.0000 0.9769 0.2135
vn 0.1849 0.9769 0.1068
vn 0.1849 0.9769 -0.1068
vn 0.0000 0.9769 -0.2135
usemtl HalloweenBits
s 1
f 21/1/1 2/2/2 3/3/3 22/4/4
f 22/4/4 3/3/3 4/5/5 23/6/6
f 23/6/6 4/5/5 5/7/7 24/8/8
f 24/8/8 5/7/7 6/9/9 25/10/10
f 25/10/10 6/9/9 7/11/11 26/12/12
f 26/12/12 7/11/11 8/13/13 27/14/14
f 4/15/5 3/16/3 12/17/15 14/18/16
f 27/14/14 8/13/13 9/19/17 28/20/18
f 28/20/18 9/19/17 10/21/19 29/22/20
f 2/23/2 10/24/19 20/25/21 13/26/22
f 10/24/19 9/27/17 19/28/23 20/25/21
f 9/27/17 8/29/13 18/30/24 19/28/23
f 8/29/13 7/31/11 17/32/25 18/30/24
f 7/31/11 6/33/9 16/34/26 17/32/25
f 6/33/9 5/35/7 15/36/27 16/34/26
f 3/16/3 2/23/2 13/26/22 12/17/15
f 5/35/7 4/15/5 14/18/16 15/36/27
f 11/37/28 12/38/29 13/39/30
f 11/37/28 14/40/31 12/38/29
f 11/37/28 15/41/32 14/40/31
f 11/37/28 16/42/33 15/41/32
f 11/37/28 17/43/34 16/42/33
f 11/37/28 18/44/35 17/43/34
f 11/37/28 19/45/36 18/44/35
f 11/37/28 20/46/37 19/45/36
f 11/37/28 13/39/30 20/46/37
f 1/47/38 21/48/38 22/49/38
f 1/50/38 22/49/38 23/51/38
f 1/52/38 23/51/38 24/53/38
f 1/54/38 24/53/38 25/55/38
f 1/56/38 25/55/38 26/57/38
f 1/58/38 26/57/38 27/59/38
f 1/60/38 27/59/38 28/61/38
f 1/62/38 28/61/38 29/63/38
f 1/64/38 29/63/38 21/48/38
f 30/65/39 31/66/39 32/67/39
f 30/65/40 32/67/40 33/68/40
f 30/65/41 33/68/41 34/69/41
f 30/65/42 34/69/42 35/70/42
f 36/71/43 35/70/44 37/72/28
f 30/65/45 35/70/45 36/71/45
f 30/65/46 36/71/46 31/66/46
f 35/70/44 34/69/47 37/72/28
f 34/69/47 33/68/48 37/73/28
f 32/67/49 31/66/50 37/74/28
f 31/66/50 36/71/43 37/73/28
f 33/68/48 32/67/49 37/74/28
f 29/22/20 10/21/19 2/2/2 21/1/1
