# Blender v3.4.1 OBJ File: 'Halloween_Bits_Export.blend'
# www.blender.org
mtllib coffin.mtl
o coffin_Cube.118
v -0.436039 0.750000 1.300000
v -0.464593 0.750000 -1.300000
v 0.464593 0.750000 -1.300000
v 0.436039 0.750000 1.300000
v 0.792224 0.750000 -0.480924
v -0.792224 0.750000 -0.480924
v -0.600000 0.100000 1.500000
v -0.515418 0.000000 1.400000
v -0.535198 0.000000 -1.400000
v -0.600000 0.100000 -1.500000
v 0.515418 0.000000 1.400000
v 0.600000 0.100000 1.500000
v 0.600000 0.100000 -1.500000
v 0.535198 0.000000 -1.400000
v -0.895314 0.000000 -0.500000
v -1.000000 0.100000 -0.500000
v 1.000000 0.100000 -0.500000
v 0.895314 0.000000 -0.500000
v 0.600000 0.750000 -1.500000
v 1.000000 0.750000 -0.500000
v 0.600000 0.750000 1.500000
v -0.600000 0.750000 1.500000
v -1.000000 0.750000 -0.500000
v -0.600000 0.750000 -1.500000
v 0.692224 0.100000 -0.480924
v -0.692224 0.100000 -0.480924
v 0.364593 0.100000 -1.200000
v 0.336039 0.100000 1.200000
v -0.336039 0.100000 1.200000
v -0.364593 0.100000 -1.200000
vt 0.967630 0.593208
vt 0.967630 0.619479
vt 0.955578 0.619479
vt 0.955578 0.593208
vt 0.919422 0.593208
vt 0.919422 0.619479
vt 0.955578 0.619479
vt 0.955578 0.593208
vt 0.919422 0.593208
vt 0.919422 0.619479
vt 0.907370 0.619479
vt 0.907370 0.593208
vt 0.910524 0.557917
vt 0.964476 0.557917
vt 0.953030 0.557917
vt 0.921970 0.557917
vt 0.921374 0.557917
vt 0.953626 0.557917
vt 0.953626 0.573542
vt 0.921374 0.573542
vt 0.919422 0.577583
vt 0.955578 0.577583
vt 0.964476 0.573542
vt 0.967630 0.577583
vt 0.921970 0.573542
vt 0.953030 0.573542
vt 0.955578 0.577583
vt 0.919422 0.577583
vt 0.910524 0.573542
vt 0.907370 0.577583
vt 0.924362 0.619479
vt 0.950638 0.619479
vt 0.947625 0.593208
vt 0.927375 0.593208
vt 0.951498 0.619479
vt 0.923502 0.619479
vt 0.926515 0.593208
vt 0.948485 0.593208
vt 0.951498 0.666354
vt 0.961370 0.666354
vt 0.967630 0.666354
vt 0.955578 0.666354
vt 0.950638 0.666354
vt 0.955578 0.666354
vt 0.924362 0.666354
vt 0.919422 0.666354
vt 0.913630 0.666354
vt 0.907370 0.666354
vt 0.923502 0.666354
vt 0.919422 0.666354
vt 0.958357 0.640083
vt 0.916643 0.640083
vt 0.927375 0.640083
vt 0.947625 0.640083
vt 0.948485 0.640083
vt 0.926515 0.640083
vt 0.961370 0.619479
vt 0.958357 0.593208
vt 0.913630 0.619479
vt 0.916643 0.593208
vn 0.9259 -0.3689 -0.0814
vn 0.9958 0.0000 -0.0914
vn 0.9806 0.0000 0.1961
vn 0.0000 0.0000 -1.0000
vn 0.8823 -0.3113 -0.3530
vn 0.9285 0.0000 -0.3714
vn -0.9806 0.0000 0.1961
vn -0.9958 0.0000 -0.0914
vn -0.9259 -0.3689 -0.0814
vn -0.9285 0.0000 -0.3714
vn -0.8823 -0.3113 -0.3530
vn -0.4269 -0.9031 -0.0456
vn 0.4269 -0.9031 -0.0456
vn 0.2710 -0.9016 0.3371
vn -0.2710 -0.9016 0.3371
vn 0.0000 -0.9219 -0.3874
vn 0.0000 -0.7071 -0.7071
vn 0.6656 -0.6972 -0.2663
vn 0.0000 -0.7071 0.7071
vn -0.6656 -0.6972 -0.2663
vn -0.6844 -0.7161 0.1369
vn 0.6844 -0.7161 0.1369
vn 0.0000 0.1521 -0.9884
vn 0.0000 0.1521 0.9884
vn 0.0000 0.0000 1.0000
vn 0.0000 1.0000 0.0000
vn -0.9801 0.1743 0.0954
vn -0.9067 0.1692 0.3863
vn -0.9795 0.1743 0.1010
vn 0.9067 0.1692 0.3863
vn 0.9801 0.1743 0.0954
vn 0.9795 0.1743 0.1010
vn 0.9662 0.1639 -0.1988
vn -0.9662 0.1639 -0.1988
usemtl HalloweenBits
s 1
f 17/1/1 20/2/2 21/3/3 12/4/3
f 10/5/4 24/6/4 19/7/4 13/8/4
f 13/8/5 19/7/6 20/2/2 17/1/1
f 7/9/7 22/10/7 23/11/8 16/12/9
f 16/12/9 23/11/8 24/6/10 10/5/11
f 15/13/12 18/14/13 11/15/14 8/16/15
f 9/17/16 14/18/16 18/14/13 15/13/12
f 14/19/16 9/20/16 10/21/17 13/22/17
f 18/23/13 14/19/18 13/22/5 17/24/1
f 8/25/15 11/26/14 12/27/19 7/28/19
f 9/20/20 15/29/12 16/30/9 10/21/11
f 15/29/12 8/25/15 7/28/21 16/30/9
f 11/26/14 18/23/13 17/24/1 12/27/22
f 1/31/23 4/32/23 28/33/23 29/34/23
f 3/35/24 2/36/24 30/37/24 27/38/24
f 12/4/25 21/3/25 22/10/25 7/9/25
f 3/39/26 5/40/26 20/41/26 19/42/26
f 5/40/26 4/43/26 21/44/26 20/41/26
f 4/43/26 1/45/26 22/46/26 21/44/26
f 1/45/26 6/47/26 23/48/26 22/46/26
f 2/49/26 3/39/26 19/42/26 24/50/26
f 6/47/26 2/49/26 24/50/26 23/48/26
f 25/51/26 26/52/26 29/53/26 28/54/26
f 27/55/26 30/56/26 26/52/26 25/51/26
f 5/57/27 3/35/28 27/38/28 25/58/29
f 2/36/30 6/59/31 26/60/32 30/37/30
f 6/59/31 1/31/33 29/34/33 26/60/32
f 4/32/34 5/57/27 25/58/29 28/33/34
