# Blender v3.4.1 OBJ File: 'Halloween_Bits_Export.blend'
# www.blender.org
mtllib fence_pillar.mtl
o fence_pillar_Cube.017
v -0.250000 0.000000 0.250000
v -0.250000 2.000000 0.250000
v -0.250000 0.000000 -0.250000
v -0.250000 2.000000 -0.250000
v 0.250000 0.000000 0.250000
v 0.250000 2.000000 0.250000
v 0.250000 0.000000 -0.250000
v 0.250000 2.000000 -0.250000
v 0.250000 1.800000 -0.250000
v -0.250000 1.800000 -0.250000
v 0.250000 1.800000 0.250000
v -0.250000 1.800000 0.250000
v 0.250000 0.500000 0.250000
v 0.250000 0.500000 -0.250000
v -0.250000 0.500000 -0.250000
v -0.250000 0.500000 0.250000
v -0.000000 2.200000 0.000000
v -0.100000 0.750000 0.200000
v -0.100000 1.550000 0.200000
v -0.100000 0.750000 -0.200000
v 0.100000 0.750000 -0.200000
v 0.100000 0.750000 0.200000
v 0.100000 1.550000 0.200000
v -0.100000 1.550000 -0.200000
v 0.100000 1.550000 -0.200000
v -0.200000 0.250000 -0.200000
v 0.200000 0.250000 -0.200000
v 0.200000 0.250000 0.200000
v -0.200000 0.250000 0.200000
v -0.250000 0.300000 0.250000
v -0.250000 0.300000 -0.250000
v 0.250000 0.300000 -0.250000
v 0.250000 0.300000 0.250000
v -0.250000 0.200000 -0.250000
v 0.250000 0.200000 -0.250000
v 0.250000 0.200000 0.250000
v -0.250000 0.200000 0.250000
v -0.200000 0.550000 0.200000
v -0.200000 1.750000 0.200000
v -0.200000 0.550000 -0.200000
v 0.200000 0.550000 -0.200000
v 0.200000 0.550000 0.200000
v 0.200000 1.750000 0.200000
v -0.200000 1.750000 -0.200000
v 0.200000 1.750000 -0.200000
v -0.000000 0.850000 -0.150000
v -0.000000 1.450000 -0.150000
v -0.000000 0.850000 0.150000
v -0.000000 1.450000 0.150000
vt 0.409918 0.892855
vt 0.409918 0.902421
vt 0.409918 0.902421
vt 0.409918 0.892855
vt 0.409918 0.908480
vt 0.409918 0.918046
vt 0.433832 0.918046
vt 0.433832 0.908480
vt 0.433832 0.892855
vt 0.433832 0.902421
vt 0.433832 0.902421
vt 0.433832 0.892855
vt 0.433832 0.908480
vt 0.433832 0.918046
vt 0.409918 0.918046
vt 0.409918 0.908480
vt 0.409918 0.775513
vt 0.433832 0.775513
vt 0.433832 0.775513
vt 0.409918 0.775513
vt 0.409918 0.933671
vt 0.409918 0.933671
vt 0.421875 0.943237
vt 0.433832 0.861605
vt 0.433832 0.861605
vt 0.431441 0.859214
vt 0.431441 0.859214
vt 0.433832 0.821112
vt 0.433832 0.830678
vt 0.433832 0.830678
vt 0.433832 0.821112
vt 0.433832 0.836737
vt 0.433832 0.846303
vt 0.409918 0.846303
vt 0.409918 0.836737
vt 0.409918 0.821112
vt 0.409918 0.830678
vt 0.409918 0.830678
vt 0.409918 0.821112
vt 0.433832 0.861928
vt 0.433832 0.861928
vt 0.431441 0.864319
vt 0.431441 0.864319
vt 0.409918 0.836737
vt 0.409918 0.846303
vt 0.433832 0.846303
vt 0.433832 0.836737
vt 0.409918 0.861605
vt 0.409918 0.861605
vt 0.412309 0.859214
vt 0.412309 0.859214
vt 0.433832 0.877230
vt 0.409918 0.877230
vt 0.412309 0.874839
vt 0.431441 0.874839
vt 0.409918 0.949296
vt 0.433832 0.949296
vt 0.421875 0.958862
vt 0.433832 0.949296
vt 0.409918 0.949296
vt 0.433832 0.933671
vt 0.433832 0.933671
vt 0.426658 0.865273
vt 0.417092 0.865273
vt 0.421875 0.860490
vt 0.431441 0.833069
vt 0.431441 0.890464
vt 0.431441 0.890464
vt 0.431441 0.833069
vt 0.417092 0.842635
vt 0.417092 0.880898
vt 0.421875 0.860490
vt 0.421875 0.831793
vt 0.412309 0.833069
vt 0.412309 0.890464
vt 0.412309 0.890464
vt 0.412309 0.833069
vt 0.409918 0.861928
vt 0.409918 0.861928
vt 0.412309 0.864319
vt 0.412309 0.864319
vt 0.409918 0.877553
vt 0.433832 0.877553
vt 0.431441 0.879944
vt 0.412309 0.879944
vt 0.409918 0.877230
vt 0.433832 0.877230
vt 0.431441 0.874839
vt 0.412309 0.874839
vt 0.433832 0.877553
vt 0.409918 0.877553
vt 0.412309 0.879944
vt 0.431441 0.879944
vt 0.409918 0.863204
vt 0.412309 0.865595
vt 0.431441 0.865595
vt 0.433832 0.863204
vt 0.409918 0.847579
vt 0.412309 0.849970
vt 0.412309 0.849970
vt 0.409918 0.847579
vt 0.433832 0.863204
vt 0.431441 0.865595
vt 0.412309 0.865595
vt 0.409918 0.863204
vt 0.433832 0.847579
vt 0.431441 0.849970
vt 0.431441 0.849970
vt 0.433832 0.847579
vt 0.412309 0.803095
vt 0.409918 0.805487
vt 0.433832 0.805487
vt 0.431441 0.803095
vt 0.412309 0.787470
vt 0.409918 0.789862
vt 0.409918 0.789862
vt 0.412309 0.787470
vt 0.431441 0.803095
vt 0.433832 0.805487
vt 0.409918 0.805487
vt 0.412309 0.803095
vt 0.431441 0.787470
vt 0.433832 0.789862
vt 0.433832 0.789862
vt 0.431441 0.787470
vt 0.433832 0.806763
vt 0.433832 0.816329
vt 0.433832 0.816329
vt 0.433832 0.806763
vt 0.433832 0.822388
vt 0.433832 0.831954
vt 0.409918 0.831954
vt 0.409918 0.822388
vt 0.409918 0.806763
vt 0.409918 0.816329
vt 0.409918 0.816329
vt 0.409918 0.806763
vt 0.409918 0.822388
vt 0.409918 0.831954
vt 0.433832 0.831954
vt 0.433832 0.822388
vt 0.417092 0.858260
vt 0.417092 0.896523
vt 0.412309 0.906089
vt 0.412309 0.848694
vt 0.417092 0.858260
vt 0.426658 0.858260
vt 0.431441 0.848694
vt 0.412309 0.848694
vt 0.426658 0.858260
vt 0.431441 0.848694
vt 0.426658 0.896523
vt 0.431441 0.906089
vt 0.417092 0.896523
vt 0.412309 0.906089
vt 0.426658 0.896523
vt 0.431441 0.906089
vt 0.417092 0.865273
vt 0.426658 0.865273
vt 0.426658 0.880898
vt 0.426658 0.842635
vt 0.421875 0.847418
vt 0.421875 0.876115
vt 0.426658 0.889510
vt 0.417092 0.889510
vt 0.421875 0.894293
vt 0.417092 0.889510
vt 0.426658 0.889510
vt 0.421875 0.894293
vt 0.417092 0.880898
vt 0.417092 0.842635
vt 0.421875 0.847418
vt 0.421875 0.876115
vt 0.426658 0.842635
vt 0.426658 0.880898
vt 0.421875 0.831793
vn -0.9576 -0.2880 0.0000
vn -1.0000 0.0000 0.0000
vn 0.0000 -0.2880 -0.9576
vn 0.0000 0.0000 -1.0000
vn 0.9576 -0.2880 0.0000
vn 1.0000 0.0000 0.0000
vn 0.0000 -0.2880 0.9576
vn 0.0000 0.0000 1.0000
vn 0.0000 -1.0000 0.0000
vn -0.6247 0.7809 0.0000
vn 0.8959 -0.4444 0.0000
vn 0.7071 0.7071 0.0000
vn -0.8959 -0.4444 0.0000
vn 0.0000 -0.4444 0.8959
vn 0.0000 0.7809 0.6247
vn 0.0000 0.7809 -0.6247
vn 0.6247 0.7809 0.0000
vn 0.0000 -0.4472 0.8944
vn 0.4472 0.0000 -0.8944
vn -0.7071 0.7071 0.0000
vn 0.0000 0.7071 0.7071
vn 0.0000 -0.4444 -0.8959
vn 0.0000 0.7071 -0.7071
vn 0.0000 -0.7071 -0.7071
vn -0.7071 -0.7071 0.0000
vn 0.0000 -0.7071 0.7071
vn 0.7071 -0.7071 0.0000
vn 0.0000 -0.4472 -0.8944
vn -0.4472 0.0000 -0.8944
vn 0.0000 0.4472 -0.8944
vn 0.0000 0.4472 0.8944
vn 0.4472 0.0000 0.8944
vn -0.4472 0.0000 0.8944
usemtl HalloweenBits
s 1
f 12/1/1 2/2/2 4/3/2 10/4/1
f 10/5/3 4/6/4 8/7/4 9/8/3
f 9/9/5 8/10/6 6/11/6 11/12/5
f 11/13/7 6/14/8 2/15/8 12/16/7
f 3/17/9 7/18/9 5/19/9 1/20/9
f 4/21/10 2/22/10 17/23/10
f 9/24/5 11/25/5 43/26/11 45/27/11
f 32/28/6 14/29/6 13/30/6 33/31/6
f 33/32/8 13/33/8 16/34/8 30/35/8
f 30/36/2 16/37/2 15/38/2 31/39/2
f 13/40/12 14/41/12 41/42/12 42/43/12
f 31/44/4 15/45/4 14/46/4 32/47/4
f 12/48/1 10/49/1 44/50/13 39/51/13
f 11/52/7 12/53/7 39/54/14 43/55/14
f 2/56/15 6/57/15 17/58/15
f 8/59/16 4/60/16 17/58/16
f 6/61/17 8/62/17 17/23/17
f 23/63/18 19/64/18 49/65/18
f 41/66/6 45/67/11 43/68/11 42/69/6
f 20/70/19 24/71/19 47/72/19 46/73/19
f 38/74/2 39/75/13 44/76/13 40/77/2
f 15/78/20 16/79/20 38/80/20 40/81/20
f 16/82/21 13/83/21 42/84/21 38/85/21
f 10/86/3 9/87/3 45/88/22 44/89/22
f 14/90/23 15/91/23 40/92/23 41/93/23
f 34/94/23 26/95/23 27/96/23 35/97/23
f 37/98/20 29/99/20 26/100/20 34/101/20
f 36/102/21 28/103/21 29/104/21 37/105/21
f 35/106/12 27/107/12 28/108/12 36/109/12
f 26/110/24 31/111/24 32/112/24 27/113/24
f 29/114/25 30/115/25 31/116/25 26/117/25
f 28/118/26 33/119/26 30/120/26 29/121/26
f 27/122/27 32/123/27 33/124/27 28/125/27
f 7/126/6 35/127/6 36/128/6 5/129/6
f 5/130/8 36/131/8 37/132/8 1/133/8
f 1/134/2 37/135/2 34/136/2 3/137/2
f 3/138/4 34/139/4 35/140/4 7/141/4
f 18/142/8 19/143/8 39/144/14 38/145/8
f 20/146/4 21/147/4 41/148/4 40/149/4
f 22/150/8 18/142/8 38/145/8 42/151/8
f 23/152/8 22/150/8 42/151/8 43/153/14
f 24/154/4 20/146/4 40/149/4 44/155/22
f 21/147/4 25/156/4 45/157/22 41/148/4
f 19/143/8 23/152/8 43/153/14 39/144/14
f 25/156/4 24/154/4 44/155/22 45/157/22
f 24/158/28 25/159/28 47/72/28
f 25/160/29 21/161/29 46/162/29 47/163/29
f 21/164/30 20/165/30 46/166/30
f 18/167/31 22/168/31 48/169/31
f 19/170/32 18/171/32 48/172/32 49/173/32
f 22/174/33 23/175/33 49/65/33 48/176/33
