# Blender v3.4.1 OBJ File: 'Halloween_Bits_Export.blend'
# www.blender.org
mtllib fence_gate_right.mtl
o fence_gate_right_Cylinder.023
v -0.550000 0.000000 -0.052330
v -0.550000 2.644877 -0.052330
v -0.504681 0.000000 -0.026165
v -0.504681 2.644877 -0.026165
v -0.504681 0.000000 0.026165
v -0.504681 2.644877 0.026165
v -0.550000 0.000000 0.052330
v -0.550000 2.644877 0.052330
v -0.595319 0.000000 0.026165
v -0.595319 2.644877 0.026165
v -0.595319 0.000000 -0.026165
v -0.595319 2.644877 -0.026165
v -0.476579 2.700000 -0.042390
v -0.550000 2.700000 -0.084779
v -0.476579 2.700000 0.042390
v -0.550000 2.700000 0.084779
v -0.623421 2.700000 0.042390
v -0.623421 2.700000 -0.042390
v -0.550000 2.900000 0.000000
v -1.600000 1.400000 0.052329
v -1.600000 1.354681 0.026164
v -1.600000 1.354681 -0.026166
v -1.600000 1.400000 -0.052331
v -1.600000 1.445319 0.026164
v -1.600000 1.445319 -0.026166
v -0.950000 2.700000 0.000000
v -1.023421 2.500000 -0.042390
v -1.023421 2.500000 0.042390
v -0.950000 2.500000 0.084779
v -0.876579 2.500000 0.042390
v -0.950000 2.500000 -0.084779
v -0.876579 2.500000 -0.042390
v -0.995319 2.444877 -0.026165
v -0.995319 0.000000 -0.026165
v -0.995319 2.444877 0.026165
v -0.995319 0.000000 0.026165
v -0.950000 2.444877 0.052330
v -0.950000 0.000000 0.052330
v -0.904681 2.444877 0.026165
v -0.904681 0.000000 0.026165
v -0.904681 2.444877 -0.026165
v -0.904681 0.000000 -0.026165
v -0.950000 2.444877 -0.052330
v -0.950000 0.000000 -0.052330
v -0.150000 3.000000 0.000000
v -0.223421 2.800000 -0.042390
v -0.223421 2.800000 0.042390
v -0.150000 2.800000 0.084779
v -0.076579 2.800000 0.042390
v -0.150000 2.800000 -0.084779
v -0.076579 2.800000 -0.042390
v -0.195319 2.744877 -0.026165
v -0.195319 0.000000 -0.026165
v -0.195319 2.744877 0.026165
v -0.195319 0.000000 0.026165
v -0.150000 2.744877 0.052330
v -0.150000 0.000000 0.052330
v -0.104681 2.744877 0.026165
v -0.104681 0.000000 0.026165
v -0.104681 2.744877 -0.026165
v -0.104681 0.000000 -0.026165
v -0.150000 2.744877 -0.052330
v -0.150000 0.000000 -0.052330
v -1.350000 0.000000 -0.052330
v -1.350000 2.244877 -0.052330
v -1.304681 0.000000 -0.026165
v -1.304681 2.244877 -0.026165
v -1.304681 0.000000 0.026165
v -1.304681 2.244877 0.026165
v -1.350000 0.000000 0.052330
v -1.350000 2.244877 0.052330
v -1.395319 0.000000 0.026165
v -1.395319 2.244877 0.026165
v -1.395319 0.000000 -0.026165
v -1.395319 2.244877 -0.026165
v -1.276579 2.300001 -0.042390
v -1.350000 2.300001 -0.084779
v -1.276579 2.300001 0.042390
v -1.350000 2.300001 0.084779
v -1.423421 2.300001 0.042390
v -1.423421 2.300001 -0.042390
v -1.350000 2.500000 0.000000
v -1.600000 0.400000 0.052329
v -1.600000 0.354681 0.026164
v -1.600000 0.354681 -0.026166
v -1.600000 0.400000 -0.052331
v -1.600000 0.445319 0.026164
v -1.600000 0.445319 -0.026166
v 0.000000 1.354681 0.026165
v 0.000000 1.354681 -0.026165
v 0.000000 1.445319 -0.026165
v -0.000000 1.400000 0.052330
v 0.000000 1.445319 0.026165
v 0.000000 1.400000 -0.052330
v 0.000000 0.354681 0.026165
v 0.000000 0.354681 -0.026165
v 0.000000 0.445319 -0.026165
v -0.000000 0.400000 0.052330
v 0.000000 0.445319 0.026165
v 0.000000 0.400000 -0.052330
v 0.000000 2.254681 0.026165
v 0.000000 2.254681 -0.026165
v 0.000000 2.345319 -0.026165
v -0.000000 2.300000 0.052330
v 0.000000 2.345319 0.026165
v 0.000000 2.300000 -0.052330
v -1.344146 2.044708 0.052328
v -1.344146 1.999389 0.026163
v -1.344146 1.999389 -0.026167
v -1.344146 2.044708 -0.052332
v -1.344146 2.090028 0.026163
v -1.344146 2.090028 -0.026167
v -0.973429 2.199198 0.052328
v -0.491700 2.300000 0.052329
v -0.961641 2.155333 0.026163
v -0.479957 2.255692 0.026164
v -0.961641 2.155333 -0.026167
v -0.479957 2.255692 -0.026166
v -0.491700 2.300000 -0.052331
v -0.973429 2.199198 -0.052332
v -0.503615 2.344291 0.026164
v -0.985163 2.243082 0.026163
v -0.985163 2.243082 -0.026167
v -0.503615 2.344291 -0.026166
vt 0.189209 0.821904
vt 0.189209 0.910035
vt 0.188198 0.910035
vt 0.188198 0.821904
vt 0.189835 0.913937
vt 0.188198 0.913937
vt 0.188198 0.959346
vt 0.189835 0.898312
vt 0.189835 0.898312
vt 0.188198 0.943721
vt 0.188198 0.821904
vt 0.188198 0.910035
vt 0.189209 0.910035
vt 0.189209 0.821904
vt 0.187188 0.910035
vt 0.187188 0.821904
vt 0.186562 0.898312
vt 0.186562 0.898312
vt 0.189209 0.806279
vt 0.189209 0.894410
vt 0.189209 0.894410
vt 0.189209 0.806279
vt 0.188198 0.913937
vt 0.189835 0.913937
vt 0.186562 0.913937
vt 0.188198 0.878785
vt 0.189209 0.878785
vt 0.189835 0.882687
vt 0.188198 0.882687
vt 0.186562 0.913937
vt 0.187188 0.878785
vt 0.186562 0.882687
vt 0.187188 0.863160
vt 0.187188 0.863160
vt 0.186562 0.867062
vt 0.186562 0.867062
vt 0.187188 0.806279
vt 0.187188 0.894410
vt 0.187188 0.894410
vt 0.187188 0.806279
vt 0.189209 0.878785
vt 0.188198 0.878785
vt 0.188198 0.882687
vt 0.189835 0.882687
vt 0.187188 0.821904
vt 0.189209 0.863160
vt 0.189209 0.863160
vt 0.189835 0.867062
vt 0.189835 0.867062
vt 0.187188 0.878785
vt 0.186562 0.882687
vt 0.187188 0.910035
vt 0.186562 0.913937
vt 0.188198 0.913937
vt 0.188198 0.959346
vt 0.188198 0.878785
vt 0.187188 0.878785
vt 0.186562 0.882687
vt 0.188198 0.882687
vt 0.189209 0.878785
vt 0.189835 0.882687
vt 0.189209 0.863160
vt 0.189209 0.863160
vt 0.189835 0.867062
vt 0.189835 0.867062
vt 0.186562 0.898312
vt 0.186562 0.898312
vt 0.188198 0.943721
vt 0.188198 0.821904
vt 0.189209 0.821904
vt 0.189209 0.821904
vt 0.188198 0.821904
vt 0.187188 0.821904
vt 0.187188 0.821904
vt 0.188198 0.913937
vt 0.186562 0.913937
vt 0.189835 0.898312
vt 0.189835 0.898312
vt 0.188198 0.910035
vt 0.189209 0.910035
vt 0.188198 0.878785
vt 0.189209 0.878785
vt 0.189835 0.882687
vt 0.188198 0.882687
vt 0.187188 0.910035
vt 0.189835 0.913937
vt 0.187188 0.863160
vt 0.187188 0.863160
vt 0.186562 0.867062
vt 0.186562 0.867062
vt 0.189835 0.913937
vt 0.189209 0.910035
vt 0.188198 0.910035
vt 0.187188 0.806279
vt 0.187188 0.894410
vt 0.187188 0.894410
vt 0.187188 0.806279
vt 0.187188 0.910035
vt 0.189209 0.806279
vt 0.189209 0.894410
vt 0.189209 0.894410
vt 0.189209 0.806279
vt 0.187188 0.878785
vt 0.186562 0.882687
vt 0.188198 0.878785
vt 0.187188 0.878785
vt 0.186562 0.882687
vt 0.188198 0.882687
vt 0.189209 0.821904
vt 0.189209 0.910035
vt 0.188198 0.910035
vt 0.188198 0.821904
vt 0.187188 0.806279
vt 0.187188 0.894410
vt 0.187188 0.894410
vt 0.187188 0.806279
vt 0.187188 0.863160
vt 0.187188 0.863160
vt 0.186562 0.867062
vt 0.186562 0.867062
vt 0.186562 0.913937
vt 0.188198 0.913937
vt 0.188198 0.959346
vt 0.187188 0.878785
vt 0.188198 0.878785
vt 0.188198 0.882687
vt 0.186562 0.882687
vt 0.189209 0.863160
vt 0.189209 0.863160
vt 0.189835 0.867062
vt 0.189835 0.867062
vt 0.186562 0.898312
vt 0.186562 0.898312
vt 0.188198 0.943721
vt 0.189209 0.806279
vt 0.189209 0.894410
vt 0.189209 0.894410
vt 0.189209 0.806279
vt 0.187188 0.821904
vt 0.187188 0.910035
vt 0.188198 0.910035
vt 0.188198 0.821904
vt 0.187188 0.910035
vt 0.187188 0.821904
vt 0.189209 0.821904
vt 0.188198 0.913937
vt 0.186562 0.913937
vt 0.189209 0.878785
vt 0.189835 0.882687
vt 0.189835 0.913937
vt 0.189835 0.898312
vt 0.189835 0.898312
vt 0.189209 0.878785
vt 0.189835 0.882687
vt 0.189835 0.913937
vt 0.189209 0.910035
vt 0.189209 0.806279
vt 0.189209 0.894410
vt 0.189209 0.894410
vt 0.189209 0.806279
vt 0.188198 0.913937
vt 0.189835 0.913937
vt 0.188198 0.959346
vt 0.189835 0.913937
vt 0.188198 0.913937
vt 0.188198 0.878785
vt 0.189209 0.878785
vt 0.189835 0.882687
vt 0.188198 0.882687
vt 0.188198 0.821904
vt 0.188198 0.910035
vt 0.189209 0.910035
vt 0.189209 0.821904
vt 0.189835 0.898312
vt 0.189835 0.898312
vt 0.188198 0.943721
vt 0.188198 0.821904
vt 0.188198 0.910035
vt 0.187188 0.910035
vt 0.187188 0.821904
vt 0.187188 0.878785
vt 0.186562 0.882687
vt 0.186562 0.913937
vt 0.187188 0.863160
vt 0.187188 0.863160
vt 0.186562 0.867062
vt 0.186562 0.867062
vt 0.186562 0.913937
vt 0.187188 0.806279
vt 0.187188 0.894410
vt 0.187188 0.894410
vt 0.187188 0.806279
vt 0.187188 0.821904
vt 0.187188 0.910035
vt 0.189209 0.821904
vt 0.189209 0.910035
vt 0.189209 0.878785
vt 0.188198 0.878785
vt 0.188198 0.882687
vt 0.189835 0.882687
vt 0.189209 0.863160
vt 0.189209 0.863160
vt 0.189835 0.867062
vt 0.189835 0.867062
vt 0.187188 0.878785
vt 0.186562 0.882687
vt 0.186562 0.898312
vt 0.186562 0.898312
vt 0.146963 0.904453
vt 0.146963 0.885619
vt 0.146963 0.885619
vt 0.146963 0.904453
vt 0.146963 0.851161
vt 0.146963 0.869994
vt 0.146963 0.851161
vt 0.146963 0.869055
vt 0.146963 0.850222
vt 0.146963 0.850222
vt 0.146963 0.869055
vt 0.146963 0.815763
vt 0.146963 0.834597
vt 0.146963 0.815763
vt 0.159270 0.851161
vt 0.182626 0.851161
vt 0.182626 0.869994
vt 0.159075 0.869994
vt 0.159076 0.869994
vt 0.182626 0.869994
vt 0.182626 0.851161
vt 0.159270 0.851161
vt 0.182626 0.851161
vt 0.182626 0.869994
vt 0.146963 0.869994
vt 0.182626 0.904453
vt 0.182626 0.904453
vt 0.182626 0.885619
vt 0.182626 0.885619
vt 0.182626 0.869994
vt 0.182626 0.851161
vt 0.182626 0.815763
vt 0.182626 0.834597
vt 0.146963 0.834597
vt 0.182626 0.869055
vt 0.182626 0.869055
vt 0.182626 0.850222
vt 0.182626 0.850222
vt 0.182626 0.834597
vt 0.182626 0.815763
vt 0.146963 0.904453
vt 0.146963 0.904453
vt 0.146963 0.904453
vt 0.146963 0.904453
vt 0.146963 0.851161
vt 0.146963 0.869994
vt 0.146963 0.869994
vt 0.146963 0.851161
vt 0.146963 0.869994
vt 0.146963 0.851161
vt 0.146963 0.851161
vt 0.146963 0.869994
vt 0.182626 0.904453
vt 0.182626 0.885619
vt 0.182626 0.885619
vt 0.182626 0.904453
vt 0.146963 0.885619
vt 0.146963 0.885619
vt 0.158879 0.904453
vt 0.158879 0.904453
vt 0.146963 0.885619
vt 0.146963 0.885619
vt 0.159076 0.885619
vt 0.159075 0.885619
vn 0.5000 0.0000 0.8660
vn 0.4840 -0.2511 0.8383
vn 0.4694 0.3446 -0.8130
vn 0.9387 0.3446 0.0000
vn 0.5000 0.0000 -0.8660
vn 0.4840 -0.2511 -0.8383
vn -0.5000 0.0000 0.8660
vn -0.4840 -0.2511 0.8383
vn -0.9387 0.3446 -0.0000
vn 1.0000 0.0000 0.0000
vn 0.9680 -0.2511 0.0000
vn 0.4694 0.3446 0.8130
vn -0.4694 0.3446 0.8130
vn 0.4455 -0.4542 0.7715
vn -0.4694 0.3446 -0.8130
vn -0.4455 -0.4542 0.7715
vn -0.9680 -0.2511 -0.0000
vn -0.8909 -0.4542 -0.0000
vn -1.0000 0.0000 0.0000
vn 0.4455 -0.4542 -0.7715
vn 0.0000 -1.0000 0.0000
vn 0.8909 -0.4542 0.0000
vn -0.4840 -0.2511 -0.8383
vn -0.4455 -0.4542 -0.7715
vn -0.5000 0.0000 -0.8660
vn 0.0465 -0.4972 0.8664
vn -0.0005 -0.5043 0.8635
vn 0.0554 -0.4958 0.8667
vn 0.0554 -0.4958 -0.8667
vn -0.0005 -0.5043 -0.8635
vn 0.0465 -0.4972 -0.8664
vn -0.0000 -0.5000 0.8660
vn 0.0000 1.0000 0.0000
vn 0.0000 0.5000 -0.8660
vn -0.0000 0.5000 0.8660
vn 0.0000 -0.5000 -0.8660
vn 0.1015 -0.9948 0.0000
vn -0.0021 -1.0000 0.0000
vn -0.3004 0.9538 0.0000
vn -0.3922 0.9199 0.0000
vn 0.1502 -0.4826 0.8629
vn 0.1483 -0.4828 0.8631
vn 0.1965 -0.4768 0.8568
vn 0.1483 -0.4828 -0.8631
vn 0.1502 -0.4826 -0.8629
vn 0.1965 -0.4768 -0.8568
vn 0.2920 -0.9564 0.0000
vn 0.3775 -0.9260 0.0000
vn -0.1503 0.4824 -0.8630
vn -0.1526 0.4821 -0.8627
vn -0.2006 0.4759 -0.8563
vn -0.1044 0.9945 0.0000
vn -0.0020 1.0000 0.0000
vn -0.1526 0.4821 0.8627
vn -0.1503 0.4824 0.8630
vn -0.2006 0.4759 0.8563
vn -0.0561 0.4956 -0.8667
vn -0.0005 0.5042 -0.8636
vn -0.0472 0.4971 -0.8664
vn -0.0472 0.4971 0.8664
vn -0.0561 0.4956 0.8667
vn -0.0005 0.5042 0.8636
usemtl HalloweenBits
s 1
f 5/1/1 6/2/2 8/3/2 7/4/1
f 13/5/3 14/6/3 19/7/3
f 15/8/4 13/9/4 19/10/4
f 1/11/5 2/12/6 4/13/6 3/14/5
f 7/4/7 8/3/8 10/15/8 9/16/7
f 18/17/9 17/18/9 19/10/9
f 3/19/10 4/20/11 6/21/11 5/22/10
f 16/23/12 15/24/12 19/7/12
f 17/25/13 16/23/13 19/7/13
f 8/26/2 6/27/2 15/28/14 16/29/14
f 14/6/15 18/30/15 19/7/15
f 10/31/8 8/26/8 16/29/16 17/32/16
f 12/33/17 10/34/17 17/35/18 18/36/18
f 9/37/19 10/38/17 12/39/17 11/40/19
f 4/41/6 2/42/6 14/43/20 13/44/20
f 1/11/21 3/14/21 5/1/21 7/4/21 9/16/21 11/45/21
f 6/46/11 4/47/11 13/48/22 15/49/22
f 2/42/23 12/50/23 18/51/24 14/43/24
f 11/45/25 12/52/23 2/12/23 1/11/25
f 28/53/13 29/54/13 26/55/13
f 43/56/23 33/57/23 27/58/24 31/59/24
f 41/60/6 43/56/6 31/59/20 32/61/20
f 39/62/11 41/63/11 32/64/22 30/65/22
f 27/66/9 28/67/9 26/68/9
f 44/69/21 42/70/21 40/71/21 38/72/21 36/73/21 34/74/21
f 31/75/15 27/76/15 26/55/15
f 30/77/4 32/78/4 26/68/4
f 44/69/5 43/79/6 41/80/6 42/70/5
f 37/81/2 39/82/2 30/83/14 29/84/14
f 34/74/25 33/85/23 43/79/23 44/69/25
f 32/86/3 31/75/3 26/55/3
f 33/87/17 35/88/17 28/89/18 27/90/18
f 29/54/12 30/91/12 26/55/12
f 40/71/1 39/92/2 37/93/2 38/72/1
f 36/94/19 35/95/17 33/96/17 34/97/19
f 38/72/7 37/93/8 35/98/8 36/73/7
f 42/99/10 41/100/11 39/101/11 40/102/10
f 35/103/8 37/81/8 29/84/16 28/104/16
f 62/105/23 52/106/23 46/107/24 50/108/24
f 59/109/1 58/110/2 56/111/2 57/112/1
f 55/113/19 54/114/17 52/115/17 53/116/19
f 52/117/17 54/118/17 47/119/18 46/120/18
f 47/121/13 48/122/13 45/123/13
f 54/124/8 56/125/8 48/126/16 47/127/16
f 58/128/11 60/129/11 51/130/22 49/131/22
f 46/132/9 47/133/9 45/134/9
f 61/135/10 60/136/11 58/137/11 59/138/10
f 53/139/25 52/140/23 62/141/23 63/142/25
f 57/112/7 56/111/8 54/143/8 55/144/7
f 63/142/21 61/145/21 59/109/21 57/112/21 55/144/21 53/139/21
f 50/146/15 46/147/15 45/123/15
f 60/148/6 62/105/6 50/108/20 51/149/20
f 51/150/3 50/146/3 45/123/3
f 49/151/4 51/152/4 45/134/4
f 56/125/2 58/153/2 49/154/14 48/126/14
f 48/122/12 49/155/12 45/123/12
f 63/142/5 62/141/6 60/156/6 61/145/5
f 66/157/10 67/158/11 69/159/11 68/160/10
f 79/161/12 78/162/12 82/163/12
f 76/164/3 77/165/3 82/163/3
f 71/166/2 69/167/2 78/168/14 79/169/14
f 64/170/5 65/171/6 67/172/6 66/173/5
f 78/174/4 76/175/4 82/176/4
f 70/177/7 71/178/8 73/179/8 72/180/7
f 73/181/8 71/166/8 79/169/16 80/182/16
f 80/183/13 79/161/13 82/163/13
f 75/184/17 73/185/17 80/186/18 81/187/18
f 77/165/15 81/188/15 82/163/15
f 72/189/19 73/190/17 75/191/17 74/192/19
f 74/193/25 75/194/23 65/171/23 64/170/25
f 68/195/1 69/196/2 71/178/2 70/177/1
f 67/197/6 65/198/6 77/199/20 76/200/20
f 64/170/21 66/173/21 68/195/21 70/177/21 72/180/21 74/193/21
f 69/201/11 67/202/11 76/203/22 78/204/22
f 65/198/23 75/205/23 81/206/24 77/199/24
f 81/207/9 80/208/9 82/176/9
f 25/209/19 23/210/19 20/211/19 24/212/19
f 21/213/19 20/211/19 23/214/19 22/215/19
f 88/216/19 86/217/19 83/218/19 87/219/19
f 84/220/19 83/218/19 86/221/19 85/222/19
f 116/223/26 101/224/27 104/225/27 114/226/28
f 119/227/29 106/228/30 102/229/30 118/230/31
f 21/213/32 89/231/32 92/232/32 20/233/32
f 24/212/33 93/234/33 91/235/33 25/209/33
f 25/209/34 91/235/34 94/236/34 23/210/34
f 20/211/35 92/237/35 93/234/35 24/212/35
f 23/214/36 94/238/36 90/239/36 22/215/36
f 22/215/21 90/239/21 89/231/21 21/213/21
f 84/220/32 95/240/32 98/241/32 83/242/32
f 87/219/33 99/243/33 97/244/33 88/216/33
f 88/216/34 97/244/34 100/245/34 86/217/34
f 83/218/35 98/246/35 99/243/35 87/219/35
f 86/221/36 100/247/36 96/248/36 85/222/36
f 85/222/21 96/248/21 95/240/21 84/220/21
f 118/230/37 102/229/38 101/224/38 116/223/37
f 122/249/39 123/250/39 112/251/40 111/252/40
f 115/253/41 113/254/42 107/255/43 108/256/43
f 120/257/44 117/258/45 109/259/46 110/260/46
f 117/258/47 115/253/47 108/256/48 109/259/48
f 105/261/10 104/262/10 106/263/10 103/264/10
f 101/224/10 102/229/10 106/228/10 104/262/10
f 93/234/10 92/237/10 94/236/10 91/235/10
f 89/231/10 90/239/10 94/238/10 92/237/10
f 99/243/10 98/246/10 100/245/10 97/244/10
f 95/240/10 96/248/10 100/247/10 98/246/10
f 123/250/49 120/265/50 110/266/51 112/251/51
f 121/267/52 105/261/53 103/264/53 124/268/52
f 113/269/54 122/249/55 111/252/56 107/270/56
f 124/268/57 103/264/58 106/263/58 119/271/59
f 124/268/57 119/271/59 120/265/50 123/250/49
f 114/272/60 121/267/61 122/249/55 113/269/54
f 116/223/26 114/226/28 113/254/42 115/253/41
f 118/230/37 116/223/37 115/253/47 117/258/47
f 121/267/52 124/268/52 123/250/39 122/249/39
f 119/227/29 118/230/31 117/258/45 120/257/44
f 114/272/60 104/262/62 105/261/62 121/267/61
