# Blender v3.4.1 OBJ File: 'Halloween_Bits_Export.blend'
# www.blender.org
mtllib fence_seperate.mtl
o fence_seperate_Cylinder.010
v -0.750000 0.000000 -0.052330
v -0.750000 1.744877 -0.052330
v -0.704681 0.000000 -0.026165
v -0.704681 1.744877 -0.026165
v -0.704681 0.000000 0.026165
v -0.704681 1.744877 0.026165
v -0.750000 0.000000 0.052330
v -0.750000 1.744877 0.052330
v -0.795319 0.000000 0.026165
v -0.795319 1.744877 0.026165
v -0.795319 0.000000 -0.026165
v -0.795319 1.744877 -0.026165
v -0.676579 1.800000 -0.042390
v -0.750000 1.800000 -0.084779
v -0.676579 1.800000 0.042390
v -0.750000 1.800000 0.084779
v -0.823421 1.800000 0.042390
v -0.823421 1.800000 -0.042390
v -0.750000 2.000000 0.000000
v -2.000000 1.400000 0.052329
v 2.000000 1.354681 0.026166
v -2.000000 1.354681 0.026164
v 2.000000 1.354681 -0.026164
v -2.000000 1.354681 -0.026166
v 2.000000 1.400000 -0.052329
v -2.000000 1.400000 -0.052331
v 2.000000 1.400000 0.052331
v -2.000000 1.445319 0.026164
v 2.000000 1.445319 0.026166
v -2.000000 1.445319 -0.026166
v 2.000000 1.445319 -0.026164
v 1.250000 0.000000 -0.052330
v 1.250000 1.744877 -0.052330
v 1.295319 0.000000 -0.026165
v 1.295319 1.744877 -0.026165
v 1.295319 0.000000 0.026165
v 1.295319 1.744877 0.026165
v 1.250000 0.000000 0.052330
v 1.250000 1.744877 0.052330
v 1.204681 0.000000 0.026165
v 1.204681 1.744877 0.026165
v 1.204681 0.000000 -0.026165
v 1.204681 1.744877 -0.026165
v 1.323421 1.800000 -0.042390
v 1.250000 1.800000 -0.084779
v 1.323421 1.800000 0.042390
v 1.250000 1.800000 0.084779
v 1.176579 1.800000 0.042390
v 1.176579 1.800000 -0.042390
v 1.250000 2.000000 0.000000
v -1.250000 2.000000 0.000000
v -1.323421 1.800000 -0.042390
v -1.323421 1.800000 0.042390
v -1.250000 1.800000 0.084779
v -1.176579 1.800000 0.042390
v -1.250000 1.800000 -0.084779
v -1.176579 1.800000 -0.042390
v -1.295319 1.744877 -0.026165
v -1.295319 0.000000 -0.026165
v -1.295319 1.744877 0.026165
v -1.295319 0.000000 0.026165
v -1.250000 1.744877 0.052330
v -1.250000 0.000000 0.052330
v -1.204681 1.744877 0.026165
v -1.204681 0.000000 0.026165
v -1.204681 1.744877 -0.026165
v -1.204681 0.000000 -0.026165
v -1.250000 1.744877 -0.052330
v -1.250000 0.000000 -0.052330
v -0.250000 2.000000 0.000000
v -0.323421 1.800000 -0.042390
v -0.323421 1.800000 0.042390
v -0.250000 1.800000 0.084779
v -0.176579 1.800000 0.042390
v -0.250000 1.800000 -0.084779
v -0.176579 1.800000 -0.042390
v -0.295319 1.744877 -0.026165
v -0.295319 0.000000 -0.026165
v -0.295319 1.744877 0.026165
v -0.295319 0.000000 0.026165
v -0.250000 1.744877 0.052330
v -0.250000 0.000000 0.052330
v -0.204681 1.744877 0.026165
v -0.204681 0.000000 0.026165
v -0.204681 1.744877 -0.026165
v -0.204681 0.000000 -0.026165
v -0.250000 1.744877 -0.052330
v -0.250000 0.000000 -0.052330
v 0.250000 0.000000 -0.052330
v 0.250000 1.744877 -0.052330
v 0.295319 0.000000 -0.026165
v 0.295319 1.744877 -0.026165
v 0.295319 0.000000 0.026165
v 0.295319 1.744877 0.026165
v 0.250000 0.000000 0.052330
v 0.250000 1.744877 0.052330
v 0.204681 0.000000 0.026165
v 0.204681 1.744877 0.026165
v 0.204681 0.000000 -0.026165
v 0.204681 1.744877 -0.026165
v 0.323421 1.800000 -0.042390
v 0.250000 1.800000 -0.084779
v 0.323421 1.800000 0.042390
v 0.250000 1.800000 0.084779
v 0.176579 1.800000 0.042390
v 0.176579 1.800000 -0.042390
v 0.250000 2.000000 0.000000
v 0.750000 2.000000 0.000000
v 0.676579 1.800000 -0.042390
v 0.676579 1.800000 0.042390
v 0.750000 1.800000 0.084779
v 0.823421 1.800000 0.042390
v 0.750000 1.800000 -0.084779
v 0.823421 1.800000 -0.042390
v 0.704681 1.744877 -0.026165
v 0.704681 0.000000 -0.026165
v 0.704681 1.744877 0.026165
v 0.704681 0.000000 0.026165
v 0.750000 1.744877 0.052330
v 0.750000 0.000000 0.052330
v 0.795319 1.744877 0.026165
v 0.795319 0.000000 0.026165
v 0.795319 1.744877 -0.026165
v 0.795319 0.000000 -0.026165
v 0.750000 1.744877 -0.052330
v 0.750000 0.000000 -0.052330
v 1.750000 0.000000 -0.052330
v 1.750000 1.744877 -0.052330
v 1.795319 0.000000 -0.026165
v 1.795319 1.744877 -0.026165
v 1.795319 0.000000 0.026165
v 1.795319 1.744877 0.026165
v 1.750000 0.000000 0.052330
v 1.750000 1.744877 0.052330
v 1.704681 0.000000 0.026165
v 1.704681 1.744877 0.026165
v 1.704681 0.000000 -0.026165
v 1.704681 1.744877 -0.026165
v 1.823421 1.800000 -0.042390
v 1.750000 1.800000 -0.084779
v 1.823421 1.800000 0.042390
v 1.750000 1.800000 0.084779
v 1.676579 1.800000 0.042390
v 1.676579 1.800000 -0.042390
v 1.750000 2.000000 0.000000
v -1.750000 0.000000 -0.052330
v -1.750000 1.744877 -0.052330
v -1.704681 0.000000 -0.026165
v -1.704681 1.744877 -0.026165
v -1.704681 0.000000 0.026165
v -1.704681 1.744877 0.026165
v -1.750000 0.000000 0.052330
v -1.750000 1.744877 0.052330
v -1.795319 0.000000 0.026165
v -1.795319 1.744877 0.026165
v -1.795319 0.000000 -0.026165
v -1.795319 1.744877 -0.026165
v -1.676579 1.800000 -0.042390
v -1.750000 1.800000 -0.084779
v -1.676579 1.800000 0.042390
v -1.750000 1.800000 0.084779
v -1.823421 1.800000 0.042390
v -1.823421 1.800000 -0.042390
v -1.750000 2.000000 0.000000
v -2.000000 0.400000 0.052329
v 2.000000 0.354681 0.026166
v -2.000000 0.354681 0.026164
v 2.000000 0.354681 -0.026164
v -2.000000 0.354681 -0.026166
v 2.000000 0.400000 -0.052329
v -2.000000 0.400000 -0.052331
v 2.000000 0.400000 0.052331
v -2.000000 0.445319 0.026164
v 2.000000 0.445319 0.026166
v -2.000000 0.445319 -0.026166
v 2.000000 0.445319 -0.026164
vt 0.189209 0.821904
vt 0.189209 0.910035
vt 0.188198 0.910035
vt 0.188198 0.821904
vt 0.189835 0.913937
vt 0.188198 0.913937
vt 0.188198 0.959346
vt 0.189835 0.898312
vt 0.189835 0.898312
vt 0.188198 0.943721
vt 0.188198 0.821904
vt 0.188198 0.910035
vt 0.189209 0.910035
vt 0.189209 0.821904
vt 0.187188 0.910035
vt 0.187188 0.821904
vt 0.186562 0.898312
vt 0.186562 0.898312
vt 0.189209 0.806279
vt 0.189209 0.894410
vt 0.189209 0.894410
vt 0.189209 0.806279
vt 0.188198 0.913937
vt 0.189835 0.913937
vt 0.186562 0.913937
vt 0.188198 0.878785
vt 0.189209 0.878785
vt 0.189835 0.882687
vt 0.188198 0.882687
vt 0.186562 0.913937
vt 0.187188 0.878785
vt 0.186562 0.882687
vt 0.187188 0.863160
vt 0.187188 0.863160
vt 0.186562 0.867062
vt 0.186562 0.867062
vt 0.187188 0.806279
vt 0.187188 0.894410
vt 0.187188 0.894410
vt 0.187188 0.806279
vt 0.189209 0.878785
vt 0.188198 0.878785
vt 0.188198 0.882687
vt 0.189835 0.882687
vt 0.187188 0.821904
vt 0.189209 0.863160
vt 0.189209 0.863160
vt 0.189835 0.867062
vt 0.189835 0.867062
vt 0.187188 0.878785
vt 0.186562 0.882687
vt 0.187188 0.910035
vt 0.146963 0.851161
vt 0.218289 0.851161
vt 0.218289 0.851161
vt 0.146963 0.851161
vt 0.146963 0.869994
vt 0.218289 0.869994
vt 0.146963 0.885619
vt 0.218289 0.885619
vt 0.218289 0.904453
vt 0.146963 0.904453
vt 0.146963 0.904453
vt 0.218289 0.904453
vt 0.218289 0.885619
vt 0.146963 0.885619
vt 0.218289 0.869994
vt 0.146963 0.869994
vt 0.189209 0.806279
vt 0.189209 0.894410
vt 0.189209 0.894410
vt 0.189209 0.806279
vt 0.188198 0.913937
vt 0.189835 0.913937
vt 0.188198 0.959346
vt 0.189835 0.913937
vt 0.188198 0.913937
vt 0.188198 0.878785
vt 0.189209 0.878785
vt 0.189835 0.882687
vt 0.188198 0.882687
vt 0.188198 0.821904
vt 0.188198 0.910035
vt 0.189209 0.910035
vt 0.189209 0.821904
vt 0.189835 0.898312
vt 0.189835 0.898312
vt 0.188198 0.943721
vt 0.188198 0.821904
vt 0.188198 0.910035
vt 0.187188 0.910035
vt 0.187188 0.821904
vt 0.187188 0.878785
vt 0.186562 0.882687
vt 0.186562 0.913937
vt 0.187188 0.863160
vt 0.187188 0.863160
vt 0.186562 0.867062
vt 0.186562 0.867062
vt 0.186562 0.913937
vt 0.187188 0.806279
vt 0.187188 0.894410
vt 0.187188 0.894410
vt 0.187188 0.806279
vt 0.187188 0.821904
vt 0.187188 0.910035
vt 0.189209 0.821904
vt 0.189209 0.910035
vt 0.189209 0.878785
vt 0.188198 0.878785
vt 0.188198 0.882687
vt 0.189835 0.882687
vt 0.189209 0.863160
vt 0.189209 0.863160
vt 0.189835 0.867062
vt 0.189835 0.867062
vt 0.187188 0.878785
vt 0.186562 0.882687
vt 0.186562 0.898312
vt 0.186562 0.898312
vt 0.186562 0.913937
vt 0.188198 0.913937
vt 0.188198 0.959346
vt 0.188198 0.878785
vt 0.187188 0.878785
vt 0.186562 0.882687
vt 0.188198 0.882687
vt 0.189209 0.878785
vt 0.189835 0.882687
vt 0.189209 0.863160
vt 0.189209 0.863160
vt 0.189835 0.867062
vt 0.189835 0.867062
vt 0.186562 0.898312
vt 0.186562 0.898312
vt 0.188198 0.943721
vt 0.188198 0.821904
vt 0.189209 0.821904
vt 0.189209 0.821904
vt 0.188198 0.821904
vt 0.187188 0.821904
vt 0.187188 0.821904
vt 0.188198 0.913937
vt 0.186562 0.913937
vt 0.189835 0.898312
vt 0.189835 0.898312
vt 0.188198 0.910035
vt 0.189209 0.910035
vt 0.188198 0.878785
vt 0.189209 0.878785
vt 0.189835 0.882687
vt 0.188198 0.882687
vt 0.187188 0.910035
vt 0.189835 0.913937
vt 0.187188 0.863160
vt 0.187188 0.863160
vt 0.186562 0.867062
vt 0.186562 0.867062
vt 0.189835 0.913937
vt 0.189209 0.910035
vt 0.188198 0.910035
vt 0.187188 0.806279
vt 0.187188 0.894410
vt 0.187188 0.894410
vt 0.187188 0.806279
vt 0.187188 0.910035
vt 0.189209 0.806279
vt 0.189209 0.894410
vt 0.189209 0.894410
vt 0.189209 0.806279
vt 0.187188 0.878785
vt 0.186562 0.882687
vt 0.188198 0.878785
vt 0.187188 0.878785
vt 0.186562 0.882687
vt 0.188198 0.882687
vt 0.189209 0.821904
vt 0.189209 0.910035
vt 0.188198 0.910035
vt 0.188198 0.821904
vt 0.187188 0.806279
vt 0.187188 0.894410
vt 0.187188 0.894410
vt 0.187188 0.806279
vt 0.187188 0.863160
vt 0.187188 0.863160
vt 0.186562 0.867062
vt 0.186562 0.867062
vt 0.186562 0.913937
vt 0.188198 0.913937
vt 0.188198 0.959346
vt 0.187188 0.878785
vt 0.188198 0.878785
vt 0.188198 0.882687
vt 0.186562 0.882687
vt 0.189209 0.863160
vt 0.189209 0.863160
vt 0.189835 0.867062
vt 0.189835 0.867062
vt 0.186562 0.898312
vt 0.186562 0.898312
vt 0.188198 0.943721
vt 0.189209 0.806279
vt 0.189209 0.894410
vt 0.189209 0.894410
vt 0.189209 0.806279
vt 0.187188 0.821904
vt 0.187188 0.910035
vt 0.188198 0.910035
vt 0.188198 0.821904
vt 0.187188 0.910035
vt 0.187188 0.821904
vt 0.189209 0.821904
vt 0.188198 0.913937
vt 0.186562 0.913937
vt 0.189209 0.878785
vt 0.189835 0.882687
vt 0.189835 0.913937
vt 0.189835 0.898312
vt 0.189835 0.898312
vt 0.189209 0.878785
vt 0.189835 0.882687
vt 0.189835 0.913937
vt 0.189209 0.910035
vt 0.188198 0.821904
vt 0.188198 0.910035
vt 0.189209 0.910035
vt 0.189209 0.821904
vt 0.189209 0.806279
vt 0.189209 0.894410
vt 0.189209 0.894410
vt 0.189209 0.806279
vt 0.189209 0.821904
vt 0.189209 0.910035
vt 0.188198 0.910035
vt 0.188198 0.821904
vt 0.187188 0.910035
vt 0.187188 0.821904
vt 0.187188 0.878785
vt 0.188198 0.878785
vt 0.188198 0.882687
vt 0.186562 0.882687
vt 0.187188 0.806279
vt 0.187188 0.894410
vt 0.187188 0.894410
vt 0.187188 0.806279
vt 0.187188 0.821904
vt 0.187188 0.910035
vt 0.186562 0.898312
vt 0.186562 0.898312
vt 0.188198 0.943721
vt 0.189209 0.863160
vt 0.189209 0.863160
vt 0.189835 0.867062
vt 0.189835 0.867062
vt 0.187188 0.863160
vt 0.187188 0.863160
vt 0.186562 0.867062
vt 0.186562 0.867062
vt 0.189209 0.878785
vt 0.188198 0.878785
vt 0.188198 0.882687
vt 0.189835 0.882687
vt 0.189209 0.878785
vt 0.189835 0.882687
vt 0.187188 0.878785
vt 0.186562 0.882687
vt 0.188198 0.913937
vt 0.189835 0.913937
vt 0.188198 0.959346
vt 0.189835 0.913937
vt 0.188198 0.913937
vt 0.186562 0.913937
vt 0.186562 0.913937
vt 0.189835 0.898312
vt 0.189835 0.898312
vt 0.186562 0.913937
vt 0.188198 0.913937
vt 0.188198 0.959346
vt 0.188198 0.878785
vt 0.187188 0.878785
vt 0.186562 0.882687
vt 0.188198 0.882687
vt 0.189209 0.878785
vt 0.189835 0.882687
vt 0.189209 0.863160
vt 0.189209 0.863160
vt 0.189835 0.867062
vt 0.189835 0.867062
vt 0.186562 0.898312
vt 0.186562 0.898312
vt 0.188198 0.943721
vt 0.188198 0.821904
vt 0.189209 0.821904
vt 0.189209 0.821904
vt 0.188198 0.821904
vt 0.187188 0.821904
vt 0.187188 0.821904
vt 0.188198 0.913937
vt 0.186562 0.913937
vt 0.189835 0.898312
vt 0.189835 0.898312
vt 0.188198 0.910035
vt 0.189209 0.910035
vt 0.188198 0.878785
vt 0.189209 0.878785
vt 0.189835 0.882687
vt 0.188198 0.882687
vt 0.187188 0.910035
vt 0.189835 0.913937
vt 0.187188 0.863160
vt 0.187188 0.863160
vt 0.186562 0.867062
vt 0.186562 0.867062
vt 0.189835 0.913937
vt 0.189209 0.910035
vt 0.188198 0.910035
vt 0.187188 0.806279
vt 0.187188 0.894410
vt 0.187188 0.894410
vt 0.187188 0.806279
vt 0.187188 0.910035
vt 0.189209 0.806279
vt 0.189209 0.894410
vt 0.189209 0.894410
vt 0.189209 0.806279
vt 0.187188 0.878785
vt 0.186562 0.882687
vt 0.189209 0.806279
vt 0.189209 0.894410
vt 0.189209 0.894410
vt 0.189209 0.806279
vt 0.188198 0.913937
vt 0.189835 0.913937
vt 0.188198 0.959346
vt 0.189835 0.913937
vt 0.188198 0.913937
vt 0.188198 0.878785
vt 0.189209 0.878785
vt 0.189835 0.882687
vt 0.188198 0.882687
vt 0.188198 0.821904
vt 0.188198 0.910035
vt 0.189209 0.910035
vt 0.189209 0.821904
vt 0.189835 0.898312
vt 0.189835 0.898312
vt 0.188198 0.943721
vt 0.188198 0.821904
vt 0.188198 0.910035
vt 0.187188 0.910035
vt 0.187188 0.821904
vt 0.187188 0.878785
vt 0.186562 0.882687
vt 0.186562 0.913937
vt 0.187188 0.863160
vt 0.187188 0.863160
vt 0.186562 0.867062
vt 0.186562 0.867062
vt 0.186562 0.913937
vt 0.187188 0.806279
vt 0.187188 0.894410
vt 0.187188 0.894410
vt 0.187188 0.806279
vt 0.187188 0.821904
vt 0.187188 0.910035
vt 0.189209 0.821904
vt 0.189209 0.910035
vt 0.189209 0.878785
vt 0.188198 0.878785
vt 0.188198 0.882687
vt 0.189835 0.882687
vt 0.189209 0.863160
vt 0.189209 0.863160
vt 0.189835 0.867062
vt 0.189835 0.867062
vt 0.187188 0.878785
vt 0.186562 0.882687
vt 0.186562 0.898312
vt 0.186562 0.898312
vt 0.189209 0.806279
vt 0.189209 0.894410
vt 0.189209 0.894410
vt 0.189209 0.806279
vt 0.188198 0.913937
vt 0.189835 0.913937
vt 0.188198 0.959346
vt 0.189835 0.913937
vt 0.188198 0.913937
vt 0.188198 0.878785
vt 0.189209 0.878785
vt 0.189835 0.882687
vt 0.188198 0.882687
vt 0.188198 0.821904
vt 0.188198 0.910035
vt 0.189209 0.910035
vt 0.189209 0.821904
vt 0.189835 0.898312
vt 0.189835 0.898312
vt 0.188198 0.943721
vt 0.188198 0.821904
vt 0.188198 0.910035
vt 0.187188 0.910035
vt 0.187188 0.821904
vt 0.187188 0.878785
vt 0.186562 0.882687
vt 0.186562 0.913937
vt 0.187188 0.863160
vt 0.187188 0.863160
vt 0.186562 0.867062
vt 0.186562 0.867062
vt 0.186562 0.913937
vt 0.187188 0.806279
vt 0.187188 0.894410
vt 0.187188 0.894410
vt 0.187188 0.806279
vt 0.187188 0.821904
vt 0.187188 0.910035
vt 0.189209 0.821904
vt 0.189209 0.910035
vt 0.189209 0.878785
vt 0.188198 0.878785
vt 0.188198 0.882687
vt 0.189835 0.882687
vt 0.189209 0.863160
vt 0.189209 0.863160
vt 0.189835 0.867062
vt 0.189835 0.867062
vt 0.187188 0.878785
vt 0.186562 0.882687
vt 0.186562 0.898312
vt 0.186562 0.898312
vt 0.146963 0.815763
vt 0.218289 0.815763
vt 0.218289 0.815763
vt 0.146963 0.815763
vt 0.146963 0.834597
vt 0.218289 0.834597
vt 0.146963 0.850222
vt 0.218289 0.850222
vt 0.218289 0.869055
vt 0.146963 0.869055
vt 0.146963 0.869055
vt 0.218289 0.869055
vt 0.218289 0.850222
vt 0.146963 0.850222
vt 0.218289 0.834597
vt 0.146963 0.834597
vn 0.5000 0.0000 0.8660
vn 0.4840 -0.2511 0.8383
vn 0.4694 0.3446 -0.8130
vn 0.9387 0.3446 0.0000
vn 0.5000 0.0000 -0.8660
vn 0.4840 -0.2511 -0.8383
vn -0.5000 0.0000 0.8660
vn -0.4840 -0.2511 0.8383
vn -0.9387 0.3446 -0.0000
vn 1.0000 0.0000 0.0000
vn 0.9680 -0.2511 0.0000
vn 0.4694 0.3446 0.8130
vn -0.4694 0.3446 0.8130
vn 0.4455 -0.4542 0.7715
vn -0.4694 0.3446 -0.8130
vn -0.4455 -0.4542 0.7715
vn -0.9680 -0.2511 -0.0000
vn -0.8909 -0.4542 -0.0000
vn -1.0000 0.0000 0.0000
vn 0.4455 -0.4542 -0.7715
vn 0.0000 -1.0000 0.0000
vn 0.8909 -0.4542 0.0000
vn -0.4840 -0.2511 -0.8383
vn -0.4455 -0.4542 -0.7715
vn -0.5000 0.0000 -0.8660
vn 0.0000 -0.5000 -0.8660
vn -0.0000 0.5000 0.8660
vn 0.0000 0.5000 -0.8660
vn 0.0000 1.0000 0.0000
vn -0.0000 -0.5000 0.8660
usemtl HalloweenBits
s 1
f 5/1/1 6/2/2 8/3/2 7/4/1
f 13/5/3 14/6/3 19/7/3
f 15/8/4 13/9/4 19/10/4
f 1/11/5 2/12/6 4/13/6 3/14/5
f 7/4/7 8/3/8 10/15/8 9/16/7
f 18/17/9 17/18/9 19/10/9
f 3/19/10 4/20/11 6/21/11 5/22/10
f 16/23/12 15/24/12 19/7/12
f 17/25/13 16/23/13 19/7/13
f 8/26/2 6/27/2 15/28/14 16/29/14
f 14/6/15 18/30/15 19/7/15
f 10/31/8 8/26/8 16/29/16 17/32/16
f 12/33/17 10/34/17 17/35/18 18/36/18
f 9/37/19 10/38/17 12/39/17 11/40/19
f 4/41/6 2/42/6 14/43/20 13/44/20
f 1/11/21 3/14/21 5/1/21 7/4/21 9/16/21 11/45/21
f 6/46/11 4/47/11 13/48/22 15/49/22
f 2/42/23 12/50/23 18/51/24 14/43/24
f 11/45/25 12/52/23 2/12/23 1/11/25
f 24/53/21 23/54/21 21/55/21 22/56/21
f 26/57/26 25/58/26 23/54/26 24/53/26
f 20/59/27 27/60/27 29/61/27 28/62/27
f 30/63/28 31/64/28 25/65/28 26/66/28
f 28/62/29 29/61/29 31/64/29 30/63/29
f 22/56/30 21/55/30 27/67/30 20/68/30
f 34/69/10 35/70/11 37/71/11 36/72/10
f 47/73/12 46/74/12 50/75/12
f 44/76/3 45/77/3 50/75/3
f 39/78/2 37/79/2 46/80/14 47/81/14
f 32/82/5 33/83/6 35/84/6 34/85/5
f 46/86/4 44/87/4 50/88/4
f 38/89/7 39/90/8 41/91/8 40/92/7
f 41/93/8 39/78/8 47/81/16 48/94/16
f 48/95/13 47/73/13 50/75/13
f 43/96/17 41/97/17 48/98/18 49/99/18
f 45/77/15 49/100/15 50/75/15
f 40/101/19 41/102/17 43/103/17 42/104/19
f 42/105/25 43/106/23 33/83/23 32/82/25
f 36/107/1 37/108/2 39/90/2 38/89/1
f 35/109/6 33/110/6 45/111/20 44/112/20
f 32/82/21 34/85/21 36/107/21 38/89/21 40/92/21 42/105/21
f 37/113/11 35/114/11 44/115/22 46/116/22
f 33/110/23 43/117/23 49/118/24 45/111/24
f 49/119/9 48/120/9 50/88/9
f 53/121/13 54/122/13 51/123/13
f 68/124/23 58/125/23 52/126/24 56/127/24
f 66/128/6 68/124/6 56/127/20 57/129/20
f 64/130/11 66/131/11 57/132/22 55/133/22
f 52/134/9 53/135/9 51/136/9
f 69/137/21 67/138/21 65/139/21 63/140/21 61/141/21 59/142/21
f 56/143/15 52/144/15 51/123/15
f 55/145/4 57/146/4 51/136/4
f 69/137/5 68/147/6 66/148/6 67/138/5
f 62/149/2 64/150/2 55/151/14 54/152/14
f 59/142/25 58/153/23 68/147/23 69/137/25
f 57/154/3 56/143/3 51/123/3
f 58/155/17 60/156/17 53/157/18 52/158/18
f 54/122/12 55/159/12 51/123/12
f 65/139/1 64/160/2 62/161/2 63/140/1
f 61/162/19 60/163/17 58/164/17 59/165/19
f 63/140/7 62/161/8 60/166/8 61/141/7
f 67/167/10 66/168/11 64/169/11 65/170/10
f 60/171/8 62/149/8 54/152/16 53/172/16
f 87/173/23 77/174/23 71/175/24 75/176/24
f 84/177/1 83/178/2 81/179/2 82/180/1
f 80/181/19 79/182/17 77/183/17 78/184/19
f 77/185/17 79/186/17 72/187/18 71/188/18
f 72/189/13 73/190/13 70/191/13
f 79/192/8 81/193/8 73/194/16 72/195/16
f 83/196/11 85/197/11 76/198/22 74/199/22
f 71/200/9 72/201/9 70/202/9
f 86/203/10 85/204/11 83/205/11 84/206/10
f 78/207/25 77/208/23 87/209/23 88/210/25
f 82/180/7 81/179/8 79/211/8 80/212/7
f 88/210/21 86/213/21 84/177/21 82/180/21 80/212/21 78/207/21
f 75/214/15 71/215/15 70/191/15
f 85/216/6 87/173/6 75/176/20 76/217/20
f 76/218/3 75/214/3 70/191/3
f 74/219/4 76/220/4 70/202/4
f 81/193/2 83/221/2 74/222/14 73/194/14
f 73/190/12 74/223/12 70/191/12
f 88/210/5 87/209/6 85/224/6 86/213/5
f 89/225/5 90/226/6 92/227/6 91/228/5
f 91/229/10 92/230/11 94/231/11 93/232/10
f 93/233/1 94/234/2 96/235/2 95/236/1
f 95/236/7 96/235/8 98/237/8 97/238/7
f 98/239/8 96/240/8 104/241/16 105/242/16
f 97/243/19 98/244/17 100/245/17 99/246/19
f 99/247/25 100/248/23 90/226/23 89/225/25
f 89/225/21 91/228/21 93/233/21 95/236/21 97/238/21 99/247/21
f 106/249/9 105/250/9 107/251/9
f 94/252/11 92/253/11 101/254/22 103/255/22
f 100/256/17 98/257/17 105/258/18 106/259/18
f 92/260/6 90/261/6 102/262/20 101/263/20
f 96/240/2 94/264/2 103/265/14 104/241/14
f 90/261/23 100/266/23 106/267/24 102/262/24
f 104/268/12 103/269/12 107/270/12
f 101/271/3 102/272/3 107/270/3
f 102/272/15 106/273/15 107/270/15
f 105/274/13 104/268/13 107/270/13
f 103/275/4 101/276/4 107/251/4
f 110/277/13 111/278/13 108/279/13
f 125/280/23 115/281/23 109/282/24 113/283/24
f 123/284/6 125/280/6 113/283/20 114/285/20
f 121/286/11 123/287/11 114/288/22 112/289/22
f 109/290/9 110/291/9 108/292/9
f 126/293/21 124/294/21 122/295/21 120/296/21 118/297/21 116/298/21
f 113/299/15 109/300/15 108/279/15
f 112/301/4 114/302/4 108/292/4
f 126/293/5 125/303/6 123/304/6 124/294/5
f 119/305/2 121/306/2 112/307/14 111/308/14
f 116/298/25 115/309/23 125/303/23 126/293/25
f 114/310/3 113/299/3 108/279/3
f 115/311/17 117/312/17 110/313/18 109/314/18
f 111/278/12 112/315/12 108/279/12
f 122/295/1 121/316/2 119/317/2 120/296/1
f 118/318/19 117/319/17 115/320/17 116/321/19
f 120/296/7 119/317/8 117/322/8 118/297/7
f 124/323/10 123/324/11 121/325/11 122/326/10
f 117/327/8 119/305/8 111/308/16 110/328/16
f 129/329/10 130/330/11 132/331/11 131/332/10
f 142/333/12 141/334/12 145/335/12
f 139/336/3 140/337/3 145/335/3
f 134/338/2 132/339/2 141/340/14 142/341/14
f 127/342/5 128/343/6 130/344/6 129/345/5
f 141/346/4 139/347/4 145/348/4
f 133/349/7 134/350/8 136/351/8 135/352/7
f 136/353/8 134/338/8 142/341/16 143/354/16
f 143/355/13 142/333/13 145/335/13
f 138/356/17 136/357/17 143/358/18 144/359/18
f 140/337/15 144/360/15 145/335/15
f 135/361/19 136/362/17 138/363/17 137/364/19
f 137/365/25 138/366/23 128/343/23 127/342/25
f 131/367/1 132/368/2 134/350/2 133/349/1
f 130/369/6 128/370/6 140/371/20 139/372/20
f 127/342/21 129/345/21 131/367/21 133/349/21 135/352/21 137/365/21
f 132/373/11 130/374/11 139/375/22 141/376/22
f 128/370/23 138/377/23 144/378/24 140/371/24
f 144/379/9 143/380/9 145/348/9
f 148/381/10 149/382/11 151/383/11 150/384/10
f 161/385/12 160/386/12 164/387/12
f 158/388/3 159/389/3 164/387/3
f 153/390/2 151/391/2 160/392/14 161/393/14
f 146/394/5 147/395/6 149/396/6 148/397/5
f 160/398/4 158/399/4 164/400/4
f 152/401/7 153/402/8 155/403/8 154/404/7
f 155/405/8 153/390/8 161/393/16 162/406/16
f 162/407/13 161/385/13 164/387/13
f 157/408/17 155/409/17 162/410/18 163/411/18
f 159/389/15 163/412/15 164/387/15
f 154/413/19 155/414/17 157/415/17 156/416/19
f 156/417/25 157/418/23 147/395/23 146/394/25
f 150/419/1 151/420/2 153/402/2 152/401/1
f 149/421/6 147/422/6 159/423/20 158/424/20
f 146/394/21 148/397/21 150/419/21 152/401/21 154/404/21 156/417/21
f 151/425/11 149/426/11 158/427/22 160/428/22
f 147/422/23 157/429/23 163/430/24 159/423/24
f 163/431/9 162/432/9 164/400/9
f 169/433/21 168/434/21 166/435/21 167/436/21
f 171/437/26 170/438/26 168/434/26 169/433/26
f 165/439/27 172/440/27 174/441/27 173/442/27
f 175/443/28 176/444/28 170/445/28 171/446/28
f 173/442/29 174/441/29 176/444/29 175/443/29
f 167/436/30 166/435/30 172/447/30 165/448/30
f 25/65/10 31/64/10 29/61/10 27/60/10
f 23/54/10 25/65/10 27/67/10 21/55/10
f 170/445/10 176/444/10 174/441/10 172/440/10
f 168/434/10 170/445/10 172/447/10 166/435/10
f 30/63/19 26/66/19 20/59/19 28/62/19
f 22/56/19 20/59/19 26/57/19 24/53/19
f 175/443/19 171/446/19 165/439/19 173/442/19
f 167/436/19 165/439/19 171/437/19 169/433/19
