# Blender v3.4.1 OBJ File: 'Halloween_Bits_Export.blend'
# www.blender.org
mtllib grave_B.mtl
o grave_B_Cube.109
v -1.000000 0.000000 0.500000
v -1.000000 0.000000 -0.500000
v 1.000000 0.000000 0.500000
v 1.000000 0.000000 -0.500000
v -0.950000 0.200000 0.450000
v -1.000000 0.150000 0.500000
v -0.950000 0.200000 -0.450000
v -1.000000 0.150000 -0.500000
v 0.950000 0.200000 0.450000
v 1.000000 0.150000 0.500000
v 0.950000 0.200000 -0.450000
v 1.000000 0.150000 -0.500000
v 0.450000 0.150000 0.500000
v 0.550000 0.150000 0.500000
v 0.500000 0.000000 0.450000
v 0.500000 0.200000 0.450000
v -0.450000 0.150000 -0.500000
v -0.350000 0.150000 -0.500000
v -0.400000 0.000000 -0.450000
v -0.400000 0.200000 -0.450000
v 0.550000 0.000000 0.500000
v 0.450000 0.000000 0.500000
v -0.450000 0.000000 -0.500000
v -0.350000 0.000000 -0.500000
v 0.480994 1.605680 -0.200000
v 0.480994 1.605680 0.200000
v -0.000000 1.953249 -0.200000
v -0.000000 1.953249 0.200000
v 0.354994 0.400001 -0.200000
v -0.354994 0.400001 -0.200000
v -0.354994 0.400001 0.200000
v 0.354994 0.400001 0.200000
v -0.254994 0.500001 0.100000
v 0.254994 0.500001 0.100000
v -0.000000 1.753249 0.100000
v -0.381009 1.505695 0.100014
v 0.380994 1.505680 0.100000
v 0.254994 0.500001 -0.100000
v -0.254994 0.500001 -0.100000
v -0.000000 1.753249 -0.100000
v 0.380994 1.505680 -0.100000
v -0.381009 1.505695 -0.100014
v -0.535182 0.200001 0.150000
v -0.535182 0.200001 -0.150000
v 0.535182 0.200001 0.150000
v 0.535182 0.200001 -0.150000
v -0.000000 2.138313 -0.200000
v -0.000000 2.200001 -0.150000
v 0.691940 1.700001 -0.150000
v 0.639204 1.676421 -0.200000
v -0.000000 2.138313 0.200000
v -0.000000 2.200001 0.150000
v 0.691940 1.700001 0.150000
v 0.639204 1.676421 0.200000
v -0.316369 1.724639 0.200000
v -0.459874 1.403579 0.200000
v -0.459874 1.403579 -0.200000
v -0.316369 1.724639 -0.200000
v -0.528327 1.818229 0.150000
v -0.670964 1.499281 0.150000
v -0.489140 1.573849 0.089708
v -0.625231 1.478101 0.193284
v -0.474962 1.795103 0.200000
v -0.438270 1.551105 0.118434
v -0.670964 1.499281 -0.150000
v -0.528327 1.818229 -0.150000
v -0.489140 1.573849 -0.089708
v -0.474962 1.795103 -0.200000
v -0.625231 1.478101 -0.193284
v -0.438270 1.551105 -0.118434
v -0.050000 0.740245 0.150000
v -0.050000 1.140244 0.150000
v -0.080000 0.710245 0.100000
v -0.080000 1.170244 0.100000
v 0.050000 0.740245 0.150000
v 0.050000 1.140244 0.150000
v 0.080000 0.710245 0.100000
v 0.080000 1.170244 0.100000
v -0.250000 1.240245 0.150000
v -0.250000 1.340245 0.150000
v -0.280000 1.210245 0.100000
v -0.280000 1.370245 0.100000
v 0.250000 1.240245 0.150000
v 0.250000 1.340245 0.150000
v 0.280000 1.210245 0.100000
v 0.280000 1.370245 0.100000
v -0.050000 1.440245 0.150000
v -0.050000 1.540245 0.150000
v -0.080000 1.410245 0.100000
v -0.080000 1.570245 0.100000
v 0.050000 1.440245 0.150000
v 0.050000 1.540245 0.150000
v 0.080000 1.410245 0.100000
v 0.080000 1.570245 0.100000
v -0.709088 0.200144 0.130736
v -0.697303 0.246157 0.150511
v -0.628268 0.200144 0.138098
v -0.643433 0.246157 0.155418
v -0.610296 0.200144 0.217238
v -0.631454 0.246157 0.208167
v -0.680008 0.200144 0.258786
v -0.677920 0.246157 0.235861
v -0.741065 0.200144 0.205325
v -0.718616 0.246157 0.200227
v -0.673745 0.254791 0.190037
v 0.674851 0.200144 0.014348
v 0.682463 0.270918 0.048928
v 0.789248 0.200144 0.064295
v 0.758711 0.270918 0.082220
v 0.777095 0.200144 0.188527
v 0.750612 0.270918 0.165024
v 0.655189 0.200144 0.215359
v 0.669357 0.270918 0.182909
v 0.591998 0.200144 0.107710
v 0.627239 0.270918 0.111158
v 0.697676 0.284197 0.118048
vt 0.423614 0.846797
vt 0.444362 0.834634
vt 0.440048 0.831134
vt 0.423614 0.839798
vt 0.444362 0.872663
vt 0.438927 0.830470
vt 0.446699 0.823471
vt 0.451186 0.875138
vt 0.444362 0.834634
vt 0.423614 0.846797
vt 0.423614 0.839798
vt 0.440048 0.831134
vt 0.408302 0.830470
vt 0.400529 0.823471
vt 0.453461 0.875964
vt 0.423614 0.893461
vt 0.423614 0.893461
vt 0.453461 0.875964
vt 0.403778 0.865590
vt 0.408302 0.830470
vt 0.400529 0.823471
vt 0.396645 0.868198
vt 0.446699 0.810795
vt 0.453461 0.863287
vt 0.453461 0.863287
vt 0.446699 0.810795
vt 0.409968 0.876826
vt 0.423614 0.884826
vt 0.423614 0.891302
vt 0.403127 0.879292
vt 0.400529 0.836148
vt 0.394672 0.881616
vt 0.396645 0.880875
vt 0.438927 0.830470
vt 0.446699 0.823471
vt 0.444362 0.872663
vt 0.423614 0.884826
vt 0.423614 0.891302
vt 0.451186 0.875138
vt 0.407179 0.831135
vt 0.409968 0.838796
vt 0.407179 0.843812
vt 0.403778 0.840238
vt 0.408302 0.805117
vt 0.412615 0.808617
vt 0.440048 0.869163
vt 0.423614 0.877827
vt 0.407180 0.869163
vt 0.408302 0.805117
vt 0.403778 0.840237
vt 0.407180 0.843810
vt 0.412615 0.808617
vt 0.403778 0.865590
vt 0.396645 0.868198
vt 0.408302 0.843147
vt 0.438927 0.843147
vt 0.434613 0.846646
vt 0.412615 0.846646
vt 0.438927 0.805117
vt 0.444362 0.847310
vt 0.440048 0.843810
vt 0.434613 0.808617
vt 0.407180 0.869163
vt 0.423614 0.877827
vt 0.440048 0.869163
vt 0.444362 0.847310
vt 0.438927 0.805117
vt 0.434613 0.808617
vt 0.440048 0.843810
vt 0.423614 0.906137
vt 0.400825 0.892777
vt 0.403127 0.891968
vt 0.423614 0.903979
vt 0.438927 0.843147
vt 0.408302 0.843147
vt 0.412615 0.846646
vt 0.434613 0.846646
vt 0.409968 0.876826
vt 0.403127 0.879292
vt 0.423614 0.906137
vt 0.453461 0.888640
vt 0.451186 0.887815
vt 0.423614 0.903979
vt 0.400529 0.810795
vt 0.394672 0.856263
vt 0.394672 0.856263
vt 0.400529 0.810795
vt 0.400825 0.892778
vt 0.403127 0.891968
vt 0.446699 0.836148
vt 0.451186 0.887815
vt 0.446699 0.836148
vt 0.453461 0.888640
vt 0.400825 0.880101
vt 0.400825 0.880101
vt 0.400529 0.836148
vt 0.396645 0.880875
vt 0.394672 0.881616
vt 0.434613 0.833970
vt 0.412615 0.833970
vt 0.412615 0.833970
vt 0.434613 0.833970
vt 0.398294 0.874322
vt 0.402867 0.857038
vt 0.398294 0.858697
vt 0.403778 0.849965
vt 0.409968 0.861201
vt 0.394672 0.912866
vt 0.396645 0.912125
vt 0.396042 0.919065
vt 0.395101 0.919407
vt 0.395101 0.856907
vt 0.396042 0.856565
vt 0.403127 0.860718
vt 0.400825 0.861527
vt 0.400825 0.861528
vt 0.403127 0.860718
vt 0.396042 0.856565
vt 0.395101 0.856906
vt 0.395101 0.919406
vt 0.396042 0.919065
vt 0.396645 0.912125
vt 0.394672 0.912866
vt 0.400825 0.848851
vt 0.400825 0.848851
vt 0.393768 0.844714
vt 0.393768 0.844714
vt 0.393768 0.894537
vt 0.393768 0.894537
vt 0.394672 0.887513
vt 0.394672 0.887513
vt 0.398294 0.874322
vt 0.409968 0.861201
vt 0.402867 0.857038
vt 0.398294 0.858697
vt 0.403778 0.849965
vt 0.409968 0.838796
vt 0.407180 0.831134
vt 0.434511 0.811625
vt 0.434511 0.822643
vt 0.449571 0.822643
vt 0.457106 0.811625
vt 0.457106 0.822496
vt 0.449571 0.833514
vt 0.443818 0.833514
vt 0.448475 0.822496
vt 0.448475 0.811625
vt 0.443818 0.822643
vt 0.425203 0.822643
vt 0.420546 0.811625
vt 0.419450 0.848571
vt 0.425203 0.848571
vt 0.434511 0.848571
vt 0.420546 0.822496
vt 0.425203 0.833514
vt 0.419450 0.833514
vt 0.411915 0.822496
vt 0.411915 0.811625
vt 0.419450 0.822643
vt 0.443818 0.848571
vt 0.449571 0.848571
vt 0.434511 0.848571
vt 0.434511 0.811625
vt 0.434511 0.822643
vt 0.449571 0.822643
vt 0.457106 0.811625
vt 0.457106 0.822496
vt 0.449571 0.833514
vt 0.443818 0.833514
vt 0.448475 0.822496
vt 0.448475 0.811625
vt 0.443818 0.822643
vt 0.425203 0.822643
vt 0.420546 0.811625
vt 0.419450 0.848571
vt 0.425203 0.848571
vt 0.434511 0.848571
vt 0.420546 0.822496
vt 0.425203 0.833514
vt 0.419450 0.833514
vt 0.411915 0.822496
vt 0.411915 0.811625
vt 0.419450 0.822643
vt 0.443818 0.848571
vt 0.449571 0.848571
vt 0.434511 0.848571
vt 0.455890 0.852991
vt 0.428571 0.852991
vt 0.428571 0.852992
vt 0.455890 0.852992
vt 0.461796 0.781340
vt 0.461796 0.806937
vt 0.461796 0.806937
vt 0.461796 0.781340
vt 0.395346 0.781340
vt 0.395346 0.806937
vt 0.395346 0.806937
vt 0.395346 0.781340
vt 0.428571 0.840484
vt 0.455890 0.840484
vt 0.461796 0.831952
vt 0.434477 0.831952
vt 0.401252 0.827977
vt 0.401252 0.827977
vt 0.395346 0.819445
vt 0.395346 0.819445
vt 0.401252 0.840484
vt 0.422665 0.831952
vt 0.395346 0.831952
vt 0.455890 0.827977
vt 0.455890 0.827977
vt 0.461796 0.819445
vt 0.461796 0.819445
vt 0.434477 0.793847
vt 0.434477 0.819445
vt 0.461796 0.793847
vt 0.461796 0.793847
vt 0.434477 0.819445
vt 0.434477 0.793847
vt 0.401252 0.852991
vt 0.401252 0.852992
vt 0.434477 0.768833
vt 0.428571 0.768833
vt 0.461796 0.768833
vt 0.428571 0.768833
vt 0.395346 0.768833
vt 0.395346 0.768833
vt 0.395346 0.793847
vt 0.422665 0.819445
vt 0.422665 0.793847
vt 0.428571 0.840484
vt 0.401252 0.840484
vt 0.395346 0.831952
vt 0.422665 0.831952
vt 0.455890 0.840484
vt 0.434477 0.831952
vt 0.461796 0.831952
vt 0.434477 0.768833
vt 0.461796 0.768833
vt 0.434477 0.806937
vt 0.434477 0.781340
vt 0.428571 0.781340
vt 0.422665 0.768833
vt 0.422665 0.794430
vt 0.428571 0.815470
vt 0.428571 0.802963
vt 0.428571 0.815470
vt 0.422665 0.806937
vt 0.428571 0.781340
vt 0.428571 0.802963
vt 0.434477 0.794430
vt 0.422665 0.781340
vt 0.422665 0.793847
vt 0.422665 0.819445
vt 0.395346 0.793847
vt 0.422665 0.768833
vt 0.398285 0.835613
vt 0.398285 0.850312
vt 0.394524 0.854721
vt 0.394524 0.831204
vt 0.464727 0.831204
vt 0.464727 0.854721
vt 0.460966 0.850312
vt 0.460966 0.835613
vt 0.460966 0.851238
vt 0.460966 0.865937
vt 0.398285 0.865937
vt 0.398285 0.851238
vt 0.394524 0.815579
vt 0.464727 0.815579
vt 0.460966 0.819988
vt 0.398285 0.819988
vt 0.464727 0.901596
vt 0.394524 0.901596
vt 0.398285 0.897187
vt 0.460966 0.897187
vt 0.398285 0.835613
vt 0.398285 0.850312
vt 0.394524 0.854721
vt 0.394524 0.831204
vt 0.464727 0.831204
vt 0.464727 0.854721
vt 0.460966 0.850312
vt 0.460966 0.835613
vt 0.460966 0.851238
vt 0.460966 0.865937
vt 0.398285 0.865937
vt 0.398285 0.851238
vt 0.394524 0.815579
vt 0.464727 0.815579
vt 0.460966 0.819988
vt 0.398285 0.819988
vt 0.464727 0.901596
vt 0.394524 0.901596
vt 0.398285 0.897187
vt 0.460966 0.897187
vt 0.398285 0.835613
vt 0.398285 0.850312
vt 0.394524 0.854721
vt 0.394524 0.831204
vt 0.464727 0.831204
vt 0.464727 0.854721
vt 0.460966 0.850312
vt 0.460966 0.835613
vt 0.460966 0.851238
vt 0.460966 0.865937
vt 0.398285 0.865937
vt 0.398285 0.851238
vt 0.394524 0.815579
vt 0.464727 0.815579
vt 0.460966 0.819988
vt 0.398285 0.819988
vt 0.464727 0.901596
vt 0.394524 0.901596
vt 0.398285 0.897187
vt 0.460966 0.897187
vn -0.3125 -0.4526 -0.8352
vn 0.1349 -0.0300 0.9904
vn -0.3125 -0.4526 0.8352
vn 0.0000 -0.2425 0.9701
vn 0.5857 0.8105 0.0000
vn -0.1507 -0.0316 -0.9881
vn 0.9946 -0.1039 0.0000
vn 0.0000 0.0000 1.0000
vn -0.7033 -0.0735 -0.7071
vn 0.0000 -0.2425 -0.9701
vn -0.0000 0.0000 -1.0000
vn 0.1349 -0.0300 -0.9904
vn 0.3060 -0.4482 -0.8399
vn 0.7011 0.0806 0.7085
vn 0.7011 0.0806 -0.7085
vn -0.1507 -0.0316 0.9881
vn 0.0000 0.7071 0.7071
vn -0.7048 0.0803 0.7048
vn -0.7048 0.0803 -0.7048
vn -0.4141 0.5731 0.7071
vn 0.0000 0.7071 -0.7071
vn 0.4141 0.5731 -0.7071
vn -0.9946 -0.1039 0.0000
vn -0.4141 0.5731 -0.7071
vn 0.7033 -0.0735 -0.7071
vn 0.7033 -0.0735 0.7071
vn -0.5857 0.8105 0.0000
vn 0.4141 0.5731 0.7071
vn -0.7033 -0.0735 0.7071
vn 0.1707 0.4575 -0.8727
vn -0.1482 -0.3335 -0.9310
vn 0.5271 0.3508 0.7740
vn -0.0299 -0.4079 0.9125
vn -0.0935 0.7893 0.6068
vn -0.6557 -0.3028 0.6917
vn -0.6557 -0.3028 -0.6917
vn -0.0935 0.7893 -0.6068
vn -0.9874 -0.1583 0.0000
vn -0.3794 0.9252 0.0000
vn -0.1482 -0.3335 0.9310
vn 0.1707 0.4575 0.8727
vn -0.0299 -0.4079 -0.9125
vn 0.5271 0.3508 -0.7740
vn 0.3060 -0.4482 0.8399
vn 0.0841 0.3752 -0.9231
vn 0.9039 0.3752 -0.2053
vn 0.4746 0.3752 0.7963
vn -0.1488 0.9741 0.1700
vn -0.6106 0.3752 0.6974
vn -0.8520 0.3752 -0.3652
vn 0.2203 0.9741 -0.0500
vn -0.2077 0.9741 -0.0890
vn 0.0205 0.9741 -0.2250
vn 0.1157 0.9741 0.1941
vn 0.3709 0.3752 -0.8495
vn 0.9225 0.3752 0.0902
vn 0.1993 0.3752 0.9053
vn -0.1948 0.9741 0.1144
vn -0.7994 0.3752 0.4693
vn -0.6933 0.3752 -0.6153
vn 0.2249 0.9741 0.0220
vn -0.1690 0.9741 -0.1500
vn 0.0904 0.9741 -0.2071
vn 0.0486 0.9741 0.2206
vn 0.0000 1.0000 0.0000
vn 1.0000 0.0000 0.0000
vn -1.0000 0.0000 0.0000
vn -0.7071 0.7071 0.0000
vn 0.7071 0.7071 0.0000
vn -0.4444 0.0000 0.8959
vn -0.3827 0.0000 0.9239
vn 0.0000 -1.0000 0.0000
vn -0.7071 0.0000 -0.7071
vn 0.7071 0.0000 -0.7071
vn 0.7071 0.0000 0.7071
vn 0.4444 0.0000 0.8959
vn -0.7071 0.0000 0.7071
vn 0.3827 0.0000 0.9239
vn -0.8575 0.0000 0.5145
vn 0.8575 0.0000 0.5145
vn 0.0000 -0.8575 0.5145
vn 0.0000 0.8575 0.5145
usemtl HalloweenBits
s off
f 27/1/1 25/2/1 41/3/1 40/4/1
f 26/5/2 32/6/2 45/7/2 54/8/2
f 26/9/3 28/10/3 35/11/3 37/12/3
f 32/6/4 31/13/4 43/14/4 45/7/4
f 49/15/5 48/16/5 52/17/5 53/18/5
f 57/19/6 30/20/6 44/21/6 69/22/6
f 46/23/7 49/24/7 53/25/7 45/26/7
f 55/27/8 28/28/8 51/29/8 63/30/8
f 44/31/9 65/32/9 69/33/9
f 28/28/8 26/5/8 54/8/8 51/29/8
f 30/20/10 29/34/10 46/35/10 44/21/10
f 25/36/11 27/37/11 47/38/11 50/39/11
f 29/34/12 25/36/12 50/39/12 46/35/12
f 42/40/13 58/41/13 27/1/13 40/4/13
f 36/42/14 56/43/14 31/44/14 33/45/14
f 37/46/8 35/47/8 36/48/8
f 30/49/15 57/50/15 42/51/15 39/52/15
f 31/13/16 56/53/16 62/54/16 43/14/16
f 31/55/17 32/56/17 34/57/17 33/58/17
f 32/59/18 26/60/18 37/61/18 34/62/18
f 42/63/11 40/64/11 41/65/11
f 25/66/19 29/67/19 38/68/19 41/69/19
f 52/70/20 59/71/20 63/72/20 51/73/20
f 29/74/21 30/75/21 39/76/21 38/77/21
f 27/37/11 58/78/11 68/79/11 47/38/11
f 48/80/22 49/81/22 50/82/22 47/83/22
f 43/84/23 60/85/23 65/86/23 44/87/23
f 66/88/24 48/80/24 47/83/24 68/89/24
f 49/81/25 46/90/25 50/82/25
f 54/91/26 45/92/26 53/93/26
f 48/16/27 66/94/27 59/95/27 52/17/27
f 53/93/28 52/70/28 51/73/28 54/91/28
f 43/96/29 62/97/29 60/98/29
f 34/99/8 37/46/8 36/48/8 33/100/8
f 39/101/11 42/63/11 41/65/11 38/102/11
f 69/22/30 70/103/30 57/19/30
f 68/79/31 58/78/31 70/103/31
f 36/104/32 64/105/32 56/106/32
f 36/104/33 55/107/33 64/105/33
f 60/108/34 62/109/34 64/110/34 61/111/34
f 61/112/35 64/113/35 63/114/35 59/115/35
f 66/116/36 68/117/36 70/118/36 67/119/36
f 67/120/37 70/121/37 69/122/37 65/123/37
f 59/124/38 66/125/38 67/126/38 61/127/38
f 61/128/39 67/129/39 65/130/39 60/131/39
f 55/27/40 63/30/40 64/132/40
f 64/132/41 62/54/41 56/53/41
f 58/133/42 42/134/42 70/135/42
f 70/135/43 42/134/43 57/136/43
f 28/10/44 55/137/44 36/138/44 35/11/44
f 95/139/45 96/140/45 98/141/45 97/142/45
f 97/143/46 98/144/46 100/145/46 99/146/46
f 99/147/47 100/148/47 102/149/47 101/150/47
f 104/151/48 102/152/48 105/153/48
f 101/154/49 102/155/49 104/156/49 103/157/49
f 103/158/50 104/159/50 96/140/50 95/139/50
f 100/160/51 98/161/51 105/153/51
f 96/162/52 104/151/52 105/153/52
f 98/161/53 96/162/53 105/153/53
f 102/152/54 100/160/54 105/153/54
f 106/163/55 107/164/55 109/165/55 108/166/55
f 108/167/56 109/168/56 111/169/56 110/170/56
f 110/171/57 111/172/57 113/173/57 112/174/57
f 115/175/58 113/176/58 116/177/58
f 112/178/59 113/179/59 115/180/59 114/181/59
f 114/182/60 115/183/60 107/164/60 106/163/60
f 111/184/61 109/185/61 116/177/61
f 107/186/62 115/175/62 116/177/62
f 109/185/63 107/186/63 116/177/63
f 113/176/64 111/184/64 116/177/64
s 1
f 11/187/65 20/188/65 16/189/65 9/190/65
f 4/191/66 12/192/66 10/193/66 3/194/66
f 1/195/67 6/196/67 8/197/67 2/198/67
f 20/199/21 11/200/21 12/201/21 18/202/21
f 5/203/68 7/204/68 8/205/68 6/206/68
f 7/207/21 20/199/21 17/208/21 8/209/21
f 11/210/69 9/211/69 10/212/69 12/213/69
f 24/214/11 18/215/11 12/213/11 4/216/11
f 3/217/8 10/212/8 14/218/70 21/219/71
f 20/188/65 7/220/65 5/221/65 16/189/65
f 21/222/72 15/223/72 3/224/72
f 19/225/72 15/223/72 1/226/72 2/227/72
f 2/228/11 8/205/11 17/229/11 23/230/11
f 16/231/17 5/232/17 6/233/17 13/234/17
f 9/235/17 16/231/17 14/236/17 10/237/17
f 19/225/72 24/238/72 4/239/72
f 18/240/73 24/241/73 19/242/73
f 19/225/74 23/243/74 17/244/74
f 20/245/73 18/240/73 19/242/73
f 20/246/74 19/225/74 17/244/74
f 16/247/75 13/248/76 15/249/75
f 16/250/77 15/223/77 14/251/70
f 13/248/76 22/252/78 15/249/75
f 15/223/77 21/222/71 14/251/70
f 22/253/78 13/254/76 6/206/8 1/255/8
f 23/243/72 19/225/72 2/227/72
f 15/223/72 22/256/72 1/226/72
f 15/223/72 19/225/72 4/239/72 3/224/72
f 71/257/79 72/258/79 74/259/79 73/260/79
f 77/261/80 78/262/80 76/263/80 75/264/80
f 75/265/8 76/266/8 72/267/8 71/268/8
f 73/269/81 77/270/81 75/271/81 71/272/81
f 78/273/82 74/274/82 72/275/82 76/276/82
f 79/277/79 80/278/79 82/279/79 81/280/79
f 85/281/80 86/282/80 84/283/80 83/284/80
f 83/285/8 84/286/8 80/287/8 79/288/8
f 81/289/81 85/290/81 83/291/81 79/292/81
f 86/293/82 82/294/82 80/295/82 84/296/82
f 87/297/79 88/298/79 90/299/79 89/300/79
f 93/301/80 94/302/80 92/303/80 91/304/80
f 91/305/8 92/306/8 88/307/8 87/308/8
f 89/309/81 93/310/81 91/311/81 87/312/81
f 94/313/82 90/314/82 88/315/82 92/316/82
