# Blender v3.4.1 OBJ File: 'Halloween_Bits_Export.blend'
# www.blender.org
mtllib gravemarker_B.mtl
o gravemarker_B_Cube.123
v -0.096500 0.000000 0.044389
v -0.097635 0.023976 0.065834
v -0.121794 0.024097 0.041546
v -0.105668 1.154148 0.108227
v -0.106859 1.179493 0.085387
v -0.129822 1.155429 0.084136
v -0.105318 0.000000 -0.037778
v -0.114107 1.167616 0.004255
v 0.096500 0.000000 0.044389
v 0.119455 0.024097 0.041546
v 0.095308 0.023976 0.065834
v 0.086140 1.179493 0.085387
v 0.087275 1.154148 0.108227
v 0.111427 1.155429 0.084136
v 0.103745 0.000000 -0.037778
v 0.094956 1.167616 0.004255
v -0.382225 0.820003 0.169628
v -0.358748 0.815076 0.193890
v -0.354954 0.840124 0.171037
v 0.368951 0.701328 0.199083
v 0.393147 0.698804 0.175161
v 0.372749 0.726376 0.176230
v -0.363991 0.829468 0.089846
v 0.379601 0.713236 0.095153
v -0.409714 0.629229 0.159715
v -0.389315 0.601657 0.158646
v -0.386237 0.624305 0.183977
v 0.365658 0.508030 0.165248
v 0.341463 0.510557 0.189170
v 0.338387 0.487909 0.163839
v -0.393771 0.622797 0.079107
v 0.349821 0.506566 0.084414
v 0.032632 0.640223 0.096340
v 0.136843 0.522208 0.252794
v 0.135956 0.595689 0.288757
v 0.116044 0.529166 0.331126
v 0.073594 0.459750 0.259046
v 0.012866 0.507157 0.304933
v 0.059346 0.509866 0.276035
v 0.012212 0.561337 0.331449
v 0.071565 0.627828 0.341305
v 0.058458 0.583398 0.312023
v 0.128686 0.636906 0.324166
v 0.189414 0.589499 0.278279
v 0.190068 0.535319 0.251762
v 0.130715 0.468828 0.241906
v 0.025720 0.490631 0.339017
v 0.086448 0.443224 0.293130
v 0.084418 0.611302 0.375389
v 0.025065 0.544811 0.365533
v 0.202267 0.572973 0.312362
v 0.141539 0.620380 0.358249
v 0.143569 0.452303 0.275990
v 0.202922 0.518793 0.285846
v -0.035179 0.687860 0.093857
v -0.059809 0.640529 0.293560
v -0.077626 0.720370 0.294815
v -0.126979 0.666867 0.331127
v -0.116448 0.574213 0.275267
v -0.187419 0.623720 0.251746
v -0.133585 0.624533 0.261944
v -0.200556 0.682589 0.252672
v -0.157202 0.756838 0.278138
v -0.151414 0.704430 0.263200
v -0.102820 0.768607 0.301440
v -0.031849 0.719101 0.324961
v -0.018712 0.660232 0.324035
v -0.062065 0.585983 0.298569
v -0.202378 0.619802 0.288636
v -0.131407 0.570295 0.312157
v -0.172161 0.752919 0.315028
v -0.215515 0.678671 0.289562
v -0.046808 0.715183 0.361851
v -0.117779 0.764689 0.338330
v -0.077024 0.582065 0.335459
v -0.033671 0.656314 0.360925
vt 0.431288 0.816496
vt 0.421370 0.879990
vt 0.421370 0.879990
vt 0.431288 0.832121
vt 0.421370 0.895615
vt 0.441199 0.895615
vt 0.441199 0.879990
vt 0.441199 0.879990
vt 0.441199 0.895615
vt 0.421370 0.895615
vt 0.431288 0.954958
vt 0.451688 0.937942
vt 0.451688 0.937942
vt 0.437864 0.937942
vt 0.424712 0.937942
vt 0.437864 0.897971
vt 0.424712 0.897971
vt 0.424712 0.906692
vt 0.437864 0.906692
vt 0.441199 0.864365
vt 0.421370 0.864365
vt 0.424712 0.866721
vt 0.437864 0.866721
vt 0.410888 0.897971
vt 0.410888 0.897971
vt 0.410888 0.906692
vt 0.410888 0.906692
vt 0.441199 0.864365
vt 0.451688 0.866721
vt 0.451688 0.866721
vt 0.410888 0.937942
vt 0.410888 0.937942
vt 0.421370 0.864365
vt 0.437864 0.866721
vt 0.424712 0.866721
vt 0.451688 0.897971
vt 0.451688 0.897971
vt 0.451688 0.906692
vt 0.451688 0.906692
vt 0.424712 0.897971
vt 0.437864 0.897971
vt 0.437864 0.906692
vt 0.424712 0.906692
vt 0.424712 0.937942
vt 0.437864 0.937942
vt 0.410888 0.866721
vt 0.410888 0.866721
vt 0.431288 0.816496
vt 0.421370 0.879990
vt 0.421370 0.879990
vt 0.431288 0.832121
vt 0.421370 0.895615
vt 0.441199 0.895615
vt 0.441199 0.879990
vt 0.441199 0.879990
vt 0.441199 0.895615
vt 0.421370 0.895615
vt 0.431288 0.954958
vt 0.451688 0.937942
vt 0.451688 0.937942
vt 0.437864 0.937942
vt 0.424712 0.937942
vt 0.437864 0.897971
vt 0.424712 0.897971
vt 0.424712 0.906692
vt 0.437864 0.906692
vt 0.441199 0.864365
vt 0.421370 0.864365
vt 0.424712 0.866721
vt 0.437864 0.866721
vt 0.410888 0.897971
vt 0.410888 0.897971
vt 0.410888 0.906692
vt 0.410888 0.906692
vt 0.441199 0.864365
vt 0.451688 0.866721
vt 0.451688 0.866721
vt 0.410888 0.937942
vt 0.410888 0.937942
vt 0.421370 0.864365
vt 0.437864 0.866721
vt 0.424712 0.866721
vt 0.451688 0.897971
vt 0.451688 0.897971
vt 0.451688 0.906692
vt 0.451688 0.906692
vt 0.424712 0.897971
vt 0.437864 0.897971
vt 0.437864 0.906692
vt 0.424712 0.906692
vt 0.424712 0.937942
vt 0.437864 0.937942
vt 0.410888 0.866721
vt 0.410888 0.866721
vt 0.932078 0.584315
vt 0.927902 0.644592
vt 0.913476 0.644592
vt 0.917651 0.584315
vt 0.933883 0.573377
vt 0.929709 0.633087
vt 0.929709 0.633508
vt 0.933883 0.573377
vt 0.892514 0.612123
vt 0.894639 0.602186
vt 0.894639 0.602607
vt 0.892514 0.612544
vt 0.927817 0.667176
vt 0.913387 0.667176
vt 0.913386 0.667597
vt 0.927817 0.667597
vt 0.915844 0.573377
vt 0.911670 0.633508
vt 0.911670 0.633087
vt 0.915844 0.573377
vt 0.917650 0.584315
vt 0.913477 0.643890
vt 0.927903 0.643890
vt 0.932077 0.584315
vt 0.896426 0.613863
vt 0.950990 0.619069
vt 0.948865 0.629005
vt 0.894301 0.623800
vt 0.896691 0.590169
vt 0.951255 0.595375
vt 0.951255 0.595796
vt 0.896691 0.590590
vt 0.952777 0.607733
vt 0.950652 0.617669
vt 0.950652 0.618090
vt 0.952777 0.608154
vt 0.894035 0.646791
vt 0.948600 0.651997
vt 0.948600 0.651576
vt 0.894035 0.646370
vt 0.894301 0.623098
vt 0.948865 0.628303
vt 0.950990 0.618367
vt 0.896426 0.613161
vt 0.917736 0.605089
vt 0.917651 0.604950
vt 0.915835 0.606352
vt 0.913476 0.666482
vt 0.913386 0.667738
vt 0.911669 0.666483
vt 0.933966 0.594066
vt 0.933971 0.594005
vt 0.933880 0.595321
vt 0.927817 0.667738
vt 0.929704 0.666542
vt 0.929708 0.666483
vt 0.892514 0.645519
vt 0.894056 0.646934
vt 0.894035 0.646932
vt 0.948865 0.650895
vt 0.950652 0.651066
vt 0.948599 0.652137
vt 0.894883 0.612308
vt 0.896691 0.612621
vt 0.896671 0.612619
vt 0.952777 0.641129
vt 0.951235 0.639715
vt 0.951255 0.639717
vt 0.915932 0.594005
vt 0.915932 0.594005
vt 0.915844 0.595267
vt 0.915849 0.595200
vt 0.911674 0.655476
vt 0.911670 0.655398
vt 0.911583 0.656652
vt 0.911670 0.654977
vt 0.933971 0.594005
vt 0.933883 0.595267
vt 0.933883 0.595267
vt 0.929621 0.656231
vt 0.929621 0.656652
vt 0.929709 0.655398
vt 0.929704 0.655597
vt 0.917736 0.604950
vt 0.932167 0.604950
vt 0.932078 0.606205
vt 0.917651 0.606205
vt 0.927902 0.666482
vt 0.892248 0.668090
vt 0.892248 0.668511
vt 0.894035 0.668681
vt 0.894056 0.668824
vt 0.948620 0.674029
vt 0.948600 0.673887
vt 0.950387 0.674058
vt 0.948600 0.673466
vt 0.896691 0.612060
vt 0.896691 0.612481
vt 0.953043 0.617436
vt 0.953043 0.617857
vt 0.951255 0.617686
vt 0.951235 0.628770
vt 0.896671 0.623564
vt 0.896691 0.623426
vt 0.951255 0.628631
vt 0.894639 0.635583
vt 0.896426 0.635753
vt 0.894301 0.645689
vt 0.950990 0.640959
vt 0.917736 0.561170
vt 0.932167 0.561170
vt 0.932167 0.561170
vt 0.917736 0.561170
vn -0.9928 -0.0622 0.1025
vn -0.0738 0.9621 0.2623
vn 0.8800 0.2173 -0.4223
vn -0.0453 -0.8118 -0.5822
vn 0.3850 -0.4019 0.8308
vn 0.3199 -0.3511 0.8800
vn -0.0108 0.8981 0.4396
vn -0.3169 0.5853 -0.7463
vn -0.9469 -0.1505 0.2841
vn -0.1244 0.4350 -0.8918
vn 0.2562 -0.4224 0.8694
vn -0.3126 0.2241 -0.9231
vn 0.9469 0.1505 -0.2841
vn 0.0108 -0.8981 -0.4396
vn 0.3213 -0.4733 0.8202
vn -0.5289 0.1338 -0.8381
vn -0.5341 0.5694 -0.6249
vn -0.0752 0.6421 -0.7629
vn -0.0699 0.2071 -0.9758
vn 0.2723 -0.4660 0.8418
vn 0.2712 -0.3736 0.8871
vn 0.3686 -0.3581 0.8578
vn 0.3697 -0.4505 0.8126
vn 0.6772 -0.5287 -0.5117
vn -0.6619 -0.7415 -0.1099
vn -0.6772 0.5287 0.5117
vn 0.6619 0.7415 0.1099
vn -0.5052 0.3744 -0.7775
vn -0.8197 -0.1744 -0.5456
vn -0.1310 0.9739 -0.1852
vn 0.9625 0.2121 0.1690
vn 0.2843 -0.9402 -0.1878
vn -0.3118 -0.0845 0.9464
vn -0.3879 -0.0313 0.9212
vn -0.2178 0.9759 0.0153
vn 0.3226 0.2922 -0.9003
vn -0.9015 -0.1951 -0.3863
vn 0.5476 0.1352 -0.8258
vn -0.4344 -0.1110 0.8938
vn 0.4102 -0.1003 -0.9065
vn 0.9015 0.1951 0.3863
vn 0.2178 -0.9759 -0.0153
vn -0.3583 -0.1641 0.9191
vn 0.1855 -0.1920 -0.9637
vn 0.0798 0.2814 -0.9563
vn 0.5170 0.3756 -0.7692
vn 0.6224 -0.0971 -0.7766
vn -0.4081 -0.1579 0.8992
vn -0.4305 -0.0575 0.9007
vn -0.3378 -0.0375 0.9405
vn -0.3154 -0.1378 0.9389
vn 0.7915 -0.5521 0.2623
vn -0.4835 -0.8280 -0.2840
vn -0.7915 0.5521 -0.2623
vn 0.4835 0.8280 0.2840
vn 0.1850 0.0567 -0.9811
vn 0.3445 -0.3304 0.8787
vn 0.3425 0.3063 0.8882
vn -0.3406 0.2977 0.8918
vn -0.3467 -0.3398 0.8743
vn 0.9799 0.0145 -0.1991
vn -0.9676 0.1500 -0.2033
vn -0.7772 -0.5642 -0.2784
vn -0.9470 -0.2056 0.2468
vn 0.1635 0.9785 -0.1255
vn 0.0000 0.9895 -0.1448
vn 0.3161 0.8942 0.3170
vn -0.9802 0.0001 -0.1982
vn -0.9091 0.3036 0.2853
vn -0.9723 0.1588 -0.1715
vn 0.0000 0.0360 -0.9994
vn -0.4023 -0.3307 0.8537
vn 0.2735 -0.4309 0.8600
vn 0.3762 0.2437 0.8939
vn -0.2996 0.3437 0.8900
vn -0.1480 -0.9578 -0.2463
vn -0.4650 -0.8571 0.2216
vn 0.9734 -0.1305 -0.1883
vn 0.7844 0.5880 -0.1977
vn 0.9389 0.1787 0.2941
vn 0.1538 0.9773 -0.1454
vn 0.4569 0.8302 0.3194
vn 0.0149 0.0497 -0.9987
vn -0.3203 -0.8662 0.3836
vn -0.7422 -0.4383 0.5070
vn -0.4637 0.7297 0.5026
vn 0.4720 -0.7079 0.5253
vn 0.7578 -0.4111 0.5066
vn 0.7559 0.4413 0.4836
vn -0.6974 0.5322 0.4799
vn -0.3355 0.7993 0.4986
vn 0.6836 -0.5783 0.4452
vn 0.3217 -0.8453 0.4265
vn -0.1631 -0.9865 0.0175
vn 0.7263 -0.6844 0.0640
vn -0.5919 0.8050 -0.0398
vn 0.5940 -0.7980 -0.1019
vn 0.0000 -1.0000 0.0000
usemtl HalloweenBits
s off
f 33/1/1 39/2/1 42/3/1
f 33/4/2 42/5/2 35/6/2
f 33/1/3 35/7/3 34/8/3
f 33/4/4 34/9/4 39/10/4
f 36/11/5 54/12/5 51/13/5
f 36/11/6 52/14/6 49/15/6
f 43/16/7 41/17/7 49/18/7 52/19/7
f 35/20/8 42/21/8 41/22/8 43/23/8
f 40/24/9 38/25/9 47/26/9 50/27/9
f 34/28/10 35/20/10 44/29/10 45/30/10
f 36/11/11 50/31/11 47/32/11
f 39/33/12 34/28/12 46/34/12 37/35/12
f 45/36/13 44/37/13 51/38/13 54/39/13
f 37/40/14 46/41/14 53/42/14 48/43/14
f 36/11/15 48/44/15 53/45/15
f 37/35/16 38/46/16 39/33/16
f 40/47/17 41/22/17 42/21/17
f 43/23/18 44/29/18 35/20/18
f 45/30/19 46/34/19 34/28/19
f 47/32/20 48/44/20 36/11/20
f 49/15/21 50/31/21 36/11/21
f 51/13/22 52/14/22 36/11/22
f 53/45/23 54/12/23 36/11/23
f 45/36/24 54/39/24 53/42/24 46/41/24
f 47/26/25 38/25/25 37/40/25 48/43/25
f 40/24/26 50/27/26 49/18/26 41/17/26
f 51/38/27 44/37/27 43/16/27 52/19/27
f 42/21/28 39/33/28 38/46/28 40/47/28
f 55/48/29 61/49/29 64/50/29
f 55/51/30 64/52/30 57/53/30
f 55/48/31 57/54/31 56/55/31
f 55/51/32 56/56/32 61/57/32
f 58/58/33 76/59/33 73/60/33
f 58/58/34 74/61/34 71/62/34
f 65/63/35 63/64/35 71/65/35 74/66/35
f 57/67/36 64/68/36 63/69/36 65/70/36
f 62/71/37 60/72/37 69/73/37 72/74/37
f 56/75/38 57/67/38 66/76/38 67/77/38
f 58/58/39 72/78/39 69/79/39
f 61/80/40 56/75/40 68/81/40 59/82/40
f 67/83/41 66/84/41 73/85/41 76/86/41
f 59/87/42 68/88/42 75/89/42 70/90/42
f 58/58/43 70/91/43 75/92/43
f 59/82/44 60/93/44 61/80/44
f 62/94/45 63/69/45 64/68/45
f 65/70/46 66/76/46 57/67/46
f 67/77/47 68/81/47 56/75/47
f 69/79/48 70/91/48 58/58/48
f 71/62/49 72/78/49 58/58/49
f 73/60/50 74/61/50 58/58/50
f 75/92/51 76/59/51 58/58/51
f 67/83/52 76/86/52 75/89/52 68/88/52
f 69/73/53 60/72/53 59/87/53 70/90/53
f 62/71/54 72/74/54 71/65/54 63/64/54
f 73/85/55 66/84/55 65/63/55 74/66/55
f 64/68/56 61/80/56 60/93/56 62/94/56
s 1
f 11/95/57 13/96/58 4/97/59 2/98/60
f 15/99/61 16/100/61 14/101/61 10/102/61
f 23/103/62 31/104/63 25/105/64 17/106/62
f 16/107/65 8/108/66 5/109/66 12/110/67
f 3/111/68 6/112/69 8/113/70 7/114/68
f 7/115/71 8/116/71 16/117/71 15/118/71
f 27/119/72 29/120/73 20/121/74 18/122/75
f 31/123/63 32/124/76 30/125/76 26/126/77
f 32/127/78 24/128/79 21/129/80 28/130/78
f 19/131/81 22/132/82 24/133/79 23/134/81
f 23/135/83 24/136/83 32/137/83 31/138/83
f 1/139/84 2/140/60 3/141/85
f 4/142/59 5/143/86 6/144/69
f 9/145/87 10/146/88 11/147/57
f 12/148/67 13/149/58 14/150/89
f 17/151/90 18/152/75 19/153/91
f 20/154/74 21/155/80 22/156/82
f 25/157/64 26/158/77 27/159/72
f 28/160/92 29/161/73 30/162/93
f 7/163/94 1/164/84 3/165/85
f 2/166/60 4/167/59 6/168/69 3/165/85
f 5/169/86 8/170/70 6/168/69
f 9/171/87 15/172/95 10/173/88
f 16/174/65 12/175/67 14/176/89
f 13/177/58 11/147/57 10/173/88 14/176/89
f 1/178/84 9/179/87 11/180/57 2/181/60
f 12/148/67 5/143/86 4/142/59 13/182/58
f 23/183/96 17/184/90 19/185/91
f 18/186/75 20/187/74 22/188/82 19/185/91
f 21/189/80 24/190/79 22/188/82
f 25/157/64 31/191/63 26/192/77
f 32/193/97 28/194/92 30/195/93
f 29/196/73 27/197/72 26/198/77 30/199/93
f 17/151/90 25/200/64 27/201/72 18/202/75
f 28/160/92 21/155/80 20/154/74 29/203/73
f 7/204/94 15/205/98 9/206/98 1/207/84
