# Blender v3.4.1 OBJ File: 'Halloween_Bits_Export.blend'
# www.blender.org
mtllib gravestone.mtl
o gravestone_Cube.101
v -0.500000 0.200001 0.200000
v -0.500000 0.200001 -0.200000
v 0.500000 0.200001 0.200000
v 0.500000 0.200001 -0.200000
v -0.173670 1.400001 0.200000
v -0.500000 1.073670 0.200000
v -0.346472 1.353698 0.200000
v -0.453698 1.246473 0.200000
v -0.500000 1.073670 -0.200000
v -0.173670 1.400001 -0.200000
v -0.453698 1.246473 -0.200000
v -0.346472 1.353698 -0.200000
v 0.500000 1.073670 0.200000
v 0.173670 1.400001 0.200000
v 0.453698 1.246473 0.200000
v 0.346472 1.353698 0.200000
v 0.173670 1.400001 -0.200000
v 0.500000 1.073670 -0.200000
v 0.346472 1.353698 -0.200000
v 0.453698 1.246473 -0.200000
v 0.400000 0.300001 -0.100000
v -0.400000 0.300001 -0.100000
v -0.400000 0.300001 0.100000
v 0.400000 0.300001 0.100000
v 0.000000 1.099351 0.100000
v -0.000000 1.100651 -0.100000
v -0.073670 1.300001 -0.100000
v -0.246472 1.253698 -0.100000
v -0.353698 1.146473 -0.100000
v -0.400000 0.973670 -0.100000
v 0.246472 1.253698 -0.100000
v 0.073670 1.300001 -0.100000
v 0.353698 1.146473 -0.100000
v 0.400000 0.973670 -0.100000
v -0.246472 1.253698 0.100000
v -0.073670 1.300001 0.100000
v -0.353698 1.146473 0.100000
v -0.400000 0.973670 0.100000
v 0.073670 1.300001 0.100000
v 0.246472 1.253698 0.100000
v 0.353698 1.146473 0.100000
v 0.400000 0.973670 0.100000
v 0.650000 0.050001 -0.200000
v 0.700000 0.000001 -0.150000
v -0.700000 0.000001 -0.150000
v -0.650000 0.050001 -0.200000
v -0.650000 0.050001 0.200000
v -0.700000 0.000001 0.150000
v 0.700000 0.000001 0.150000
v 0.650000 0.050001 0.200000
v -0.450000 1.533013 0.150000
v -0.424118 1.488185 0.200000
v -0.193417 1.550001 0.200000
v -0.200000 1.600001 0.150000
v -0.200000 1.600001 -0.150000
v -0.193417 1.550001 -0.200000
v -0.424118 1.488185 -0.200000
v -0.450000 1.533013 -0.150000
v -0.633013 1.350001 0.150000
v -0.588184 1.324119 0.200000
v -0.588184 1.324119 -0.200000
v -0.633013 1.350001 -0.150000
v -0.700000 1.100001 0.150000
v -0.650000 1.093418 0.200000
v -0.650000 1.093418 -0.200000
v -0.700000 1.100001 -0.150000
v 0.450000 1.533013 -0.150000
v 0.424118 1.488185 -0.200000
v 0.193417 1.550001 -0.200000
v 0.200000 1.600001 -0.150000
v 0.200000 1.600001 0.150000
v 0.193417 1.550001 0.200000
v 0.424118 1.488185 0.200000
v 0.450000 1.533013 0.150000
v 0.633013 1.350001 -0.150000
v 0.588184 1.324119 -0.200000
v 0.588184 1.324119 0.200000
v 0.633013 1.350001 0.150000
v 0.700000 1.100001 -0.150000
v 0.650000 1.093418 -0.200000
v 0.650000 1.093418 0.200000
v 0.700000 1.100001 0.150000
v -0.250000 0.410244 0.150000
v -0.250000 0.510244 0.150000
v -0.280000 0.380244 0.100000
v -0.280000 0.540244 0.100000
v 0.250000 0.410244 0.150000
v 0.250000 0.510244 0.150000
v 0.280000 0.380244 0.100000
v 0.280000 0.540244 0.100000
v -0.320125 0.928206 0.100000
v -0.140336 0.718234 0.100000
v -0.245446 0.703163 0.100000
v 0.320125 0.928206 0.100000
v 0.140336 0.718234 0.100000
v 0.245446 0.703163 0.100000
v -0.081630 1.200362 0.100000
v -0.249506 1.129277 0.100000
v 0.081630 1.200362 0.100000
v 0.249506 1.129277 0.100000
v -0.121143 0.650281 0.100000
v 0.121143 0.650281 0.100000
v 0.000000 0.625017 0.100000
v -0.037589 0.790854 0.200000
v 0.000000 0.890982 0.200000
v -0.037907 0.890982 0.200000
v -0.091655 0.805711 0.200000
v 0.037607 0.790805 0.200000
v 0.090472 0.805566 0.200000
v 0.036223 0.890982 0.200000
v 0.072816 0.972801 0.200000
v 0.184639 0.793385 0.200000
v 0.234408 0.890981 0.200000
v 0.184639 0.968073 0.200000
v -0.073999 0.972656 0.200000
v -0.185744 0.968332 0.200000
v -0.236091 0.890981 0.200000
v -0.185744 0.793126 0.200000
v 0.000000 0.735901 0.200000
v 0.000006 0.824213 0.161642
v 0.133866 0.886965 0.161642
v -0.135190 0.886965 0.161642
v 0.076017 1.112645 0.200000
v 0.077555 1.179879 0.161642
v -0.077555 1.179879 0.161642
v -0.076401 1.112634 0.200000
v 0.081708 0.773082 0.200000
v 0.129199 0.735901 0.161642
v 0.234312 0.720832 0.161642
v 0.211866 0.753617 0.200000
v 0.299243 0.927890 0.161642
v 0.262307 0.906864 0.200000
v 0.213782 1.054244 0.200000
v 0.234312 1.114948 0.161642
v -0.214189 1.054200 0.200000
v -0.234312 1.114948 0.161642
v -0.299243 0.927890 0.161642
v -0.262763 0.906569 0.200000
v -0.234312 0.720832 0.161642
v -0.212343 0.753534 0.200000
v -0.129199 0.735901 0.161642
v -0.081704 0.773068 0.200000
v -0.057956 0.698085 0.200000
v -0.107281 0.665901 0.161642
v 0.000000 0.645901 0.161642
v 0.000000 0.687646 0.200000
v 0.107281 0.665901 0.161642
v 0.057956 0.698085 0.200000
vt 0.421457 0.901916
vt 0.438755 0.901916
vt 0.439738 0.911186
vt 0.420473 0.911186
vt 0.455007 0.827749
vt 0.455007 0.881747
vt 0.462477 0.882967
vt 0.462477 0.818478
vt 0.405205 0.881747
vt 0.405205 0.827749
vt 0.397735 0.818478
vt 0.397735 0.882967
vt 0.464967 0.815388
vt 0.464967 0.883374
vt 0.464967 0.883374
vt 0.464967 0.815388
vt 0.407511 0.861177
vt 0.405205 0.850497
vt 0.410185 0.844316
vt 0.412491 0.854996
vt 0.407695 0.910137
vt 0.407695 0.910137
vt 0.398581 0.898825
vt 0.398581 0.898825
vt 0.407511 0.892427
vt 0.412851 0.899054
vt 0.408984 0.907366
vt 0.400813 0.897226
vt 0.405205 0.881747
vt 0.397735 0.882967
vt 0.452517 0.910137
vt 0.452517 0.910137
vt 0.461631 0.898825
vt 0.461631 0.898825
vt 0.452701 0.892427
vt 0.447361 0.899054
vt 0.451228 0.907366
vt 0.459398 0.897226
vt 0.455007 0.850497
vt 0.452701 0.861177
vt 0.447721 0.854996
vt 0.450027 0.844316
vt 0.395245 0.784138
vt 0.464967 0.784138
vt 0.464967 0.784138
vt 0.395245 0.784138
vt 0.405205 0.827749
vt 0.397735 0.818478
vt 0.420146 0.914277
vt 0.420146 0.914277
vt 0.438755 0.901916
vt 0.421457 0.901916
vt 0.420473 0.911186
vt 0.439738 0.911186
vt 0.440066 0.914277
vt 0.440066 0.914277
vt 0.395245 0.883374
vt 0.395245 0.883374
vt 0.407511 0.892427
vt 0.400813 0.897226
vt 0.447361 0.899054
vt 0.452701 0.892427
vt 0.459398 0.897226
vt 0.451228 0.907366
vt 0.455007 0.881747
vt 0.462477 0.882967
vt 0.412851 0.899054
vt 0.408984 0.907366
vt 0.455007 0.827749
vt 0.462477 0.818478
vt 0.395245 0.815388
vt 0.395245 0.815388
vt 0.455007 0.796499
vt 0.450027 0.802680
vt 0.405205 0.850497
vt 0.407511 0.861177
vt 0.412491 0.854996
vt 0.410185 0.844316
vt 0.455007 0.858999
vt 0.405205 0.858999
vt 0.410185 0.865180
vt 0.450027 0.865180
vt 0.438755 0.870666
vt 0.421457 0.870666
vt 0.426437 0.864485
vt 0.433775 0.864485
vt 0.438755 0.870666
vt 0.447361 0.867804
vt 0.442381 0.861623
vt 0.433775 0.864485
vt 0.405205 0.858999
vt 0.455007 0.858999
vt 0.450027 0.865180
vt 0.410185 0.865180
vt 0.405205 0.796499
vt 0.410185 0.802680
vt 0.447361 0.867804
vt 0.442381 0.861623
vt 0.412851 0.867804
vt 0.417831 0.861623
vt 0.405205 0.796499
vt 0.410185 0.802680
vt 0.452701 0.861177
vt 0.447721 0.854996
vt 0.412851 0.867804
vt 0.421457 0.870666
vt 0.426437 0.864485
vt 0.417831 0.861623
vt 0.455007 0.850497
vt 0.455007 0.796499
vt 0.450027 0.802680
vt 0.450027 0.844316
vt 0.450027 0.833930
vt 0.450027 0.875566
vt 0.410185 0.875566
vt 0.410185 0.833930
vt 0.410185 0.833930
vt 0.410185 0.875566
vt 0.450027 0.875566
vt 0.450027 0.833930
vt 0.430106 0.883414
vt 0.417831 0.892873
vt 0.426437 0.895735
vt 0.412491 0.886246
vt 0.433775 0.895735
vt 0.442381 0.892873
vt 0.447721 0.886246
vt 0.430106 0.883334
vt 0.426437 0.895735
vt 0.417831 0.892873
vt 0.412491 0.886246
vt 0.442381 0.892873
vt 0.433775 0.895735
vt 0.447721 0.886246
vt 0.464967 0.799763
vt 0.395245 0.799763
vt 0.397735 0.802853
vt 0.462477 0.802853
vt 0.395245 0.799763
vt 0.464967 0.799763
vt 0.462477 0.802853
vt 0.397735 0.802853
vt 0.408984 0.922991
vt 0.420473 0.926811
vt 0.420146 0.929902
vt 0.407695 0.925762
vt 0.420473 0.926811
vt 0.408984 0.922991
vt 0.407695 0.925762
vt 0.420146 0.929902
vt 0.400813 0.912851
vt 0.398581 0.914450
vt 0.400813 0.912851
vt 0.398581 0.914450
vt 0.397735 0.898592
vt 0.395245 0.898999
vt 0.397735 0.898592
vt 0.395245 0.898999
vt 0.451228 0.922991
vt 0.439738 0.926811
vt 0.440066 0.929902
vt 0.452517 0.925762
vt 0.439738 0.926811
vt 0.451228 0.922991
vt 0.452517 0.925762
vt 0.440066 0.929902
vt 0.459398 0.912851
vt 0.461631 0.914450
vt 0.459398 0.912851
vt 0.461631 0.914450
vt 0.462477 0.898592
vt 0.464967 0.898999
vt 0.462477 0.898592
vt 0.464967 0.898999
vt 0.464967 0.831013
vt 0.462477 0.834103
vt 0.395245 0.831013
vt 0.397735 0.834103
vt 0.397735 0.834103
vt 0.395245 0.831013
vt 0.464967 0.831013
vt 0.462477 0.834103
vt 0.398285 0.819988
vt 0.398285 0.834687
vt 0.394524 0.839096
vt 0.394524 0.815579
vt 0.464727 0.815579
vt 0.464727 0.839096
vt 0.460966 0.834687
vt 0.460966 0.819988
vt 0.460966 0.835613
vt 0.460966 0.850312
vt 0.398285 0.850312
vt 0.398285 0.835613
vt 0.394524 0.799954
vt 0.464727 0.799954
vt 0.460966 0.804363
vt 0.398285 0.804363
vt 0.464727 0.885971
vt 0.394524 0.885971
vt 0.398285 0.881562
vt 0.460966 0.881562
vt 0.427766 0.870306
vt 0.420541 0.858844
vt 0.427809 0.856846
vt 0.432862 0.870306
vt 0.401364 0.900414
vt 0.392635 0.844018
vt 0.392635 0.844018
vt 0.401364 0.900414
vt 0.447284 0.808799
vt 0.450230 0.818209
vt 0.450230 0.818209
vt 0.447284 0.808799
vt 0.464361 0.916039
vt 0.443288 0.924768
vt 0.443288 0.924768
vt 0.464361 0.916039
vt 0.473089 0.844018
vt 0.464361 0.900414
vt 0.464361 0.900414
vt 0.473089 0.844018
vt 0.422436 0.924768
vt 0.401364 0.916039
vt 0.401364 0.916039
vt 0.422436 0.924768
vt 0.450230 0.786959
vt 0.464361 0.784933
vt 0.464361 0.784933
vt 0.450230 0.786959
vt 0.407893 0.857152
vt 0.421879 0.854455
vt 0.401364 0.816183
vt 0.401364 0.816183
vt 0.401364 0.784933
vt 0.415494 0.786959
vt 0.415494 0.786959
vt 0.401364 0.784933
vt 0.427766 0.823431
vt 0.422914 0.834411
vt 0.414689 0.755610
vt 0.437918 0.809965
vt 0.432862 0.823431
vt 0.432863 0.756737
vt 0.422914 0.881286
vt 0.445024 0.858824
vt 0.437732 0.870306
vt 0.437918 0.856840
vt 0.420541 0.811969
vt 0.432862 0.849459
vt 0.425071 0.844375
vt 0.443846 0.854457
vt 0.440653 0.844375
vt 0.415494 0.818209
vt 0.418440 0.808799
vt 0.418440 0.808799
vt 0.415494 0.818209
vt 0.457683 0.857187
vt 0.432862 0.774860
vt 0.447284 0.777549
vt 0.447284 0.777549
vt 0.432862 0.774860
vt 0.418440 0.777549
vt 0.418440 0.777549
vt 0.442651 0.881305
vt 0.457683 0.880670
vt 0.461601 0.923504
vt 0.443081 0.931355
vt 0.464373 0.870306
vt 0.468124 0.872441
vt 0.422592 0.931353
vt 0.401124 0.870306
vt 0.407893 0.880705
vt 0.404069 0.923498
vt 0.397539 0.872402
vt 0.432862 0.842972
vt 0.404317 0.851829
vt 0.464361 0.816183
vt 0.464361 0.816183
vt 0.461343 0.851841
vt 0.427809 0.809971
vt 0.442651 0.834430
vt 0.437732 0.823431
vt 0.450858 0.755610
vt 0.407893 0.833830
vt 0.445024 0.811949
vt 0.401124 0.823431
vt 0.457683 0.810312
vt 0.407893 0.810277
vt 0.464373 0.823431
vt 0.457683 0.833795
vt 0.443288 0.940393
vt 0.422436 0.940393
vt 0.450230 0.802584
vt 0.464361 0.800558
vt 0.461343 0.804966
vt 0.443846 0.807582
vt 0.464361 0.831808
vt 0.473089 0.859643
vt 0.468124 0.856816
vt 0.461343 0.836216
vt 0.464361 0.931664
vt 0.461601 0.907879
vt 0.392635 0.859643
vt 0.397539 0.856777
vt 0.404069 0.907873
vt 0.401364 0.931664
vt 0.401364 0.831808
vt 0.404317 0.836204
vt 0.401364 0.800558
vt 0.415494 0.802584
vt 0.421879 0.807580
vt 0.404317 0.804954
vt 0.418440 0.824424
vt 0.432862 0.821735
vt 0.432862 0.827347
vt 0.425071 0.828750
vt 0.447284 0.824424
vt 0.440653 0.828750
vt 0.450230 0.833834
vt 0.443846 0.838832
vt 0.415494 0.833834
vt 0.421879 0.838830
vn 0.0000 0.0000 1.0000
vn 0.0000 0.0000 -1.0000
vn 1.0000 0.0000 0.0000
vn 0.9914 0.1305 0.0000
vn 0.5002 -0.3088 0.8090
vn 0.6450 -0.1111 0.7561
vn 0.6771 -0.0567 0.7337
vn 0.5283 -0.2750 0.8033
vn -0.5000 0.8660 0.0000
vn -0.8660 0.5000 0.0000
vn 0.5000 0.8660 0.0000
vn 0.8660 0.5000 0.0000
vn -0.6450 -0.1111 0.7561
vn -0.5002 -0.3088 0.8090
vn -0.5283 -0.2750 0.8033
vn -0.6771 -0.0567 0.7337
vn 0.0000 -1.0000 0.0000
vn -0.1305 0.9914 0.0000
vn 0.1305 0.9914 0.0000
vn -0.9914 0.1305 0.0000
vn -1.0000 0.0000 0.0000
vn -0.7071 0.0000 0.7071
vn 0.6450 -0.1111 -0.7561
vn 0.5002 -0.3088 -0.8090
vn 0.5283 -0.2750 -0.8033
vn 0.6771 -0.0567 -0.7337
vn 0.0000 0.7071 -0.7071
vn -0.1111 -0.6450 0.7561
vn 0.1111 -0.6450 0.7561
vn 0.0567 -0.6771 0.7337
vn -0.0567 -0.6771 0.7337
vn -0.1111 -0.6450 -0.7561
vn -0.3088 -0.5002 -0.8090
vn -0.2750 -0.5283 -0.8033
vn -0.0567 -0.6771 -0.7337
vn 0.0000 0.7071 0.7071
vn 0.7071 0.0000 0.7071
vn -0.3088 -0.5002 0.8090
vn -0.2750 -0.5283 0.8033
vn 0.3088 -0.5002 0.8090
vn 0.2750 -0.5283 0.8033
vn 0.7071 0.0000 -0.7071
vn -0.5002 -0.3088 -0.8090
vn -0.5283 -0.2750 -0.8033
vn 0.3088 -0.5002 -0.8090
vn 0.1111 -0.6450 -0.7561
vn 0.0567 -0.6771 -0.7337
vn 0.2750 -0.5283 -0.8033
vn -0.6450 -0.1111 -0.7561
vn -0.7071 0.0000 -0.7071
vn -0.6771 -0.0567 -0.7337
vn 0.0000 -0.7071 -0.7071
vn 0.0000 -0.7071 0.7071
vn -0.3474 0.6017 0.7193
vn -0.0919 0.6980 0.7101
vn -0.0919 0.6980 -0.7101
vn -0.3474 0.6017 -0.7193
vn -0.6017 0.3474 0.7193
vn -0.6017 0.3474 -0.7193
vn -0.6980 0.0919 0.7101
vn -0.6980 0.0919 -0.7101
vn 0.3474 0.6017 -0.7193
vn 0.0919 0.6980 -0.7101
vn 0.0919 0.6980 0.7101
vn 0.3474 0.6017 0.7193
vn 0.6017 0.3474 -0.7193
vn 0.6017 0.3474 0.7193
vn 0.6980 0.0919 -0.7101
vn 0.6980 0.0919 0.7101
vn -0.8575 0.0000 0.5145
vn 0.8575 0.0000 0.5145
vn 0.0000 -0.8575 0.5145
vn 0.0000 0.8575 0.5145
vn -0.9004 0.3144 0.3008
vn -0.9525 0.0105 0.3044
vn -0.9525 0.0101 0.3044
vn 0.9249 -0.2756 0.2620
vn 0.3680 0.8782 0.3055
vn 0.1871 0.9301 0.3160
vn 0.1873 0.9301 0.3160
vn 0.9525 0.0105 0.3044
vn 0.9004 0.3144 0.3008
vn 0.9525 0.0101 0.3044
vn -0.1871 0.9301 0.3160
vn -0.3680 0.8782 0.3055
vn -0.1873 0.9301 0.3160
vn -0.1374 -0.9585 0.2499
vn -0.9138 -0.2953 0.2789
vn 0.1374 -0.9585 0.2499
vn -0.3674 0.0186 0.9299
vn -0.1855 -0.2881 0.9395
vn -0.0063 0.0014 1.0000
vn -0.7987 -0.2998 0.5218
vn -0.2032 0.3268 0.9230
vn -0.9249 -0.2756 0.2620
vn 0.0000 -0.9529 0.3034
vn 0.1855 -0.9363 0.2981
vn -0.1855 -0.9363 0.2981
vn 0.9138 -0.2953 0.2789
vn 0.7986 -0.2998 0.5219
vn 0.1844 -0.2887 0.9395
vn 0.3662 0.0183 0.9303
vn 0.0056 0.0014 1.0000
vn 0.1861 -0.3220 0.9283
vn 0.2019 0.3274 0.9231
vn 0.3547 -0.0172 0.9348
vn -0.1589 0.2994 0.9408
vn 0.1577 0.2997 0.9409
vn -0.3558 -0.0173 0.9344
vn 0.0005 0.7543 0.6565
vn -0.1874 -0.3216 0.9281
vn 0.0899 0.4903 0.8669
vn -0.0897 0.4906 0.8668
vn -0.1100 0.4889 0.8654
vn 0.1095 0.4886 0.8656
vn -0.1151 -0.7839 0.6101
vn 0.7495 -0.2400 0.6169
vn 0.7078 0.0528 0.7044
vn 0.7317 -0.0581 0.6791
vn 0.3644 0.4050 0.8386
vn 0.4920 0.3340 0.8040
vn -0.3649 0.4064 0.8377
vn -0.7116 0.0539 0.7005
vn -0.7364 -0.0596 0.6739
vn -0.4948 0.3346 0.8020
vn -0.7543 -0.2416 0.6105
vn 0.1151 -0.7841 0.6099
vn -0.3888 -0.3952 0.8322
vn 0.0000 -0.6787 0.7344
vn -0.3257 -0.4740 0.8181
vn 0.3888 -0.3952 0.8322
vn 0.3257 -0.4740 0.8181
vn 0.5352 -0.1686 0.8278
vn -0.5352 -0.1686 0.8278
usemtl HalloweenBits
s 1
f 5/1/1 14/2/1 72/3/1 53/4/1
f 4/5/2 18/6/2 80/7/2 43/8/2
f 9/9/2 2/10/2 46/11/2 65/12/2
f 44/13/3 79/14/4 82/15/4 49/16/3
f 8/17/5 6/18/6 38/19/7 37/20/8
f 51/21/9 58/22/9 62/23/10 59/24/10
f 8/25/1 7/26/1 52/27/1 60/28/1
f 6/29/1 8/25/1 60/28/1 64/30/1
f 67/31/11 74/32/11 78/33/12 75/34/12
f 20/35/2 19/36/2 68/37/2 76/38/2
f 18/6/2 20/35/2 76/38/2 80/7/2
f 13/39/13 15/40/14 41/41/15 42/42/16
f 45/43/17 44/44/17 49/45/17 48/46/17
f 1/47/1 6/29/1 64/30/1 47/48/1
f 54/49/18 55/50/18 58/22/9 51/21/9
f 17/51/2 10/52/2 56/53/2 69/54/2
f 70/55/19 55/50/18 54/49/18 71/56/19
f 59/24/10 62/23/10 66/57/20 63/58/20
f 11/59/2 9/9/2 65/12/2 61/60/2
f 19/36/2 17/51/2 69/54/2 68/37/2
f 70/55/19 71/56/19 74/32/11 67/31/11
f 16/61/1 15/62/1 77/63/1 73/64/1
f 14/2/1 16/61/1 73/64/1 72/3/1
f 75/34/12 78/33/12 82/15/4 79/14/4
f 15/62/1 13/65/1 81/66/1 77/63/1
f 7/26/1 5/1/1 53/4/1 52/27/1
f 10/52/2 12/67/2 57/68/2 56/53/2
f 13/65/1 3/69/1 50/70/1 81/66/1
f 3/69/1 1/47/1 47/48/1 50/70/1
f 12/67/2 11/59/2 61/60/2 57/68/2
f 48/71/21 63/58/20 66/57/20 45/72/21
f 3/73/22 13/39/13 42/42/16 24/74/22
f 9/75/23 11/76/24 29/77/25 30/78/26
f 4/79/27 2/80/27 22/81/27 21/82/27
f 14/83/28 5/84/29 36/85/30 39/86/31
f 17/87/32 19/88/33 31/89/34 32/90/35
f 1/91/36 3/92/36 24/93/36 23/94/36
f 6/18/6 1/95/37 23/96/37 38/19/7
f 16/97/38 14/83/28 39/86/31 40/98/39
f 5/84/29 7/99/40 35/100/41 36/85/30
f 2/101/42 9/75/23 30/78/26 22/102/42
f 19/88/33 20/103/43 33/104/44 31/89/34
f 12/105/45 10/106/46 27/107/47 28/108/48
f 10/106/46 17/87/32 32/90/35 27/107/47
f 15/40/14 16/97/38 40/98/39 41/41/15
f 7/99/40 8/17/5 37/20/8 35/100/41
f 18/109/49 4/110/50 21/111/50 34/112/51
f 20/103/43 18/109/49 34/112/51 33/104/44
f 11/76/24 12/105/45 28/108/48 29/77/25
f 24/113/1 42/114/1 38/115/1 23/116/1
f 22/117/2 30/118/2 34/119/2 21/120/2
f 26/121/2 28/122/2 27/123/2
f 26/121/2 29/124/2 28/122/2
f 26/121/2 30/118/2 29/124/2
f 26/121/2 32/125/2 31/126/2
f 26/121/2 31/126/2 33/127/2
f 26/121/2 33/127/2 34/119/2
f 26/121/2 27/123/2 32/125/2
f 26/121/2 34/119/2 30/118/2
f 25/128/1 36/129/1 35/130/1
f 25/128/1 35/130/1 37/131/1
f 25/128/1 37/131/1 38/115/1
f 25/128/1 40/132/1 39/133/1
f 25/128/1 41/134/1 40/132/1
f 25/128/1 42/114/1 41/134/1
f 25/128/1 39/133/1 36/129/1
f 25/128/1 38/115/1 42/114/1
f 44/135/52 45/136/52 46/137/52 43/138/52
f 48/139/53 49/140/53 50/141/53 47/142/53
f 52/143/54 53/144/55 54/145/55 51/146/54
f 56/147/56 57/148/57 58/149/57 55/150/56
f 60/151/58 52/143/54 51/146/54 59/152/58
f 57/148/57 61/153/59 62/154/59 58/149/57
f 64/155/60 60/151/58 59/152/58 63/156/60
f 61/153/59 65/157/61 66/158/61 62/154/59
f 68/159/62 69/160/63 70/161/63 67/162/62
f 72/163/64 73/164/65 74/165/65 71/166/64
f 76/167/66 68/159/62 67/162/62 75/168/66
f 73/164/65 77/169/67 78/170/67 74/165/65
f 80/171/68 76/167/66 75/168/66 79/172/68
f 77/169/67 81/173/69 82/174/69 78/170/67
f 49/175/37 82/174/69 81/173/69 50/176/37
f 71/166/64 54/145/55 53/144/55 72/163/64
f 63/156/60 48/177/22 47/178/22 64/155/60
f 65/157/61 46/179/50 45/180/50 66/158/61
f 69/160/63 56/147/56 55/150/56 70/161/63
f 79/172/68 44/181/42 43/182/42 80/171/68
f 2/10/2 4/5/2 43/8/2 46/11/2
f 83/183/70 84/184/70 86/185/70 85/186/70
f 89/187/71 90/188/71 88/189/71 87/190/71
f 87/191/1 88/192/1 84/193/1 83/194/1
f 85/195/72 89/196/72 87/197/72 83/198/72
f 90/199/73 86/200/73 84/201/73 88/202/73
f 106/203/1 107/204/1 104/205/1 105/206/1
f 98/207/74 91/208/75 137/209/76 136/210/74
f 102/211/77 95/212/77 128/213/77 147/214/77
f 100/215/78 99/216/79 124/217/80 134/218/78
f 94/219/81 100/220/82 134/221/82 131/222/83
f 97/223/84 98/224/85 136/225/85 125/226/86
f 95/227/87 96/228/87 129/229/87 128/230/87
f 107/204/1 118/231/1 142/232/1
f 91/208/75 93/233/88 139/234/88 137/209/76
f 93/235/89 92/236/89 141/237/89 139/238/89
f 106/239/90 115/240/91 122/241/92
f 108/242/93 105/243/93 120/244/93
f 115/245/1 106/203/1 105/206/1
f 109/246/1 110/247/1 105/206/1 108/248/1
f 107/249/94 106/239/90 122/241/92
f 119/250/1 142/232/1 143/251/1
f 119/250/1 108/248/1 104/205/1
f 127/252/1 119/250/1 148/253/1
f 119/250/1 104/205/1 107/204/1 142/232/1
f 127/252/1 109/246/1 108/248/1 119/250/1
f 92/254/95 101/255/95 144/256/95 141/257/95
f 112/258/1 109/246/1 127/252/1
f 103/259/96 102/260/97 147/261/97 145/262/96
f 101/263/98 103/259/96 145/262/96 144/264/98
f 111/265/1 114/266/1 133/267/1 123/268/1
f 114/266/1 113/269/1 132/270/1 133/267/1
f 126/271/1 115/245/1 111/265/1 123/268/1
f 117/272/1 116/273/1 135/274/1 138/275/1
f 146/276/1 119/250/1 143/251/1
f 116/273/1 115/245/1 126/271/1 135/274/1
f 119/250/1 146/276/1 148/253/1
f 118/231/1 117/272/1 138/275/1 140/277/1
f 96/278/99 94/219/81 131/222/83 129/279/99
f 130/280/1 112/258/1 127/252/1
f 118/231/1 140/277/1 142/232/1
f 113/269/1 112/258/1 130/280/1 132/270/1
f 105/243/100 104/281/100 120/244/100
f 111/282/101 110/283/102 121/284/103
f 115/240/91 116/285/104 122/241/92
f 110/283/102 109/286/105 121/284/103
f 116/285/104 117/287/106 122/241/92
f 109/286/105 112/288/107 121/284/103
f 117/287/106 118/289/108 122/241/92
f 112/288/107 113/290/109 121/284/103
f 104/281/110 108/242/110 120/244/110
f 118/289/108 107/249/94 122/241/92
f 113/290/109 114/291/111 121/284/103
f 114/291/111 111/282/101 121/284/103
f 124/292/112 125/293/113 126/271/114 123/268/115
f 128/294/116 129/295/116 130/296/116 127/297/116
f 129/298/117 131/299/118 132/300/119 130/301/117
f 134/302/120 124/292/112 123/268/115 133/267/121
f 131/299/118 134/218/120 133/303/121 132/300/119
f 136/225/122 137/304/123 138/305/124 135/306/125
f 125/293/113 136/307/122 135/274/125 126/271/114
f 137/304/123 139/308/126 140/309/126 138/305/124
f 139/310/127 141/311/127 142/312/127 140/313/127
f 144/314/128 145/315/129 146/316/129 143/317/130
f 145/315/129 147/318/131 148/319/132 146/316/129
f 147/318/131 128/320/133 127/321/133 148/319/132
f 141/322/134 144/314/128 143/317/130 142/323/134
f 99/216/79 97/223/84 125/226/86 124/217/80
f 111/265/1 115/245/1 105/206/1
f 110/247/1 111/265/1 105/206/1
