# Blender v3.4.1 OBJ File: 'Halloween_Bits_Export.blend'
# www.blender.org
mtllib plaque.mtl
o plaque_Cube.116
v -1.000000 0.000000 1.000000
v -1.000000 0.000000 -1.000000
v 1.000000 0.000000 1.000000
v 1.000000 0.000000 -1.000000
v -0.900000 0.200000 0.900000
v -1.000000 0.150000 1.000000
v -0.900000 0.200000 -0.900000
v -1.000000 0.150000 -1.000000
v 0.900000 0.200000 0.900000
v 1.000000 0.150000 1.000000
v 0.900000 0.200000 -0.900000
v 1.000000 0.150000 -1.000000
v -0.100000 0.150000 1.000000
v 0.100000 0.150000 1.000000
v 0.000000 0.000000 0.900000
v 0.000000 0.200000 0.900000
v 0.100000 0.150000 -1.000000
v 0.300000 0.150000 -1.000000
v 0.200000 0.000000 -0.900000
v 0.200000 0.200000 -0.900000
v 0.100000 0.000000 1.000000
v -0.100000 0.000000 1.000000
v 0.100000 0.000000 -1.000000
v 0.300000 0.000000 -1.000000
v -0.600000 0.200000 -0.600000
v 0.600000 0.200000 -0.600000
v -0.600000 0.200000 0.600000
v 0.600000 0.200000 0.600000
v -0.550000 0.400000 -0.550000
v -0.600000 0.350000 -0.600000
v 0.550000 0.400000 -0.550000
v 0.600000 0.350000 -0.600000
v -0.550000 0.400000 0.550000
v -0.600000 0.350000 0.600000
v 0.550000 0.400000 0.550000
v 0.600000 0.350000 0.600000
v -0.600000 0.350000 -0.050000
v -0.600000 0.350000 0.050000
v -0.550000 0.200000 -0.000000
v -0.550000 0.400000 -0.000000
v 0.600000 0.350000 0.050000
v 0.600000 0.350000 0.150000
v 0.550000 0.200000 0.100000
v 0.550000 0.400000 0.100000
v -0.600000 0.200000 0.050000
v -0.600000 0.200000 -0.050000
v 0.600000 0.200000 0.050000
v 0.600000 0.200000 0.150000
vt 0.455890 0.852991
vt 0.428571 0.852991
vt 0.428571 0.852992
vt 0.455890 0.852992
vt 0.461796 0.781340
vt 0.461796 0.806937
vt 0.461796 0.806937
vt 0.461796 0.781340
vt 0.395346 0.781340
vt 0.395346 0.806937
vt 0.395346 0.806937
vt 0.395346 0.781340
vt 0.428571 0.840484
vt 0.455890 0.840484
vt 0.461796 0.831952
vt 0.434477 0.831952
vt 0.401252 0.827977
vt 0.401252 0.827977
vt 0.395346 0.819445
vt 0.395346 0.819445
vt 0.401252 0.840484
vt 0.422665 0.831952
vt 0.395346 0.831952
vt 0.455890 0.827977
vt 0.455890 0.827977
vt 0.461796 0.819445
vt 0.461796 0.819445
vt 0.434477 0.793847
vt 0.434477 0.819445
vt 0.461796 0.793847
vt 0.461796 0.793847
vt 0.434477 0.819445
vt 0.434477 0.793847
vt 0.401252 0.852991
vt 0.401252 0.852992
vt 0.434477 0.768833
vt 0.428571 0.768833
vt 0.461796 0.768833
vt 0.428571 0.768833
vt 0.395346 0.768833
vt 0.395346 0.768833
vt 0.395346 0.793847
vt 0.422665 0.819445
vt 0.422665 0.793847
vt 0.428571 0.840484
vt 0.401252 0.840484
vt 0.395346 0.831952
vt 0.422665 0.831952
vt 0.455890 0.840484
vt 0.434477 0.831952
vt 0.461796 0.831952
vt 0.434477 0.768833
vt 0.461796 0.768833
vt 0.434477 0.806937
vt 0.434477 0.781340
vt 0.428571 0.781340
vt 0.422665 0.768833
vt 0.422665 0.794430
vt 0.428571 0.815470
vt 0.428571 0.802963
vt 0.428571 0.815470
vt 0.422665 0.806937
vt 0.428571 0.781340
vt 0.428571 0.802963
vt 0.434477 0.794430
vt 0.422665 0.781340
vt 0.422665 0.793847
vt 0.422665 0.819445
vt 0.395346 0.793847
vt 0.422665 0.768833
vt 0.455890 0.884241
vt 0.428571 0.884241
vt 0.428571 0.884242
vt 0.455890 0.884242
vt 0.461796 0.812590
vt 0.461796 0.838187
vt 0.461796 0.838187
vt 0.461796 0.812590
vt 0.395346 0.812590
vt 0.395346 0.838187
vt 0.395346 0.838187
vt 0.395346 0.812590
vt 0.428571 0.871734
vt 0.455890 0.871734
vt 0.461796 0.863202
vt 0.434477 0.863202
vt 0.401252 0.859227
vt 0.401252 0.859227
vt 0.395346 0.850695
vt 0.395346 0.850695
vt 0.401252 0.871734
vt 0.422665 0.863202
vt 0.395346 0.863202
vt 0.455890 0.859227
vt 0.455890 0.859227
vt 0.461796 0.850695
vt 0.461796 0.850695
vt 0.434477 0.825097
vt 0.434477 0.850695
vt 0.461796 0.825097
vt 0.461796 0.825097
vt 0.434477 0.850695
vt 0.434477 0.825097
vt 0.401252 0.884241
vt 0.401252 0.884242
vt 0.434477 0.800083
vt 0.428571 0.800083
vt 0.461796 0.800083
vt 0.428571 0.800083
vt 0.395346 0.800083
vt 0.395346 0.800083
vt 0.395346 0.825097
vt 0.422665 0.850695
vt 0.422665 0.825097
vt 0.428571 0.871734
vt 0.401252 0.871734
vt 0.395346 0.863202
vt 0.422665 0.863202
vt 0.455890 0.871734
vt 0.434477 0.863202
vt 0.461796 0.863202
vt 0.434477 0.800083
vt 0.461796 0.800083
vt 0.434477 0.838187
vt 0.434477 0.812590
vt 0.428571 0.812590
vt 0.422665 0.800083
vt 0.422665 0.825680
vt 0.428571 0.846720
vt 0.428571 0.834213
vt 0.428571 0.846720
vt 0.422665 0.838187
vt 0.428571 0.812590
vt 0.428571 0.834213
vt 0.434477 0.825680
vt 0.422665 0.812590
vt 0.422665 0.825097
vt 0.422665 0.850695
vt 0.395346 0.825097
vt 0.422665 0.800083
vn 0.0000 1.0000 0.0000
vn 1.0000 0.0000 0.0000
vn -1.0000 0.0000 0.0000
vn 0.0000 0.8944 -0.4472
vn -0.4472 0.8944 0.0000
vn 0.4472 0.8944 0.0000
vn 0.0000 0.0000 -1.0000
vn 0.0000 0.0000 1.0000
vn -0.4197 0.0000 0.9077
vn -0.3827 0.0000 0.9239
vn 0.0000 -1.0000 0.0000
vn 0.0000 0.8944 0.4472
vn -0.7071 0.0000 -0.7071
vn 0.7071 0.0000 -0.7071
vn 0.7071 0.0000 0.7071
vn 0.4197 0.0000 0.9077
vn -0.7071 0.0000 0.7071
vn 0.3827 0.0000 0.9239
vn 0.7071 0.7071 0.0000
vn 0.0000 0.7071 -0.7071
vn 0.0000 0.7071 0.7071
vn 0.9239 0.0000 -0.3827
vn 0.8959 0.0000 -0.4444
vn -0.8959 0.0000 -0.4444
vn -0.9239 0.0000 -0.3827
vn -0.7071 0.7071 -0.0000
vn -0.8959 0.0000 0.4444
vn -0.9239 0.0000 0.3827
usemtl HalloweenBits
s 1
f 11/1/1 20/2/1 16/3/1 9/4/1
f 4/5/2 12/6/2 10/7/2 3/8/2
f 1/9/3 6/10/3 8/11/3 2/12/3
f 20/13/4 11/14/4 12/15/4 18/16/4
f 5/17/5 7/18/5 8/19/5 6/20/5
f 7/21/4 20/13/4 17/22/4 8/23/4
f 11/24/6 9/25/6 10/26/6 12/27/6
f 24/28/7 18/29/7 12/27/7 4/30/7
f 3/31/8 10/26/8 14/32/9 21/33/10
f 20/2/1 7/34/1 5/35/1 16/3/1
f 21/36/11 15/37/11 3/38/11
f 19/39/11 15/37/11 1/40/11 2/41/11
f 2/42/7 8/19/7 17/43/7 23/44/7
f 16/45/12 5/46/12 6/47/12 13/48/12
f 9/49/12 16/45/12 14/50/12 10/51/12
f 19/39/11 24/52/11 4/53/11
f 18/54/13 24/55/13 19/56/13
f 19/39/14 23/57/14 17/58/14
f 20/59/13 18/54/13 19/56/13
f 20/60/14 19/39/14 17/58/14
f 16/61/15 13/62/16 15/63/15
f 16/64/17 15/37/17 14/65/9
f 13/62/16 22/66/18 15/63/15
f 15/37/17 21/36/10 14/65/9
f 22/67/18 13/68/16 6/20/8 1/69/8
f 23/57/11 19/39/11 2/41/11
f 15/37/11 22/70/11 1/40/11
f 15/37/11 19/39/11 4/53/11 3/38/11
f 35/71/1 44/72/1 40/73/1 33/74/1
f 28/75/8 36/76/8 34/77/8 27/78/8
f 25/79/7 30/80/7 32/81/7 26/82/7
f 44/83/19 35/84/19 36/85/19 42/86/19
f 29/87/20 31/88/20 32/89/20 30/90/20
f 31/91/19 44/83/19 41/92/19 32/93/19
f 35/94/21 33/95/21 34/96/21 36/97/21
f 48/98/22 42/99/23 36/97/2 28/100/2
f 27/101/3 34/96/3 38/102/24 45/103/25
f 44/72/1 31/104/1 29/105/1 40/73/1
f 45/106/11 39/107/11 27/108/11
f 43/109/11 39/107/11 25/110/11 26/111/11
f 26/112/2 32/89/2 41/113/2 47/114/2
f 40/115/26 29/116/26 30/117/26 37/118/26
f 33/119/26 40/115/26 38/120/26 34/121/26
f 43/109/11 48/122/11 28/123/11
f 42/124/23 48/125/22 43/126/14
f 43/109/15 47/127/15 41/128/15
f 44/129/14 42/124/23 43/126/14
f 44/130/15 43/109/15 41/128/15
f 40/131/17 37/132/27 39/133/17
f 40/134/13 39/107/13 38/135/24
f 37/132/27 46/136/28 39/133/17
f 39/107/13 45/106/25 38/135/24
f 46/137/28 37/138/27 30/90/3 25/139/3
f 47/127/11 43/109/11 26/111/11
f 39/107/11 46/140/11 25/110/11
f 39/107/11 43/109/11 28/123/11 27/108/11
