# Blender v3.4.1 OBJ File: 'Halloween_Bits_Export.blend'
# www.blender.org
mtllib post.mtl
o post_Cube.001
v -0.150000 0.000000 0.150000
v -0.150000 0.000000 -0.150000
v 0.150000 0.000000 0.150000
v 0.150000 0.000000 -0.150000
v 0.115472 1.650000 -0.153988
v 0.115472 1.650000 0.047624
v -0.115472 1.650000 0.047624
v -0.150000 3.034817 0.677767
v 0.150000 3.034817 0.677767
v -0.150000 3.300000 0.677767
v 0.150000 3.185569 0.677767
v 0.150000 3.300000 0.563335
v 0.035569 3.300000 0.677767
v 0.150000 3.300000 0.792198
v -0.102315 3.300000 -0.170575
v -0.149003 3.252333 -0.216403
v 0.149003 3.252333 -0.216403
v 0.102315 3.300000 -0.170575
v 0.102315 3.300000 -0.042151
v 0.149003 3.252333 0.006750
v -0.102315 3.300000 -0.042151
v -0.149003 3.252333 0.006750
v -0.102315 3.117318 1.350000
v -0.150000 3.067164 1.302332
v -0.102315 3.020579 0.006968
v -0.150000 2.977880 0.056904
v 0.102315 3.117318 1.350000
v 0.150000 3.067164 1.302332
v 0.102315 3.020579 0.006968
v 0.150000 2.977880 0.056904
v -0.102315 3.224937 -0.003579
v -0.150000 3.275015 0.041570
v 0.102315 3.224937 -0.003579
v 0.150000 3.275015 0.041570
v 0.150000 3.300000 1.302331
v 0.102315 3.252315 1.350000
v -0.102315 3.252315 1.350000
v -0.150000 3.300000 1.302331
v -0.100000 3.051073 0.811211
v -0.074222 3.051073 0.850000
v -0.074222 2.300000 0.005534
v -0.100000 2.334499 0.005534
v 0.074222 3.051073 0.850000
v 0.100000 3.051073 0.811211
v 0.100000 2.334499 0.005534
v 0.074222 2.300000 0.005534
v -0.100000 2.566525 0.005534
v -0.074222 2.600000 0.005534
v 0.074222 2.600000 0.005534
v 0.100000 2.566525 0.005534
v 0.100000 3.051073 0.590407
v 0.074222 3.051073 0.550000
v -0.074222 3.051073 0.550000
v -0.100000 3.051073 0.590407
v 0.215450 1.581346 -0.153988
v 0.215450 1.581346 0.047624
v -0.208239 3.300000 0.646821
v -0.115472 1.650000 -0.061317
v -0.117409 1.742580 -0.157594
v -0.022801 1.650000 -0.153988
v -0.117411 1.557350 -0.153764
vt 0.928935 0.593750
vt 0.928935 0.650663
vt 0.912340 0.650663
vt 0.912340 0.593750
vt 0.912340 0.657326
vt 0.912340 0.667982
vt 0.912340 0.667982
vt 0.912340 0.657326
vt 0.928935 0.609375
vt 0.928935 0.666288
vt 0.928935 0.666288
vt 0.928935 0.609375
vt 0.912340 0.597038
vt 0.912340 0.650663
vt 0.928935 0.650663
vt 0.928935 0.593750
vt 0.912340 0.621709
vt 0.912340 0.640625
vt 0.918999 0.625000
vt 0.928935 0.699232
vt 0.912340 0.699232
vt 0.922605 0.699232
vt 0.914978 0.659020
vt 0.914978 0.666288
vt 0.926297 0.666288
vt 0.926297 0.659020
vt 0.928935 0.657326
vt 0.928935 0.657326
vt 0.928935 0.667982
vt 0.928935 0.667982
vt 0.912340 0.626076
vt 0.928935 0.626076
vt 0.928935 0.626076
vt 0.912340 0.626076
vt 0.928935 0.667982
vt 0.928935 0.663383
vt 0.926297 0.643906
vt 0.926297 0.650151
vt 0.914978 0.650151
vt 0.914978 0.643906
vt 0.924743 0.596243
vt 0.916532 0.596243
vt 0.916532 0.610451
vt 0.924743 0.610451
vt 0.915106 0.657326
vt 0.915106 0.657326
vt 0.915106 0.641929
vt 0.915106 0.633688
vt 0.926169 0.633688
vt 0.926169 0.641929
vt 0.926169 0.657326
vt 0.926169 0.657326
vt 0.912340 0.609375
vt 0.912340 0.666288
vt 0.912340 0.666288
vt 0.912340 0.612663
vt 0.912340 0.590459
vt 0.918999 0.593750
vt 0.928935 0.535143
vt 0.912340 0.535143
vt 0.928935 0.535143
vt 0.928935 0.593750
vt 0.912340 0.699232
vt 0.912340 0.699232
vt 0.944226 0.662976
vt 0.944226 0.649525
vt 0.930774 0.662976
vt 0.928935 0.626076
vt 0.912340 0.626076
vt 0.944226 0.696400
vt 0.944226 0.709851
vt 0.930774 0.709851
vt 0.928935 0.699232
vt 0.928935 0.699232
vt 0.912340 0.699232
vt 0.928935 0.699232
vt 0.928935 0.657326
vt 0.928935 0.667981
vt 0.928935 0.699232
vt 0.928935 0.699232
vt 0.928935 0.697538
vt 0.928935 0.697538
vt 0.926297 0.683607
vt 0.914978 0.683607
vt 0.912340 0.681913
vt 0.928935 0.681913
vt 0.912340 0.699232
vt 0.912340 0.699232
vt 0.912340 0.697538
vt 0.912340 0.697538
vt 0.914978 0.683607
vt 0.926297 0.683607
vt 0.928935 0.681913
vt 0.912340 0.681913
vt 0.914978 0.697538
vt 0.914978 0.690270
vt 0.912340 0.688576
vt 0.928935 0.688576
vt 0.926297 0.690270
vt 0.926297 0.697538
vt 0.926297 0.665776
vt 0.926297 0.659531
vt 0.914978 0.659531
vt 0.914978 0.665776
vt 0.928935 0.714857
vt 0.912340 0.714857
vt 0.914978 0.714857
vt 0.926297 0.714857
vt 0.912340 0.730482
vt 0.928935 0.730482
vt 0.926297 0.730482
vt 0.914978 0.730482
vt 0.926297 0.699232
vt 0.914978 0.699232
vt 0.914978 0.699231
vt 0.926297 0.699232
vt 0.915106 0.648087
vt 0.915106 0.672951
vt 0.915106 0.672951
vt 0.915106 0.649313
vt 0.926169 0.672951
vt 0.926169 0.648087
vt 0.926169 0.649313
vt 0.926169 0.672951
vt 0.926169 0.658743
vt 0.926169 0.672951
vt 0.926169 0.672951
vt 0.926169 0.657554
vt 0.915106 0.672951
vt 0.915106 0.658743
vt 0.915106 0.657554
vt 0.915106 0.672951
vt 0.916532 0.585587
vt 0.924743 0.585587
vt 0.924743 0.610451
vt 0.916532 0.610451
vt 0.928935 0.609375
vt 0.928935 0.593750
vt 0.928935 0.625000
vt 0.928935 0.625000
vt 0.928935 0.625000
vt 0.928935 0.625000
vt 0.912340 0.667982
vt 0.912340 0.667982
vt 0.912340 0.657326
vt 0.899938 0.677168
vt 0.899938 0.687824
vt 0.899938 0.687824
vt 0.912340 0.578125
vt 0.912340 0.581413
vt 0.918999 0.562500
vt 0.912340 0.609375
vt 0.912340 0.606084
vt 0.912340 0.550768
vt 0.912340 0.550768
vt 0.912340 0.535143
vn 0.0099 0.0481 0.9988
vn 0.0000 0.3134 0.9496
vn 0.0000 0.0437 0.9990
vn -1.0000 0.0000 0.0000
vn 0.9998 -0.0209 0.0000
vn 0.0000 -0.0389 -0.9992
vn -0.0004 -0.0165 -0.9999
vn -0.5737 0.5845 -0.5737
vn -0.0068 0.9994 -0.0354
vn 0.0030 0.9997 -0.0224
vn 0.0000 1.0000 0.0000
vn -0.4422 -0.0462 -0.8957
vn -0.3001 0.2531 -0.9197
vn 0.3001 0.2531 -0.9197
vn 0.4422 -0.0462 -0.8957
vn 1.0000 0.0000 0.0000
vn 0.0000 -0.9958 0.0913
vn 0.0000 -0.9974 0.0715
vn 0.3015 -0.2890 0.9086
vn 0.3001 0.3001 0.9055
vn -0.3001 0.3001 0.9055
vn -0.3015 -0.2890 0.9086
vn 0.4371 0.6926 -0.5738
vn -0.4371 0.6926 -0.5738
vn -0.4516 0.6870 -0.5692
vn 0.4516 0.6870 -0.5692
vn -1.0000 0.0006 0.0000
vn -0.9998 -0.0209 0.0000
vn 0.0000 -0.0024 -1.0000
vn 0.0000 -0.0207 -0.9998
vn 0.0017 0.0620 0.9981
vn 0.0000 0.0619 0.9981
vn -0.0001 -0.0024 -1.0000
vn -0.0017 -0.0025 -1.0000
vn -0.0066 0.9991 -0.0429
vn 0.0208 0.9990 -0.0392
vn 0.5773 0.5774 -0.5774
vn 0.0000 -0.9438 0.3304
vn 0.5774 0.5774 0.5774
vn -0.0082 0.9990 -0.0431
vn 0.7144 0.6997 0.0000
vn 0.0000 0.8998 0.4362
vn -0.7144 0.6997 0.0000
vn 0.0000 0.6931 -0.7209
vn -0.9405 -0.0550 -0.3354
vn -0.9378 -0.0179 -0.3467
vn 0.0000 -0.7600 -0.6499
vn 0.7070 -0.0365 -0.7063
vn 0.7070 0.0000 0.7072
vn -0.7070 0.0000 0.7072
vn 0.0000 0.7070 0.7072
vn 0.0000 0.6696 -0.7427
vn -0.2982 -0.7132 0.6343
vn -0.2769 -0.7180 0.6386
vn -0.7071 -0.5284 0.4699
vn 0.2769 -0.7180 0.6386
vn 0.2982 -0.7132 0.6343
vn 0.7071 -0.5284 0.4699
vn 0.7071 0.5445 -0.4511
vn -0.7071 0.5445 -0.4511
vn 0.9991 -0.0414 0.0000
vn 0.5661 0.8244 0.0000
vn 0.0431 0.0628 0.9971
vn -0.9878 -0.1553 -0.0127
vn -0.9770 -0.2123 0.0195
vn -0.4692 0.0000 0.8831
vn -0.5656 -0.6001 -0.5656
vn -1.0000 -0.0001 0.0000
vn -0.9998 0.0209 -0.0000
usemtl HalloweenBits
s 1
f 6/1/1 20/2/2 22/3/2 7/4/3
f 24/5/4 38/6/4 10/7/4 8/8/4
f 5/9/5 17/10/5 20/11/5 6/12/5
f 59/13/6 16/14/6 17/15/6 5/16/7
f 61/17/8 58/18/8 60/19/8
f 12/20/9 10/21/10 13/22/11
f 25/23/12 31/24/13 33/25/14 29/26/15
f 28/27/16 9/28/16 14/29/16 35/30/16
f 26/31/17 30/32/17 9/33/18 8/34/18
f 9/28/16 12/35/16 11/36/16
f 27/37/19 36/38/20 37/39/21 23/40/22
f 49/41/23 48/42/24 53/43/25 52/44/26
f 39/45/4 54/46/4 47/47/4 42/48/4
f 45/49/16 50/50/16 51/51/16 44/52/16
f 7/53/27 22/54/28 16/55/28 59/56/28
f 61/57/29 60/58/30 5/16/7
f 3/59/31 6/1/1 7/4/3 1/60/32
f 4/61/33 5/16/7 55/62/34
f 10/21/10 32/63/35 57/64/36
f 14/65/37 11/66/37 13/67/37
f 8/34/18 9/33/18 28/68/38 24/69/38
f 9/28/16 11/36/16 14/29/16
f 11/70/39 12/71/39 13/72/39
f 14/73/11 13/22/11 10/21/10
f 35/74/11 14/73/11 10/21/10 38/75/11
f 34/76/40 32/63/35 10/21/10 12/20/9
f 30/77/16 34/78/16 12/35/16 9/28/16
f 18/79/41 19/80/41 20/81/41 17/82/41
f 19/83/42 21/84/42 22/85/2 20/86/2
f 21/87/43 15/88/43 16/89/43 22/90/43
f 15/91/44 18/92/44 17/93/44 16/94/44
f 31/95/13 25/96/12 26/97/45 32/63/46
f 30/98/47 26/97/47 25/96/47 29/99/47
f 34/76/48 30/98/48 29/99/15 33/100/14
f 36/101/20 27/102/19 28/27/49 35/30/49
f 24/5/38 28/27/38 27/102/19 23/103/22
f 23/103/22 37/104/21 38/6/50 24/5/50
f 35/105/51 38/106/51 37/107/21 36/108/20
f 32/109/52 34/110/52 33/111/14 31/112/13
f 18/113/11 15/114/11 21/115/42 19/116/42
f 41/117/53 40/118/54 39/119/55 42/120/55
f 43/121/56 46/122/57 45/123/58 44/124/58
f 49/125/23 52/126/26 51/127/59 50/128/59
f 53/129/25 48/130/24 47/131/60 54/132/60
f 41/133/53 46/134/57 43/135/56 40/136/54
f 4/61/61 55/137/61 56/138/61 3/59/61
f 5/139/62 6/140/62 56/141/62 55/142/62
f 6/1/1 3/59/31 56/138/63
f 57/143/64 32/144/46 26/145/45
f 8/8/65 57/143/64 26/145/45
f 8/146/66 10/147/66 57/148/66
f 58/149/67 59/150/67 60/151/67
f 7/53/27 58/152/68 61/153/69
f 60/58/30 59/13/6 5/16/7
f 58/152/68 7/53/27 59/56/28
f 1/154/69 7/53/27 61/153/69 2/155/69
f 2/156/29 61/57/29 5/16/7 4/61/33
