# Blender v3.4.1 OBJ File: 'Halloween_Bits_Export.blend'
# www.blender.org
mtllib pumpkin_orange.mtl
o pumpkin_orange_Cube.080
v 0.000000 0.035184 0.000000
v -0.263573 0.565938 0.000000
v -0.000000 0.566110 0.263552
v -0.000000 0.149145 0.377017
v -0.377017 0.149145 0.000000
v -0.408469 0.279271 0.000000
v -0.402286 0.382757 0.000000
v -0.353392 0.493225 0.000000
v 0.000000 0.279271 0.408469
v 0.000000 0.382757 0.402286
v 0.000000 0.493225 0.353392
v -0.001723 0.508001 0.000472
v 0.000000 0.008483 0.253425
v -0.000000 0.074377 0.325285
v -0.253425 0.008483 0.000000
v -0.325285 0.074378 -0.000000
v 0.263519 0.566396 0.000000
v 0.000000 0.566236 -0.263537
v 0.000000 0.149145 -0.377017
v 0.377017 0.149145 0.000000
v 0.408469 0.279271 0.000000
v 0.402286 0.382757 0.000000
v 0.353392 0.493225 0.000000
v 0.000000 0.279271 -0.408469
v 0.000000 0.382757 -0.402286
v 0.000000 0.493225 -0.353392
v 0.000000 0.008483 -0.253425
v 0.000000 0.074377 -0.325285
v 0.253425 0.008483 0.000000
v 0.325285 0.074378 0.000000
v -0.138295 0.552398 -0.000000
v 0.000000 0.553216 -0.138252
v -0.000000 0.552865 0.138271
v 0.130718 0.551677 0.001968
v -0.000010 0.501051 0.044549
v 0.009339 0.683106 0.084390
v -0.000011 0.696617 0.075040
v -0.009361 0.683106 0.084390
v -0.044554 0.501051 0.000006
v -0.075045 0.696617 0.000006
v -0.084395 0.683106 -0.009344
v -0.084395 0.683106 0.009356
v 0.044533 0.501051 0.000006
v 0.075024 0.696617 0.000006
v 0.084374 0.683106 0.009356
v 0.084374 0.683106 -0.009344
v -0.000010 0.501051 -0.044537
v -0.000011 0.696617 -0.075028
v 0.009339 0.683106 -0.084378
v -0.009361 0.683106 -0.084378
v -0.316297 0.555550 0.101361
v -0.273745 0.546816 0.273752
v 0.273736 0.546963 0.273726
v 0.316236 0.555869 0.101314
v 0.101344 0.555706 0.316270
v -0.101343 0.555651 0.316276
v 0.133857 0.147498 0.457882
v 0.279385 0.146477 0.445456
v -0.279386 0.146477 0.445455
v -0.133856 0.147498 0.457881
v 0.445457 0.146477 0.279384
v 0.457882 0.147498 0.133857
v -0.457881 0.147498 0.133855
v -0.445455 0.146477 0.279386
v -0.500869 0.279271 0.152666
v -0.488157 0.279271 0.297611
v -0.480061 0.382757 0.294268
v -0.492924 0.382757 0.149302
v -0.415222 0.484488 0.270590
v -0.427730 0.488027 0.123424
v 0.488159 0.279271 0.297609
v 0.500870 0.279271 0.152668
v 0.492925 0.382757 0.149305
v 0.480063 0.382757 0.294266
v 0.427732 0.488027 0.123428
v 0.415225 0.484488 0.270588
v 0.152668 0.279271 0.500870
v 0.297610 0.279271 0.488158
v 0.294267 0.382757 0.480062
v 0.149304 0.382757 0.492925
v 0.270589 0.484488 0.415224
v 0.123427 0.488027 0.427731
v -0.297611 0.279271 0.488157
v -0.152666 0.279271 0.500869
v -0.149303 0.382757 0.492924
v -0.294268 0.382757 0.480061
v -0.123425 0.488027 0.427730
v -0.270590 0.484488 0.415223
v 0.245019 0.016960 0.245019
v 0.079352 0.016418 0.272832
v 0.249940 0.073324 0.375862
v 0.102747 0.073800 0.387381
v -0.079351 0.016418 0.272832
v -0.245019 0.016960 0.245019
v -0.102746 0.073800 0.387381
v -0.249941 0.073324 0.375861
v 0.272833 0.016419 0.079352
v 0.387382 0.073800 0.102748
v 0.375863 0.073324 0.249940
v -0.272831 0.016419 0.079350
v -0.375861 0.073324 0.249941
v -0.387381 0.073800 0.102746
v 0.316235 0.555881 -0.101314
v 0.273730 0.546999 -0.273724
v -0.273738 0.546858 -0.273749
v -0.316296 0.555567 -0.101362
v -0.101330 0.555739 -0.316259
v 0.101331 0.555790 -0.316254
v -0.133856 0.147498 -0.457881
v -0.279385 0.146477 -0.445456
v 0.279385 0.146477 -0.445457
v 0.133858 0.147498 -0.457882
v -0.445455 0.146477 -0.279386
v -0.457881 0.147498 -0.133856
v 0.457882 0.147498 -0.133857
v 0.445457 0.146477 -0.279384
v 0.500871 0.279271 -0.152668
v 0.488159 0.279271 -0.297609
v 0.480063 0.382757 -0.294266
v 0.492926 0.382757 -0.149305
v 0.415226 0.484488 -0.270587
v 0.427733 0.488027 -0.123428
v -0.488157 0.279271 -0.297611
v -0.500869 0.279271 -0.152667
v -0.492924 0.382757 -0.149303
v -0.480061 0.382757 -0.294268
v -0.427730 0.488027 -0.123425
v -0.415222 0.484488 -0.270590
v -0.152667 0.279271 -0.500870
v -0.297610 0.279271 -0.488158
v -0.294267 0.382757 -0.480062
v -0.149303 0.382757 -0.492924
v -0.270589 0.484488 -0.415224
v -0.123426 0.488027 -0.427731
v 0.297610 0.279271 -0.488159
v 0.152669 0.279271 -0.500870
v 0.149305 0.382757 -0.492925
v 0.294267 0.382757 -0.480063
v 0.123428 0.488027 -0.427732
v 0.270588 0.484488 -0.415225
v -0.245019 0.016960 -0.245019
v -0.079351 0.016418 -0.272832
v -0.249940 0.073324 -0.375862
v -0.102747 0.073800 -0.387381
v 0.079352 0.016418 -0.272833
v 0.245019 0.016960 -0.245019
v 0.102748 0.073800 -0.387382
v 0.249940 0.073324 -0.375862
v -0.272832 0.016419 -0.079350
v -0.387381 0.073800 -0.102746
v -0.375861 0.073324 -0.249941
v 0.272833 0.016419 -0.079352
v 0.375863 0.073324 -0.249940
v 0.387382 0.073800 -0.102748
v -0.156667 -0.003383 -0.000000
v -0.000000 -0.003383 0.156667
v 0.156667 -0.003383 0.000000
v 0.000000 -0.003383 -0.156667
vt 0.918464 0.902877
vt 0.919696 0.957195
vt 0.912169 0.957195
vt 0.908795 0.902877
vt 0.949265 0.886004
vt 0.959182 0.886004
vt 0.958760 0.902877
vt 0.949091 0.902877
vt 0.904382 0.886004
vt 0.904803 0.903195
vt 0.903485 0.862008
vt 0.903019 0.851244
vt 0.908188 0.918558
vt 0.907166 0.870964
vt 0.914514 0.968049
vt 0.913930 0.968437
vt 0.933778 0.811108
vt 0.933778 0.826587
vt 0.926812 0.845027
vt 0.928431 0.819746
vt 0.946795 0.957195
vt 0.947859 0.957195
vt 0.955386 0.957195
vt 0.918290 0.886004
vt 0.908374 0.886004
vt 0.941723 0.886004
vt 0.941547 0.903195
vt 0.933778 0.862008
vt 0.933778 0.851244
vt 0.939052 0.968060
vt 0.949250 0.957195
vt 0.953039 0.968072
vt 0.964070 0.862008
vt 0.960389 0.870964
vt 0.959367 0.918558
vt 0.962752 0.903195
vt 0.964536 0.851244
vt 0.963173 0.886004
vt 0.940744 0.845027
vt 0.905388 0.826587
vt 0.904382 0.886004
vt 0.906593 0.845027
vt 0.958272 0.811108
vt 0.962167 0.826587
vt 0.960962 0.845027
vt 0.957353 0.819746
vt 0.940201 0.918558
vt 0.933778 0.870964
vt 0.926008 0.903195
vt 0.925833 0.886004
vt 0.927354 0.918558
vt 0.948348 0.797193
vt 0.953338 0.819746
vt 0.946784 0.819746
vt 0.933778 0.968450
vt 0.928504 0.968056
vt 0.939125 0.819746
vt 0.920771 0.819746
vt 0.919238 0.844859
vt 0.910596 0.844859
vt 0.914218 0.819746
vt 0.956959 0.844859
vt 0.948317 0.844859
vt 0.918304 0.957195
vt 0.936979 0.797103
vt 0.952338 0.797103
vt 0.944709 0.797193
vt 0.922846 0.797193
vt 0.915217 0.797103
vt 0.930576 0.797103
vt 0.919208 0.797193
vt 0.910202 0.819746
vt 0.909283 0.811108
vt 0.906593 0.845027
vt 0.953039 0.968073
vt 0.946795 0.957195
vt 0.939051 0.968066
vt 0.943577 0.789957
vt 0.933778 0.789957
vt 0.933778 0.797039
vt 0.952861 0.797039
vt 0.953621 0.968471
vt 0.949091 0.902877
vt 0.947859 0.957195
vt 0.955386 0.957195
vt 0.958760 0.902877
vt 0.918290 0.886004
vt 0.908373 0.886004
vt 0.908795 0.902877
vt 0.918464 0.902877
vt 0.963173 0.886004
vt 0.962752 0.903195
vt 0.959367 0.918558
vt 0.933778 0.811108
vt 0.933778 0.826587
vt 0.940744 0.845027
vt 0.939125 0.819746
vt 0.920760 0.957195
vt 0.919696 0.957195
vt 0.912169 0.957195
vt 0.949265 0.886004
vt 0.959182 0.886004
vt 0.925833 0.886004
vt 0.926008 0.903195
vt 0.933778 0.862008
vt 0.933778 0.851244
vt 0.928504 0.968062
vt 0.918305 0.957195
vt 0.914514 0.968050
vt 0.908188 0.918558
vt 0.904803 0.903195
vt 0.926812 0.845027
vt 0.910202 0.819746
vt 0.927354 0.918558
vt 0.933778 0.870964
vt 0.941548 0.903195
vt 0.941723 0.886004
vt 0.940201 0.918558
vt 0.919208 0.797193
vt 0.914218 0.819746
vt 0.920771 0.819746
vt 0.933778 0.968459
vt 0.928431 0.819746
vt 0.946784 0.819746
vt 0.948317 0.844859
vt 0.956959 0.844859
vt 0.953338 0.819746
vt 0.910596 0.844859
vt 0.919238 0.844859
vt 0.949250 0.957195
vt 0.943621 0.956925
vt 0.933778 0.956925
vt 0.923978 0.789957
vt 0.933778 0.789957
vt 0.933778 0.797039
vt 0.914694 0.797039
vt 0.930576 0.797103
vt 0.915217 0.797103
vt 0.922846 0.797193
vt 0.944709 0.797193
vt 0.952338 0.797103
vt 0.936979 0.797103
vt 0.948348 0.797193
vt 0.957353 0.819746
vt 0.960962 0.845027
vt 0.923364 0.956925
vt 0.933778 0.956925
vt 0.933648 0.816650
vt 0.950203 0.540483
vt 0.950203 0.658236
vt 0.926743 0.658236
vt 0.926743 0.540483
vt 0.953127 0.540483
vt 0.953127 0.658236
vt 0.953127 0.658236
vt 0.953127 0.540483
vt 0.950203 0.661730
vt 0.926743 0.661730
vt 0.926743 0.661730
vt 0.950203 0.661730
vt 0.926743 0.540483
vt 0.926743 0.658236
vt 0.950203 0.658236
vt 0.950203 0.540483
vt 0.926743 0.687765
vt 0.923820 0.684271
vt 0.926743 0.684271
vt 0.926743 0.684271
vt 0.923820 0.684271
vt 0.926743 0.687765
vt 0.950203 0.684271
vt 0.953127 0.684271
vt 0.950203 0.687765
vt 0.953127 0.684271
vt 0.950203 0.684271
vt 0.950203 0.687765
vt 0.923820 0.540483
vt 0.923820 0.540483
vt 0.923820 0.658236
vt 0.923820 0.658236
vt 0.920759 0.957195
vt 0.933778 0.781868
vt 0.940480 0.781868
vt 0.927075 0.781868
vn -0.3995 0.3154 0.8608
vn -0.3035 0.7139 0.6311
vn -0.6310 0.7140 0.3034
vn -0.8608 0.3154 0.3995
vn 0.4180 -0.1210 0.9004
vn 0.9004 -0.1210 0.4180
vn 0.8608 0.3154 0.3995
vn 0.3995 0.3154 0.8608
vn -0.9735 -0.1039 -0.2038
vn -0.9403 0.2771 -0.1974
vn -0.8357 0.2222 -0.5022
vn -0.8524 -0.0800 -0.5167
vn -0.7250 0.6672 -0.1708
vn -0.7354 0.6777 0.0000
vn -0.3593 0.9323 -0.0420
vn -0.2348 0.9720 0.0000
vn 0.0000 -0.7373 0.6756
vn 0.4809 -0.3798 0.7903
vn 0.2015 -0.4565 0.8666
vn 0.1883 -0.7481 0.6363
vn 0.2401 0.9405 0.2404
vn 0.3035 0.7137 0.6312
vn 0.6313 0.7136 0.3036
vn -0.4180 -0.1210 0.9004
vn -0.9004 -0.1210 0.4180
vn -0.2038 -0.1039 0.9735
vn -0.1974 0.2771 0.9403
vn -0.5022 0.2222 0.8357
vn -0.5167 -0.0800 0.8524
vn -0.0421 0.9320 0.3600
vn 0.3602 0.9319 -0.0417
vn 0.8357 0.2222 -0.5022
vn 0.7364 0.6765 0.0000
vn 0.7255 0.6667 -0.1707
vn 0.9403 0.2771 -0.1974
vn 0.8524 -0.0800 -0.5167
vn 0.9735 -0.1039 -0.2038
vn -0.2015 -0.4565 0.8666
vn -0.4809 -0.3798 0.7903
vn -0.7903 -0.3798 0.4809
vn -0.8524 -0.0800 0.5167
vn -0.9735 -0.1039 0.2038
vn -0.8666 -0.4565 0.2015
vn 0.6756 -0.7373 -0.0000
vn 0.7902 -0.3798 -0.4809
vn 0.8666 -0.4565 -0.2015
vn 0.6363 -0.7481 -0.1883
vn -0.1708 0.6669 0.7253
vn -0.0001 0.6772 0.7358
vn 0.5167 -0.0800 0.8524
vn 0.5022 0.2222 0.8357
vn 0.1974 0.2771 0.9403
vn 0.2038 -0.1039 0.9735
vn 0.1707 0.6671 0.7251
vn 0.1969 -0.9605 0.1969
vn 0.5414 -0.8047 0.2438
vn 0.2438 -0.8047 0.5414
vn -0.0005 0.9722 0.2343
vn 0.0418 0.9322 0.3594
vn -0.1883 -0.7481 0.6363
vn -0.2438 -0.8047 0.5414
vn -0.3596 -0.5181 0.7761
vn -0.7761 -0.5181 0.3596
vn -0.5414 -0.8047 0.2438
vn 0.7761 -0.5181 0.3596
vn 0.3596 -0.5181 0.7761
vn -0.2399 0.9407 0.2397
vn -0.0234 -0.9445 0.3276
vn 0.3276 -0.9445 -0.0234
vn -0.1969 -0.9605 0.1969
vn -0.3276 -0.9445 -0.0234
vn 0.0234 -0.9445 0.3276
vn -0.6363 -0.7481 -0.1883
vn -0.6756 -0.7373 -0.0000
vn -0.8666 -0.4565 -0.2015
vn -0.7902 -0.3798 -0.4809
vn 0.3604 0.9319 0.0418
vn 0.2403 0.9404 -0.2405
vn -0.0420 0.9319 -0.3602
vn 0.0307 -0.9995 -0.0000
vn -0.0000 -0.9995 -0.0307
vn -0.0000 -0.9329 -0.3601
vn 0.3601 -0.9329 0.0000
vn 0.2350 0.9720 0.0003
vn 0.3995 0.3154 -0.8608
vn 0.3036 0.7136 -0.6313
vn 0.6314 0.7136 -0.3036
vn 0.8608 0.3154 -0.3995
vn -0.4180 -0.1210 -0.9004
vn -0.9004 -0.1210 -0.4180
vn -0.8608 0.3154 -0.3995
vn -0.3995 0.3154 -0.8608
vn 0.9735 -0.1039 0.2038
vn 0.9403 0.2771 0.1974
vn 0.8357 0.2222 0.5022
vn 0.8524 -0.0800 0.5167
vn 0.7255 0.6667 0.1708
vn 0.0000 -0.7373 -0.6756
vn -0.4809 -0.3798 -0.7903
vn -0.2015 -0.4565 -0.8666
vn -0.1883 -0.7481 -0.6363
vn -0.2400 0.9407 -0.2398
vn -0.3035 0.7138 -0.6311
vn -0.6311 0.7139 -0.3034
vn 0.4180 -0.1210 -0.9004
vn 0.9004 -0.1210 -0.4180
vn 0.2038 -0.1039 -0.9735
vn 0.1974 0.2771 -0.9403
vn 0.5022 0.2222 -0.8357
vn 0.5167 -0.0800 -0.8524
vn 0.0417 0.9321 -0.3597
vn -0.3594 0.9322 0.0421
vn -0.8357 0.2222 0.5022
vn -0.7251 0.6672 0.1708
vn -0.9403 0.2771 0.1974
vn 0.2015 -0.4565 -0.8666
vn 0.4809 -0.3798 -0.7902
vn -0.6363 -0.7481 0.1883
vn 0.1707 0.6670 -0.7253
vn -0.0001 0.6769 -0.7360
vn -0.5167 -0.0800 -0.8524
vn -0.5022 0.2222 -0.8357
vn -0.1974 0.2771 -0.9403
vn -0.2038 -0.1039 -0.9735
vn -0.1708 0.6668 -0.7254
vn -0.1969 -0.9605 -0.1969
vn -0.5414 -0.8047 -0.2438
vn -0.2438 -0.8047 -0.5414
vn -0.0004 0.9720 -0.2348
vn 0.1883 -0.7481 -0.6363
vn 0.2438 -0.8047 -0.5414
vn 0.3596 -0.5181 -0.7761
vn 0.7761 -0.5181 -0.3596
vn 0.5414 -0.8047 -0.2438
vn -0.7761 -0.5181 -0.3596
vn -0.3596 -0.5181 -0.7761
vn -0.1619 0.9868 -0.0020
vn -0.0018 0.9875 0.1577
vn -0.0307 -0.9995 -0.0000
vn -0.0000 -0.9995 0.0307
vn -0.0000 -0.9329 0.3601
vn -0.3601 -0.9329 0.0000
vn 0.0234 -0.9445 -0.3276
vn -0.3276 -0.9445 0.0234
vn 0.1969 -0.9605 -0.1969
vn 0.3276 -0.9445 0.0234
vn -0.0234 -0.9445 -0.3276
vn 0.6363 -0.7481 0.1883
vn 0.8666 -0.4565 0.2015
vn 0.7902 -0.3798 0.4809
vn 0.1574 0.9875 0.0003
vn -0.0015 0.9873 -0.1592
vn 0.2940 0.9077 0.2995
vn 0.2959 0.9072 -0.2991
vn -0.2965 0.9092 -0.2923
vn -0.3025 0.9073 0.2920
vn 0.9659 -0.2590 -0.0000
vn 0.8914 0.2359 0.3870
vn 0.3870 0.2359 0.8914
vn 0.0000 -0.2590 0.9659
vn 0.0000 -0.2590 -0.9659
vn 0.3870 0.2359 -0.8914
vn 0.8914 0.2359 -0.3870
vn -0.0000 0.8726 -0.4884
vn -0.4884 0.8726 0.0000
vn -0.0000 0.8726 0.4884
vn 0.4884 0.8726 -0.0000
vn -0.9659 -0.2590 -0.0000
vn -0.8914 0.2359 -0.3870
vn -0.3870 0.2359 -0.8914
vn -0.3870 0.2359 0.8914
vn -0.8914 0.2359 0.3870
vn -0.0000 -1.0000 -0.0000
usemtl HalloweenBits
s 1
f 86/1/1 88/2/2 69/3/3 67/4/4
f 78/5/5 71/6/6 74/7/7 79/8/8
f 65/9/9 68/10/10 7/11/11 6/12/12
f 68/10/10 70/13/13 8/14/14 7/11/11
f 51/15/15 2/16/16 8/14/14
f 14/17/17 4/18/18 60/19/19 95/20/20
f 53/21/21 81/22/22 76/23/23
f 83/24/24 86/1/1 67/4/4 66/25/25
f 76/23/23 81/22/22 79/8/8 74/7/7
f 77/26/26 80/27/27 10/28/28 9/29/29
f 55/30/30 53/31/21 54/32/31
f 22/33/32 23/34/33 75/35/34 73/36/35
f 21/37/36 22/33/32 73/36/35 72/38/37
f 57/39/38 77/26/26 9/29/29 4/18/39
f 5/40/40 6/12/41 124/41/42 114/42/43
f 30/43/44 20/44/45 62/45/46 98/46/47
f 80/27/27 82/47/48 11/48/49 10/28/28
f 9/29/50 10/28/51 85/49/52 84/50/53
f 10/28/51 11/48/49 87/51/54 85/49/52
f 89/52/55 99/53/56 91/54/57
f 11/48/49 3/55/58 56/56/59
f 92/57/60 57/39/38 4/18/39 14/17/17
f 96/58/61 59/59/62 64/60/63 101/61/64
f 99/53/56 61/62/65 58/63/66 91/54/57
f 88/2/2 52/64/67 69/3/3
f 55/30/30 3/55/58 11/48/49
f 90/65/68 97/66/69 89/67/55
f 30/43/44 98/46/47 97/66/69
f 96/58/61 101/61/64 94/68/70
f 100/69/71 93/70/72 94/71/70
f 71/6/6 78/5/5 58/63/66 61/62/65
f 4/18/18 9/29/50 84/50/53 60/19/19
f 90/65/68 92/57/60 14/17/17
f 59/59/62 83/24/24 66/25/25 64/60/63
f 100/69/71 102/72/73 16/73/74
f 102/72/73 63/74/75 5/40/76 16/73/74
f 103/75/77 104/76/78 108/77/79
f 157/78/80 158/79/81 27/80/82 29/81/83
f 23/34/33 17/82/84 54/32/31
f 63/74/75 65/9/9 6/12/12 5/40/76
f 138/83/85 140/84/86 121/85/87 119/86/88
f 130/87/89 123/88/90 126/89/91 131/90/92
f 117/91/93 120/92/94 22/33/95 21/37/96
f 120/92/94 122/93/97 23/34/33 22/33/95
f 103/75/77 17/82/84 23/34/33
f 28/94/98 19/95/99 112/96/100 147/97/101
f 105/98/102 133/99/103 128/100/104
f 135/101/105 138/83/85 119/86/88 118/102/106
f 128/100/104 133/99/103 131/90/92 126/89/91
f 129/103/107 132/104/108 25/105/109 24/106/110
f 107/107/111 105/108/102 106/109/112
f 7/11/113 8/14/14 127/110/114 125/111/115
f 6/12/41 7/11/113 125/111/115 124/41/42
f 109/112/116 129/103/107 24/106/110 19/95/117
f 16/73/74 5/40/40 114/42/43 150/113/118
f 132/104/108 134/114/119 26/115/120 25/105/109
f 24/106/121 25/105/122 137/116/123 136/117/124
f 25/105/122 26/115/120 139/118/125 137/116/123
f 141/119/126 151/120/127 143/121/128
f 26/115/120 18/122/129 108/77/79
f 144/123/130 109/112/116 19/95/117 28/94/98
f 148/124/131 111/125/132 116/126/133 153/127/134
f 151/120/127 113/128/135 110/129/136 143/121/128
f 140/84/86 104/130/78 121/85/87
f 34/131/137 17/82/84 18/122/129 32/132/138
f 107/107/111 18/122/129 26/115/120
f 155/133/139 156/134/140 13/135/141 15/136/142
f 142/137/143 149/138/144 141/139/126
f 16/73/74 150/113/118 149/138/144
f 148/124/131 153/127/134 146/140/145
f 152/141/146 145/142/147 146/143/145
f 14/17/17 95/20/20 93/70/72
f 123/88/90 130/87/89 110/129/136 113/128/135
f 19/95/99 24/106/121 136/117/124 112/96/100
f 142/137/143 144/123/130 28/94/98
f 111/125/132 135/101/105 118/102/106 116/126/133
f 156/134/140 157/78/80 29/81/83 13/135/141
f 152/141/146 154/144/148 30/43/44
f 154/144/148 115/145/149 20/44/150 30/43/44
f 28/94/98 147/97/101 145/142/147
f 8/14/14 2/16/16 106/109/112
f 115/145/149 117/91/93 21/37/96 20/44/150
f 158/79/81 155/133/139 15/136/142 27/80/82
f 31/146/151 2/16/16 3/55/58 33/147/152
f 17/82/84 34/131/137 33/147/152 3/55/58
f 31/146/151 32/132/138 18/122/129 2/16/16
f 12/148/153 32/132/138 31/146/151
f 12/148/154 31/146/151 33/147/152
f 12/148/155 33/147/152 34/131/137
f 12/148/156 34/131/137 32/132/138
f 43/149/157 45/150/158 36/151/159 35/152/160
f 47/153/161 49/154/162 46/155/163 43/156/157
f 48/157/164 40/158/165 37/159/166 44/160/167
f 39/161/168 41/162/169 50/163/170 47/164/161
f 37/165/166 38/166/171 36/167/159
f 41/168/169 42/169/172 40/170/165
f 45/171/158 46/172/163 44/173/167
f 49/174/162 50/175/170 48/176/164
f 36/167/159 38/166/171 35/152/160
f 40/170/165 42/169/172 38/166/171 37/165/166
f 39/177/168 42/169/172 41/168/169
f 48/176/164 50/175/170 41/168/169 40/170/165
f 47/164/161 50/175/170 49/174/162
f 44/173/167 46/172/163 49/174/162 48/176/164
f 43/156/157 46/172/163 45/171/158
f 36/167/159 45/171/158 44/173/167 37/165/166
f 35/178/160 38/179/171 42/180/172 39/177/168
f 20/44/45 21/37/36 72/38/37 62/45/46
f 66/25/25 67/4/4 68/10/10 65/9/9
f 67/4/4 69/3/3 70/13/13 68/10/10
f 51/15/15 70/13/13 69/3/3 52/64/67
f 64/60/63 66/25/25 65/9/9 63/74/75
f 72/38/37 73/36/35 74/7/7 71/6/6
f 73/36/35 75/35/34 76/23/23 74/7/7
f 53/31/21 76/23/23 75/35/34 54/32/31
f 62/45/46 72/38/37 71/6/6 61/62/65
f 78/5/5 79/8/8 80/27/27 77/26/26
f 79/8/8 81/22/22 82/47/48 80/27/27
f 84/50/53 85/49/52 86/1/1 83/24/24
f 85/49/52 87/51/54 88/2/2 86/1/1
f 55/30/30 82/47/48 81/22/22 53/21/21
f 52/181/67 88/2/2 87/51/54 56/56/59
f 60/19/19 84/50/53 83/24/24 59/59/62
f 58/63/66 78/5/5 77/26/26 57/39/38
f 89/67/55 91/54/57 92/57/60 90/65/68
f 93/70/72 95/20/20 96/58/61 94/68/70
f 57/39/38 92/57/60 91/54/57 58/63/66
f 59/59/62 96/58/61 95/20/20 60/19/19
f 97/66/69 98/46/47 99/53/56 89/52/55
f 61/62/65 99/53/56 98/46/47 62/45/46
f 94/71/70 101/61/64 102/72/73 100/69/71
f 63/74/75 102/72/73 101/61/64 64/60/63
f 118/102/106 119/86/88 120/92/94 117/91/93
f 119/86/88 121/85/87 122/93/97 120/92/94
f 103/75/77 122/93/97 121/85/87 104/130/78
f 116/126/133 118/102/106 117/91/93 115/145/149
f 124/41/42 125/111/115 126/89/91 123/88/90
f 125/111/115 127/110/114 128/100/104 126/89/91
f 105/108/102 128/100/104 127/110/114 106/109/112
f 114/42/43 124/41/42 123/88/90 113/128/135
f 130/87/89 131/90/92 132/104/108 129/103/107
f 131/90/92 133/99/103 134/114/119 132/104/108
f 136/117/124 137/116/123 138/83/85 135/101/105
f 137/116/123 139/118/125 140/84/86 138/83/85
f 107/107/111 134/114/119 133/99/103 105/98/102
f 104/76/78 140/84/86 139/118/125 108/77/79
f 112/96/100 136/117/124 135/101/105 111/125/132
f 110/129/136 130/87/89 129/103/107 109/112/116
f 141/139/126 143/121/128 144/123/130 142/137/143
f 145/142/147 147/97/101 148/124/131 146/140/145
f 109/112/116 144/123/130 143/121/128 110/129/136
f 111/125/132 148/124/131 147/97/101 112/96/100
f 149/138/144 150/113/118 151/120/127 141/119/126
f 113/128/135 151/120/127 150/113/118 114/42/43
f 146/143/145 153/127/134 154/144/148 152/141/146
f 115/145/149 154/144/148 153/127/134 116/126/133
f 51/15/15 52/181/67 56/56/59
f 3/55/58 55/30/30 54/32/31 17/82/84
f 2/16/16 51/15/15 56/56/59 3/55/58
f 18/122/129 107/107/111 106/109/112 2/16/16
f 17/82/84 103/75/77 108/77/79 18/122/129
f 13/135/141 29/81/83 97/66/69 90/65/68
f 29/81/83 27/80/82 145/142/147 152/141/146
f 27/80/82 15/136/142 149/138/144 142/137/143
f 15/136/142 13/135/141 93/70/72 100/69/71
f 13/135/141 14/17/17 93/70/72
f 13/135/141 90/65/68 14/17/17
f 29/81/83 30/43/44 97/66/69
f 29/81/83 152/141/146 30/43/44
f 27/80/82 28/94/98 145/142/147
f 27/80/82 142/137/143 28/94/98
f 15/136/142 16/73/74 149/138/144
f 15/136/142 100/69/71 16/73/74
f 87/51/54 11/48/49 56/56/59
f 82/47/48 55/30/30 11/48/49
f 75/35/34 23/34/33 54/32/31
f 122/93/97 103/75/77 23/34/33
f 139/118/125 26/115/120 108/77/79
f 134/114/119 107/107/111 26/115/120
f 127/110/114 8/14/14 106/109/112
f 70/13/13 51/15/15 8/14/14
f 1/182/173 156/134/140 155/133/139
f 1/183/173 157/78/80 156/134/140
f 1/182/173 158/79/81 157/78/80
f 1/184/173 155/133/139 158/79/81
