# Blender v3.4.1 OBJ File: 'Halloween_Bits_Export.blend'
# www.blender.org
mtllib tree_dead_medium.mtl
o tree_dead_medium_Cylinder.849
v 0.094344 0.000000 -0.233335
v 0.231006 0.000000 -0.096642
v 0.231006 0.000000 0.096642
v 0.094344 0.000000 0.233335
v -0.098958 0.000000 0.233343
v -0.235678 0.000000 0.096670
v -0.235678 0.000000 -0.096670
v -0.098958 0.000000 -0.233343
v 0.112388 1.261700 -0.050159
v 0.042151 1.244217 -0.121334
v 0.112388 1.261700 0.050159
v 0.042151 1.244217 0.121334
v -0.057655 1.218773 0.121665
v -0.128582 1.200751 0.050507
v -0.128582 1.200751 -0.050507
v -0.057655 1.218773 -0.121665
v -0.123583 2.967324 -0.082829
v -0.170662 2.989474 -0.034309
v -0.170662 2.989474 0.034309
v -0.123583 2.967324 0.082829
v -0.057003 2.935668 0.082829
v -0.009924 2.913056 0.034309
v -0.057003 2.935668 -0.082829
v -0.009924 2.913056 -0.034309
v 0.036765 1.905167 -0.040681
v -0.018088 1.937314 -0.098212
v 0.036765 1.905167 0.040681
v -0.018088 1.937314 0.098212
v -0.095661 1.981540 0.098212
v -0.150513 2.011817 0.040681
v -0.150513 2.011817 -0.040681
v -0.095661 1.981540 -0.098212
v 0.070778 -0.300167 -0.148523
v 0.157783 -0.300136 -0.061522
v 0.157783 -0.300136 0.061522
v 0.070778 -0.300167 0.148523
v -0.052256 -0.300212 0.148521
v -0.139265 -0.300243 0.061527
v -0.139265 -0.300243 -0.061527
v -0.052256 -0.300212 -0.148521
v -0.108540 3.335244 0.027159
v -0.108540 3.335244 -0.027159
v -0.145674 3.325373 -0.065567
v -0.198190 3.311413 0.065567
v -0.145674 3.325373 0.065567
v -0.235325 3.301541 -0.027159
v -0.235325 3.301541 0.027159
v -0.198190 3.311413 -0.065567
v -0.433801 3.888742 0.013149
v -0.433801 3.888742 -0.013148
v -0.448926 3.877912 -0.031743
v -0.470316 3.862597 0.031743
v -0.448926 3.877912 0.031743
v -0.485442 3.851767 -0.013148
v -0.485442 3.851767 0.013149
v -0.470316 3.862597 -0.031743
v -0.083434 2.226032 -0.079352
v 1.323162 2.858666 0.000000
v -0.082834 2.178875 -0.032543
v -0.082834 2.178875 0.032543
v -0.083434 2.226032 0.079352
v -0.084582 2.293959 0.079681
v -0.085602 2.341725 0.032869
v -0.085602 2.341725 -0.032869
v -0.084582 2.293959 -0.079681
v 0.933872 2.679755 -0.039110
v 0.899231 2.690522 -0.016437
v 0.899231 2.690522 0.016437
v 0.933872 2.679755 0.039110
v 0.981161 2.665093 0.038253
v 1.013341 2.655188 0.015579
v 1.013341 2.655188 -0.015579
v 0.981161 2.665093 -0.038253
v 0.728660 2.471052 -0.056992
v 0.768907 2.451619 -0.023183
v 0.768907 2.451619 0.023183
v 0.728660 2.471052 0.056992
v 0.669080 2.499684 0.058390
v 0.625182 2.520706 0.024581
v 0.625182 2.520706 -0.024581
v 0.669080 2.499684 -0.058390
v 0.297311 2.368619 -0.072041
v 0.272737 2.406439 -0.030359
v 0.272737 2.406439 0.030359
v 0.297311 2.368619 0.072041
v 0.331298 2.317560 0.070381
v 0.354870 2.282959 0.028720
v 0.354870 2.282959 -0.028720
v 0.331298 2.317560 -0.070381
v 0.763534 2.565045 0.043520
v 0.731750 2.988283 -0.001769
v 0.742046 2.549858 0.016805
v 0.742046 2.549858 -0.020343
v 0.763534 2.565045 -0.047058
v 0.794559 2.586873 -0.047246
v 0.816429 2.602187 -0.020529
v 0.816429 2.602187 0.016991
v 0.794559 2.586873 0.043708
v 0.739297 2.861176 0.020552
v 0.752348 2.858298 0.007612
v 0.752348 2.858298 -0.011150
v 0.739297 2.861176 -0.024091
v 0.721498 2.865115 -0.023602
v 0.709419 2.867819 -0.010661
v 0.709419 2.867819 0.007122
v 0.721498 2.865115 0.020063
v 0.690214 2.758024 0.030758
v 0.671840 2.759179 0.011462
v 0.671840 2.759179 -0.015001
v 0.690214 2.758024 -0.034296
v 0.717351 2.756271 -0.035094
v 0.737311 2.754956 -0.015798
v 0.737311 2.754956 0.012260
v 0.717351 2.756271 0.031556
v 0.731310 2.674568 0.039347
v 0.754665 2.682742 0.015558
v 0.754665 2.682742 -0.019096
v 0.731310 2.674568 -0.042886
v 0.699574 2.663667 -0.041938
v 0.677930 2.656370 -0.018161
v 0.677930 2.656370 0.014622
v 0.699574 2.663667 0.038400
v -0.465799 3.887022 0.000000
vt 0.921996 0.548169
vt 0.921366 0.586597
vt 0.921366 0.586597
vt 0.921996 0.548169
vt 0.920993 0.586064
vt 0.921270 0.548169
vt 0.920463 0.585289
vt 0.920243 0.548169
vt 0.920086 0.584741
vt 0.919517 0.548169
vt 0.920086 0.584741
vt 0.919517 0.548169
vt 0.920463 0.585289
vt 0.920243 0.548169
vt 0.920993 0.586064
vt 0.921270 0.548169
vt 0.920964 0.606195
vt 0.920673 0.607174
vt 0.920673 0.607174
vt 0.920261 0.608521
vt 0.920113 0.638545
vt 0.920466 0.637581
vt 0.919970 0.609443
vt 0.919970 0.609443
vt 0.920261 0.608521
vt 0.920466 0.637581
vt 0.920113 0.638545
vt 0.919863 0.639220
vt 0.920716 0.636892
vt 0.920964 0.606195
vt 0.919863 0.639220
vt 0.920716 0.636892
vt 0.919461 0.648637
vt 0.919461 0.648637
vt 0.920491 0.539026
vt 0.921145 0.539027
vt 0.920491 0.539026
vt 0.920029 0.539025
vt 0.920029 0.539025
vt 0.921607 0.539028
vt 0.921607 0.539028
vt 0.921145 0.539027
vt 0.920019 0.649486
vt 0.919692 0.648988
vt 0.920250 0.649838
vt 0.920250 0.649838
vt 0.919692 0.648988
vt 0.920019 0.649486
vt 0.918202 0.665300
vt 0.918007 0.664503
vt 0.918671 0.667226
vt 0.918477 0.666428
vt 0.918477 0.666428
vt 0.918671 0.667226
vt 0.918007 0.664503
vt 0.918202 0.665300
vt 0.924070 0.623088
vt 0.925362 0.629352
vt 0.925535 0.629097
vt 0.924289 0.622554
vt 0.923509 0.624451
vt 0.924921 0.630009
vt 0.924921 0.630009
vt 0.923509 0.624451
vt 0.925107 0.629731
vt 0.927150 0.635570
vt 0.927176 0.635371
vt 0.925535 0.629097
vt 0.924289 0.622554
vt 0.925362 0.629352
vt 0.922654 0.617701
vt 0.922654 0.617701
vt 0.923747 0.623874
vt 0.924070 0.623088
vt 0.922529 0.618755
vt 0.920320 0.618036
vt 0.922348 0.620310
vt 0.922529 0.618755
vt 0.920326 0.615967
vt 0.920326 0.615967
vt 0.922348 0.620310
vt 0.920320 0.618036
vt 0.922218 0.621462
vt 0.922218 0.621462
vt 0.920329 0.614531
vt 0.927110 0.635873
vt 0.925107 0.629731
vt 0.923747 0.623874
vt 0.927077 0.636105
vt 0.920329 0.614531
vt 0.920314 0.619491
vt 0.920314 0.619491
vt 0.923795 0.631763
vt 0.923934 0.635066
vt 0.923869 0.635131
vt 0.923697 0.631773
vt 0.924046 0.631737
vt 0.924100 0.634903
vt 0.924100 0.634903
vt 0.924046 0.631737
vt 0.924030 0.634972
vt 0.923940 0.638792
vt 0.923918 0.638746
vt 0.923869 0.635131
vt 0.923697 0.631773
vt 0.923934 0.635066
vt 0.923755 0.628653
vt 0.923755 0.628653
vt 0.923939 0.631749
vt 0.923795 0.631763
vt 0.923868 0.628906
vt 0.924391 0.626706
vt 0.924034 0.629283
vt 0.923868 0.628906
vt 0.924232 0.625997
vt 0.924232 0.625997
vt 0.924034 0.629283
vt 0.924391 0.626706
vt 0.924156 0.629565
vt 0.924156 0.629565
vt 0.924122 0.625505
vt 0.923974 0.638862
vt 0.924030 0.634972
vt 0.923939 0.631749
vt 0.924122 0.625505
vt 0.924503 0.627203
vt 0.924503 0.627203
vt 0.918202 0.665300
vt 0.918007 0.664503
vt 0.918671 0.667226
vt 0.918477 0.666428
vn 0.9203 -0.0781 -0.3835
vn 0.9218 0.1059 -0.3729
vn 0.9218 0.1059 0.3729
vn 0.9203 -0.0781 0.3835
vn 0.3917 0.0812 0.9165
vn 0.3760 -0.0881 0.9224
vn -0.3814 0.0544 0.9228
vn -0.3865 -0.1015 0.9167
vn -0.9239 0.0411 0.3805
vn -0.9193 -0.1105 0.3778
vn -0.9239 0.0411 -0.3805
vn -0.9193 -0.1105 -0.3778
vn -0.3814 0.0544 -0.9228
vn -0.3865 -0.1015 -0.9167
vn 0.3917 0.0812 -0.9165
vn 0.3760 -0.0881 -0.9224
vn 0.9248 0.0823 0.3714
vn 0.3943 0.0458 0.9178
vn 0.3943 0.0458 -0.9178
vn -0.3898 0.0050 -0.9209
vn -0.3692 -0.0053 -0.9293
vn 0.4169 0.0876 -0.9047
vn -0.9277 -0.0188 0.3729
vn -0.9277 -0.0188 -0.3729
vn -0.3898 0.0050 0.9209
vn 0.4169 0.0876 0.9047
vn -0.3692 -0.0053 0.9293
vn -0.9199 -0.1045 -0.3779
vn 0.9252 0.1236 0.3588
vn 0.9248 0.0823 -0.3714
vn -0.9199 -0.1045 0.3779
vn 0.9252 0.1236 -0.3588
vn -0.8809 -0.2767 0.3840
vn -0.8809 -0.2767 -0.3840
vn -0.3562 -0.3050 0.8832
vn 0.3757 -0.2792 0.8837
vn -0.3562 -0.3050 -0.8832
vn -0.8729 -0.3231 -0.3656
vn -0.8729 -0.3231 0.3656
vn 0.8933 -0.2608 0.3660
vn 0.8933 -0.2608 -0.3660
vn 0.3757 -0.2792 -0.8837
vn 0.3856 0.1910 0.9027
vn -0.3552 -0.0725 0.9320
vn 0.8655 0.3502 -0.3580
vn 0.8655 0.3502 0.3580
vn -0.3552 -0.0725 -0.9320
vn 0.3856 0.1910 -0.9027
vn -0.5554 0.2532 0.7921
vn -0.9464 0.0250 0.3219
vn 0.7990 0.4791 0.3635
vn 0.0212 0.5889 0.8079
vn 0.0212 0.5889 -0.8079
vn 0.7990 0.4791 -0.3635
vn -0.9464 0.0250 -0.3219
vn -0.5554 0.2532 -0.7921
vn 0.2086 -0.3268 -0.9218
vn 0.2344 -0.1985 -0.9517
vn 0.5441 -0.7182 -0.4337
vn 0.4892 -0.7732 -0.4035
vn -0.3610 0.8366 0.4120
vn -0.4133 0.8175 0.4012
vn -0.4133 0.8175 -0.4012
vn -0.3610 0.8366 -0.4120
vn -0.1284 0.3891 -0.9122
vn 0.8871 0.4616 0.0000
vn 0.5441 -0.7182 0.4337
vn 0.4892 -0.7732 0.4035
vn 0.2344 -0.1985 0.9517
vn 0.2902 -0.8816 -0.3722
vn 0.2902 -0.8816 0.3722
vn -0.1208 0.3045 -0.9448
vn 0.2086 -0.3268 0.9218
vn 0.1373 -0.3849 0.9127
vn -0.0457 0.3343 -0.9414
vn -0.0732 0.3514 -0.9334
vn 0.1373 -0.3849 -0.9127
vn 0.1135 -0.4242 -0.8984
vn 0.1135 -0.4242 0.8984
vn -0.0732 0.3514 0.9334
vn -0.0457 0.3343 0.9414
vn -0.2168 0.8942 0.3917
vn -0.2168 0.8942 -0.3917
vn 0.2184 -0.9086 0.3561
vn -0.1284 0.3891 0.9122
vn -0.1208 0.3045 0.9448
vn 0.2184 -0.9086 -0.3561
vn -0.1607 0.9033 0.3978
vn -0.1607 0.9033 -0.3978
vn -0.4379 0.1168 0.8914
vn -0.3514 0.1956 0.9156
vn -0.8888 0.2583 0.3786
vn -0.9244 0.1369 0.3559
vn 0.9101 0.0630 -0.4096
vn 0.9277 0.0202 -0.3728
vn 0.9277 0.0202 0.3728
vn 0.9101 0.0630 0.4096
vn 0.4053 0.0964 0.9091
vn 0.0132 0.9999 -0.0000
vn -0.8888 0.2583 -0.3786
vn -0.9244 0.1369 -0.3559
vn -0.3514 0.1956 -0.9156
vn -0.8931 -0.2696 0.3602
vn -0.8931 -0.2696 -0.3602
vn 0.3170 0.0867 0.9445
vn -0.4379 0.1168 -0.8914
vn -0.4322 -0.0948 -0.8968
vn 0.2844 0.2532 0.9247
vn 0.2694 0.1819 0.9457
vn -0.4322 -0.0948 0.8968
vn -0.3585 -0.1841 0.9152
vn -0.3585 -0.1841 -0.9152
vn 0.2694 0.1819 -0.9457
vn 0.2844 0.2532 -0.9247
vn 0.8166 0.4059 -0.4103
vn 0.8166 0.4059 0.4103
vn -0.7981 -0.4747 -0.3712
vn 0.4053 0.0964 -0.9091
vn 0.3170 0.0867 -0.9445
vn -0.7981 -0.4747 0.3712
vn 0.7312 0.5666 -0.3799
vn 0.7312 0.5666 0.3799
vn -0.5317 0.8469 -0.0000
vn -0.1324 0.9718 0.1951
vn -0.1324 0.9718 -0.1951
usemtl HalloweenBits
s 1
f 2/1/1 9/2/2 11/3/3 3/4/4
f 3/4/4 11/3/3 12/5/5 4/6/6
f 4/6/6 12/5/5 13/7/7 5/8/8
f 5/8/8 13/7/7 14/9/9 6/10/10
f 6/10/10 14/9/9 15/11/11 7/12/12
f 7/12/12 15/11/11 16/13/13 8/14/14
f 8/14/14 16/13/13 10/15/15 1/16/16
f 11/3/3 27/17/17 28/18/18 12/5/5
f 26/19/19 32/20/20 17/21/21 23/22/22
f 16/13/13 32/20/20 26/19/19 10/15/15
f 14/9/9 30/23/23 31/24/24 15/11/11
f 12/5/5 28/18/18 29/25/25 13/7/7
f 15/11/11 31/24/24 32/20/20 16/13/13
f 13/7/7 29/25/25 30/23/23 14/9/9
f 29/25/25 28/18/18 21/26/26 20/27/27
f 32/20/20 31/24/24 18/28/28 17/21/21
f 28/18/18 27/17/17 22/29/29 21/26/26
f 9/2/2 25/30/30 27/17/17 11/3/3
f 31/24/24 30/23/23 19/31/31 18/28/28
f 27/17/17 25/30/30 24/32/32 22/29/29
f 30/23/23 29/25/25 20/27/27 19/31/31
f 25/30/30 26/19/19 23/22/22 24/32/32
f 18/28/28 19/31/31 47/33/33 46/34/34
f 4/6/6 5/8/8 37/35/35 36/36/36
f 7/12/12 8/14/14 40/37/37 39/38/38
f 5/8/8 6/10/10 38/39/39 37/35/35
f 3/4/4 4/6/6 36/36/36 35/40/40
f 6/10/10 7/12/12 39/38/38 38/39/39
f 1/16/16 2/1/1 34/41/41 33/42/42
f 2/1/1 3/4/4 35/40/40 34/41/41
f 8/14/14 1/16/16 33/42/42 40/37/37
f 10/15/15 26/19/19 25/30/30 9/2/2
f 20/27/27 21/26/26 45/43/43 44/44/44
f 22/29/29 24/32/32 42/45/45 41/46/46
f 23/22/22 17/21/21 48/47/47 43/48/48
f 19/31/31 20/27/27 44/44/44 47/33/33
f 21/26/26 22/29/29 41/46/46 45/43/43
f 24/32/32 23/22/22 43/48/48 42/45/45
f 17/21/21 18/28/28 46/34/34 48/47/47
f 1/16/16 10/15/15 9/2/2 2/1/1
f 47/33/33 44/44/44 52/49/49 55/50/50
f 45/43/43 41/46/46 49/51/51 53/52/52
f 42/45/45 43/48/48 51/53/53 50/54/54
f 48/47/47 46/34/34 54/55/55 56/56/56
f 46/34/34 47/33/33 55/50/50 54/55/55
f 44/44/44 45/43/43 53/52/52 52/49/49
f 41/46/46 42/45/45 50/54/54 49/51/51
f 43/48/48 48/47/47 56/56/56 51/53/53
f 74/57/57 73/58/58 72/59/59 75/60/60
f 79/61/61 68/62/62 67/63/63 80/64/64
f 66/65/65 58/66/66 73/58/58
f 73/58/58 58/67/66 72/59/59
f 75/60/60 72/59/59 71/68/67 76/69/68
f 71/68/67 58/66/66 70/70/69
f 88/71/70 75/60/60 76/69/68 87/72/71
f 80/64/64 67/63/63 66/65/65 81/73/72
f 81/73/72 66/65/65 73/58/58 74/57/57
f 87/72/71 76/69/68 77/74/73 86/75/74
f 65/76/75 82/77/76 89/78/77 57/79/78
f 61/80/79 86/75/74 85/81/80 62/82/81
f 84/83/82 79/61/61 80/64/64 83/84/83
f 89/78/77 74/57/57 75/60/60 88/71/70
f 60/85/84 87/72/71 86/75/74 61/80/79
f 82/77/76 81/73/72 74/57/57 89/78/77
f 67/63/63 58/86/66 66/65/65
f 77/74/73 70/70/69 69/87/85 78/88/86
f 78/88/86 69/87/85 68/62/62 79/61/61
f 72/59/59 58/67/66 71/68/67
f 70/70/69 58/86/66 69/87/85
f 76/69/68 71/68/67 70/70/69 77/74/73
f 69/87/85 58/89/66 68/62/62
f 68/62/62 58/89/66 67/63/63
f 83/84/83 80/64/64 81/73/72 82/77/76
f 59/90/87 88/71/70 87/72/71 60/85/84
f 63/91/88 84/83/82 83/84/83 64/92/89
f 86/75/74 77/74/73 78/88/86 85/81/80
f 85/81/80 78/88/86 79/61/61 84/83/82
f 57/79/78 89/78/77 88/71/70 59/90/87
f 64/92/89 83/84/83 82/77/76 65/76/75
f 62/82/81 85/81/80 84/83/82 63/91/88
f 107/93/90 106/94/91 105/95/92 108/96/93
f 112/97/94 101/98/95 100/99/96 113/100/97
f 99/101/98 91/102/99 106/94/91
f 106/94/91 91/103/99 105/95/92
f 108/96/93 105/95/92 104/104/100 109/105/101
f 104/104/100 91/102/99 103/106/102
f 121/107/103 108/96/93 109/105/101 120/108/104
f 113/100/97 100/99/96 99/101/98 114/109/105
f 114/109/105 99/101/98 106/94/91 107/93/90
f 120/108/104 109/105/101 110/110/106 119/111/107
f 98/112/108 115/113/109 122/114/110 90/115/111
f 94/116/112 119/111/107 118/117/113 95/118/114
f 117/119/115 112/97/94 113/100/97 116/120/116
f 122/114/110 107/93/90 108/96/93 121/107/103
f 93/121/117 120/108/104 119/111/107 94/116/112
f 115/113/109 114/109/105 107/93/90 122/114/110
f 100/99/96 91/122/99 99/101/98
f 110/110/106 103/106/102 102/123/118 111/124/119
f 111/124/119 102/123/118 101/98/95 112/97/94
f 105/95/92 91/103/99 104/104/100
f 103/106/102 91/122/99 102/123/118
f 109/105/101 104/104/100 103/106/102 110/110/106
f 102/123/118 91/122/99 101/98/95
f 101/98/95 91/122/99 100/99/96
f 116/120/116 113/100/97 114/109/105 115/113/109
f 92/125/120 121/107/103 120/108/104 93/121/117
f 96/126/121 117/119/115 116/120/116 97/127/122
f 119/111/107 110/110/106 111/124/119 118/117/113
f 118/117/113 111/124/119 112/97/94 117/119/115
f 90/115/111 122/114/110 121/107/103 92/125/120
f 97/127/122 116/120/116 115/113/109 98/112/108
f 95/118/114 118/117/113 117/119/115 96/126/121
f 56/56/56 54/55/55 123/128/123
f 54/55/55 55/50/50 123/129/123
f 52/49/49 53/52/52 123/128/123
f 49/51/124 50/54/125 123/130/123
f 51/53/53 56/56/56 123/131/123
f 55/50/50 52/49/49 123/129/123
f 53/52/52 49/51/124 123/131/123
f 50/54/125 51/53/53 123/130/123
