# Blender v3.4.1 OBJ File: 'Halloween_Bits_Export.blend'
# www.blender.org
mtllib tree_pine_orange_small.mtl
o tree_pine_orange_small_Cube.076
v 0.029172 2.372818 -0.028678
v -0.007746 0.760045 -0.117905
v 0.160781 0.784814 0.055367
v -0.007888 0.743594 0.225309
v -0.176415 0.718825 0.052038
v 0.108143 0.780158 -0.063134
v 0.108045 0.768848 0.172826
v -0.123777 0.723481 0.170538
v -0.123679 0.734791 -0.065422
v 0.204788 0.000000 0.001749
v 0.141994 0.000000 -0.139590
v 0.001749 0.000000 -0.204788
v -0.001749 0.000000 0.204788
v 0.139590 0.000000 0.141994
v -0.204788 0.000000 -0.001749
v -0.141994 0.000000 0.139590
v -0.139590 0.000000 -0.141994
v -0.208938 1.742651 0.798974
v -0.580105 1.542365 0.604086
v 0.244066 1.594610 0.828455
v 0.343429 1.945709 0.350730
v 0.554490 1.758078 0.594865
v 0.806203 1.807892 -0.209480
v 0.847978 1.633662 0.226292
v 0.630298 1.620619 -0.597761
v 0.126795 1.931786 -0.473800
v 0.262361 1.748279 -0.779301
v -0.572657 1.719276 -0.585374
v -0.189312 1.567139 -0.823085
v -0.413433 1.897067 -0.110757
v -0.786175 1.413102 -0.292643
v -0.789798 1.705320 0.212226
v -0.698456 1.640006 -0.154863
v 0.171149 1.816045 -0.727558
v 0.717119 1.617031 0.585917
v -0.006656 1.985118 -0.000001
v -0.234289 1.825538 0.867789
v 0.298213 2.314841 0.330636
v 0.544096 1.823495 0.692156
v 0.870040 1.896319 -0.228424
v 0.094437 2.303037 -0.444989
v 0.345617 1.821827 -0.817387
v -0.627140 1.804517 -0.632199
v -0.421768 2.269486 -0.105214
v -0.889686 1.483645 -0.298021
v -0.854136 1.792046 0.242964
v -0.777282 1.721494 -0.184911
v -0.128520 2.281763 -0.403411
v 0.112286 1.878986 -0.803382
v 0.275024 2.307965 -0.293130
v 0.381694 2.314365 0.112766
v 0.816541 1.690112 0.581918
v 0.085083 2.295205 0.407553
v -0.056189 2.777190 0.001018
v -0.319441 2.269664 0.297242
v 0.703947 0.922260 0.856142
v 0.932909 0.756252 0.319311
v 0.128770 0.699145 0.921637
v -0.246501 1.265764 0.600373
v -0.373084 0.878671 0.962485
v -1.116804 1.029037 0.087474
v -0.794676 0.751027 0.533198
v -0.916733 0.864222 -0.461393
v -0.389323 1.395174 -0.559883
v -0.698640 1.100872 -0.911644
v 0.463537 1.140092 -1.096890
v -0.114322 0.920853 -1.062641
v 0.508851 1.317735 -0.374332
v 0.792777 0.710222 -0.783694
v 1.150591 1.031889 -0.189656
v 0.018989 1.562695 -0.000002
v 0.821423 0.986333 -0.604984
v -0.583326 1.197914 -0.910824
v -0.532660 0.681358 0.930715
v 0.747788 1.037697 0.924218
v -0.269076 1.382182 0.677423
v -0.339194 0.970142 1.053536
v -1.184817 1.150348 0.109106
v -0.425272 1.527874 -0.598256
v -0.783164 1.204416 -0.909299
v 0.495796 1.269469 -1.143967
v 0.547167 1.489854 -0.397906
v 0.871567 0.818999 -0.800629
v 1.215922 1.157073 -0.168141
v 0.755148 1.460327 -0.088671
v 0.870494 1.115222 -0.638232
v 0.309588 1.528951 -0.687743
v -0.562743 1.308270 -0.983352
v -0.718145 1.455778 0.082503
v -0.610767 0.776226 0.980439
v 0.024291 2.004266 0.055271
v 0.468465 1.386606 0.582961
v 0.267428 2.400014 0.508294
v -0.022151 2.418530 0.566307
v 0.469455 2.379881 0.281568
v 0.370974 2.597153 0.000601
v 0.534617 2.368176 0.022117
v 0.267428 2.400014 -0.507092
v 0.468168 2.380980 -0.285511
v -0.021914 2.418896 -0.568788
v -0.199493 2.639897 -0.329459
v -0.288652 2.434730 -0.510217
v -0.687846 2.566665 -0.000797
v -0.436062 2.372680 -0.237540
v -0.291449 2.689865 0.165738
v -0.515622 2.363012 0.230174
v -0.317458 2.445172 0.508294
v -0.445552 2.431339 0.271590
v -0.314286 2.461246 -0.458289
v 0.557565 2.315916 -0.054090
v -0.001402 2.738554 0.000002
v 0.317627 2.485222 0.584912
v 0.472004 2.667155 0.001438
v 0.619753 2.437480 0.076580
v 0.317947 2.485093 -0.583607
v -0.240975 2.721555 -0.411557
v -0.272472 2.511572 -0.604783
v -0.512123 2.455489 -0.286764
v -0.370390 2.768380 0.215458
v -0.584721 2.456146 0.276439
v -0.344414 2.540594 0.586047
v -0.512841 2.527563 0.315991
v -0.475703 2.742249 -0.003041
v -0.395893 2.543205 -0.498695
v 0.233657 2.687057 -0.411439
v 0.640880 2.387254 -0.109517
v 0.378320 2.702574 0.215569
v 0.071277 3.647759 -0.000376
v 0.002325 2.733609 0.433514
v 0.000000 -0.395064 0.000000
v 0.150440 -0.395064 0.001285
v 0.104311 -0.395064 -0.102545
v 0.001285 -0.395064 -0.150440
v -0.001285 -0.395064 0.150440
v 0.102545 -0.395064 0.104311
v -0.150440 -0.395064 -0.001285
v -0.104311 -0.395064 0.102545
v -0.102545 -0.395064 -0.104311
vt 0.922690 0.545892
vt 0.928790 0.558008
vt 0.926024 0.558193
vt 0.919384 0.545892
vt 0.943548 0.572643
vt 0.929016 0.690344
vt 0.936169 0.573138
vt 0.936169 0.573138
vt 0.943548 0.572643
vt 0.928790 0.558008
vt 0.922690 0.545892
vt 0.928790 0.573633
vt 0.931506 0.545892
vt 0.943548 0.588268
vt 0.946315 0.588082
vt 0.943548 0.588268
vt 0.940322 0.545892
vt 0.946315 0.572457
vt 0.943628 0.545892
vt 0.928790 0.573633
vt 0.926024 0.573818
vt 0.940322 0.545892
vt 0.931506 0.545892
vt 0.922690 0.545892
vt 0.919384 0.545892
vt 0.931506 0.545892
vt 0.940322 0.545892
vt 0.940322 0.545892
vt 0.931506 0.545892
vt 0.943628 0.545892
vt 0.922690 0.545892
vt 0.064293 0.582785
vt 0.072690 0.554063
vt 0.067183 0.553377
vt 0.061753 0.553072
vt 0.066266 0.554075
vt 0.069522 0.582785
vt 0.077077 0.554142
vt 0.077634 0.568814
vt 0.057817 0.568814
vt 0.055296 0.582785
vt 0.045850 0.568814
vt 0.051497 0.562879
vt 0.057443 0.554043
vt 0.049774 0.568814
vt 0.046555 0.554103
vt 0.072383 0.572897
vt 0.073992 0.566758
vt 0.064912 0.566009
vt 0.052201 0.544430
vt 0.069728 0.648192
vt 0.064721 0.648679
vt 0.069076 0.593813
vt 0.050685 0.648222
vt 0.046555 0.588978
vt 0.048146 0.610735
vt 0.072690 0.588937
vt 0.079780 0.610719
vt 0.065036 0.648208
vt 0.070905 0.648787
vt 0.072595 0.613335
vt 0.066266 0.588949
vt 0.057262 0.611088
vt 0.053932 0.648756
vt 0.050093 0.604970
vt 0.043706 0.611264
vt 0.058619 0.648184
vt 0.061780 0.689129
vt 0.072949 0.648230
vt 0.077077 0.589016
vt 0.076361 0.607318
vt 0.057443 0.588917
vt 0.063890 0.606394
vt 0.050389 0.550866
vt 0.057262 0.576213
vt 0.048146 0.575861
vt 0.043706 0.576390
vt 0.050093 0.570096
vt 0.064721 0.613805
vt 0.063890 0.571519
vt 0.069076 0.558938
vt 0.053932 0.613881
vt 0.079780 0.575845
vt 0.076361 0.572444
vt 0.070905 0.613913
vt 0.072595 0.578460
vt 0.050389 0.585740
vt 0.066161 0.533338
vt 0.072137 0.579659
vt 0.076983 0.531347
vt 0.062388 0.547853
vt 0.080301 0.533579
vt 0.088112 0.553050
vt 0.053264 0.553050
vt 0.044904 0.533537
vt 0.041407 0.533559
vt 0.047341 0.579659
vt 0.038782 0.558790
vt 0.071902 0.553050
vt 0.060754 0.575623
vt 0.060279 0.544705
vt 0.083802 0.533523
vt 0.046373 0.553050
vt 0.037763 0.550159
vt 0.078855 0.549107
vt 0.057072 0.518766
vt 0.073154 0.625449
vt 0.066161 0.568212
vt 0.076917 0.574927
vt 0.083802 0.568398
vt 0.079123 0.625714
vt 0.056423 0.625682
vt 0.044904 0.568411
vt 0.052688 0.598687
vt 0.045892 0.625749
vt 0.041407 0.568433
vt 0.037310 0.602654
vt 0.068704 0.626004
vt 0.059845 0.590601
vt 0.060298 0.625388
vt 0.080301 0.568453
vt 0.072734 0.599167
vt 0.062519 0.674257
vt 0.089660 0.598739
vt 0.051939 0.625765
vt 0.057324 0.563090
vt 0.045485 0.598838
vt 0.036670 0.559161
vt 0.045892 0.590874
vt 0.037310 0.567780
vt 0.045485 0.563964
vt 0.080807 0.558033
vt 0.057324 0.528215
vt 0.060298 0.590514
vt 0.076917 0.540052
vt 0.089660 0.563865
vt 0.072734 0.564293
vt 0.059845 0.555727
vt 0.073154 0.590575
vt 0.052688 0.563812
vt 0.080807 0.592907
vt 0.036670 0.594036
vt 0.072787 0.580856
vt 0.074917 0.575149
vt 0.070218 0.601329
vt 0.061661 0.580825
vt 0.061572 0.577508
vt 0.068226 0.581202
vt 0.068226 0.581202
vt 0.061666 0.580863
vt 0.052403 0.573191
vt 0.054996 0.582803
vt 0.057275 0.601202
vt 0.046385 0.590317
vt 0.055113 0.605408
vt 0.054953 0.581202
vt 0.052087 0.578875
vt 0.072818 0.580757
vt 0.055621 0.580396
vt 0.074309 0.580102
vt 0.050625 0.571640
vt 0.072375 0.643838
vt 0.076673 0.617654
vt 0.072787 0.615730
vt 0.061664 0.646800
vt 0.061661 0.615700
vt 0.069210 0.624817
vt 0.061628 0.737015
vt 0.056197 0.643774
vt 0.050865 0.644026
vt 0.066964 0.643985
vt 0.069217 0.624807
vt 0.061666 0.615738
vt 0.053012 0.625101
vt 0.050543 0.615614
vt 0.053196 0.647388
vt 0.050402 0.622681
vt 0.054178 0.625235
vt 0.070200 0.646603
vt 0.072818 0.615632
vt 0.076109 0.622422
vt 0.046385 0.625191
vt 0.048904 0.615129
vt 0.056197 0.608899
vt 0.055852 0.588058
vt 0.050543 0.580740
vt 0.053012 0.590227
vt 0.076109 0.587547
vt 0.053196 0.612513
vt 0.048904 0.580254
vt 0.076673 0.582779
vt 0.069210 0.589943
vt 0.054178 0.590361
vt 0.050402 0.587806
vt 0.072375 0.608963
vt 0.069217 0.589933
vt 0.055852 0.622933
vt 0.931506 0.530267
vt 0.919384 0.530267
vt 0.922690 0.530267
vt 0.922690 0.530267
vt 0.931506 0.530267
vt 0.940322 0.530267
vt 0.943628 0.530267
vt 0.940322 0.530267
vt 0.931506 0.530267
vn 0.4193 -0.0077 -0.9078
vn 0.4148 0.1075 -0.9036
vn 0.7301 0.0983 -0.6762
vn 0.7089 -0.0160 -0.7051
vn -0.9109 0.0780 -0.4053
vn -0.7130 0.0822 -0.6963
vn -0.7184 0.0872 -0.6902
vn 0.6889 0.0647 0.7220
vn 0.6938 0.1233 0.7096
vn 0.4006 0.0450 0.9151
vn 0.9105 0.0790 -0.4059
vn 0.9134 -0.0196 -0.4065
vn 0.9066 -0.0522 0.4188
vn 0.9063 0.0613 0.4182
vn 0.7060 -0.0649 0.7053
vn -0.4435 0.1479 0.8840
vn -0.7180 0.1487 0.6800
vn -0.7299 0.1483 0.6673
vn -0.9078 0.1323 0.3980
vn 0.4073 -0.0713 0.9105
vn -0.4208 -0.0754 0.9040
vn -0.4222 -0.0283 0.9061
vn -0.6904 -0.0137 0.7233
vn -0.7153 -0.0712 0.6952
vn 0.4212 0.0405 -0.9061
vn 0.7140 0.0505 -0.6984
vn 0.6987 0.0501 -0.7136
vn -0.4192 0.0781 -0.9045
vn -0.9139 0.0057 0.4059
vn -0.9122 -0.0600 0.4052
vn -0.9086 -0.0267 -0.4169
vn -0.7003 -0.0215 -0.7135
vn -0.4116 -0.0119 -0.9113
vn 0.9118 0.0540 -0.4071
vn 0.9068 -0.1243 -0.4029
vn 0.7068 -0.1326 -0.6949
vn -0.6949 -0.1326 -0.7068
vn -0.8998 -0.1243 -0.4183
vn 0.4029 -0.1243 0.9068
vn 0.6949 -0.1326 0.7068
vn -0.7068 -0.1326 0.6949
vn -0.4183 -0.1243 0.8998
vn -0.4029 -0.1243 -0.9068
vn 0.4183 -0.1243 -0.8998
vn 0.8998 -0.1243 0.4183
vn -0.9068 -0.1243 0.4029
vn -0.4779 -0.8543 0.2046
vn -0.4359 -0.8813 -0.1827
vn -0.5527 -0.7987 -0.2380
vn 0.2643 -0.9638 -0.0342
vn 0.2100 -0.8780 0.4301
vn 0.5541 -0.7740 0.3065
vn -0.3430 -0.9189 0.1948
vn -0.5171 -0.8547 0.0450
vn -0.2925 -0.9009 0.3207
vn -0.0743 -0.8846 0.4603
vn -0.0234 -0.9016 0.4320
vn 0.2742 -0.9585 0.0782
vn 0.3550 -0.9084 -0.2210
vn 0.6175 -0.7334 0.2842
vn -0.3864 -0.9219 0.0273
vn 0.0179 -0.8985 -0.4386
vn -0.1545 -0.7805 -0.6058
vn 0.2375 -0.9152 -0.3256
vn -0.2820 -0.8999 -0.3328
vn 0.3639 -0.8816 -0.3007
vn 0.4304 -0.7905 0.4358
vn -0.4440 -0.8413 0.3083
vn -0.0252 -0.8030 -0.5954
vn 0.7994 -0.5992 -0.0437
vn 0.7064 0.7033 0.0792
vn 0.4670 0.7106 0.5263
vn 0.8078 0.5884 0.0342
vn -0.5514 0.6615 0.5083
vn -0.6349 0.4822 0.6036
vn -0.2499 0.6379 0.7284
vn 0.8058 0.5754 0.1403
vn 0.6896 0.6967 -0.1975
vn -0.3580 0.6319 -0.6874
vn 0.1394 0.6989 -0.7015
vn -0.4074 0.5092 -0.7581
vn -0.2538 0.5058 -0.8245
vn -0.5605 0.6324 -0.5347
vn -0.7686 0.6311 0.1047
vn -0.7995 0.5528 -0.2348
vn -0.7169 0.6214 0.3161
vn 0.0282 0.6574 0.7530
vn -0.8140 0.5429 0.2067
vn -0.6199 0.6401 -0.4539
vn 0.1493 0.9871 -0.0581
vn 0.5748 0.6959 -0.4306
vn 0.5970 0.5622 -0.5723
vn 0.6774 0.5826 -0.4491
vn 0.1641 0.5351 0.8287
vn 0.0321 0.5391 0.8416
vn -0.4360 -0.6114 -0.6604
vn -0.2916 -0.5565 -0.7780
vn -0.4310 -0.6098 -0.6651
vn -0.1575 -0.6589 0.7356
vn -0.2622 -0.6626 0.7015
vn -0.1569 -0.6588 0.7357
vn -0.7607 -0.6472 -0.0503
vn -0.7678 -0.6392 0.0443
vn -0.7680 -0.6384 0.0511
vn 0.8746 0.1911 -0.4456
vn -0.3937 0.0981 0.9140
vn 0.2058 -0.0133 -0.9785
vn 0.7380 -0.5992 -0.3103
vn 0.7750 -0.6012 -0.1948
vn 0.7751 -0.6012 -0.1944
vn 0.8006 -0.5943 -0.0761
vn 0.1755 -0.6020 -0.7790
vn -0.8283 0.0832 -0.5541
vn 0.4992 -0.4355 -0.7491
vn 0.9775 0.1973 -0.0746
vn -0.5711 -0.6444 -0.5086
vn 0.6607 -0.5884 0.4662
vn -0.3058 -0.0776 0.9489
vn 0.5875 -0.7896 0.1773
vn -0.0503 -0.6470 0.7608
vn -0.7674 -0.6230 0.1516
vn -0.8342 0.5322 -0.1444
vn 0.5062 -0.6940 -0.5119
vn 0.6856 -0.7081 -0.1691
vn 0.6202 -0.5936 -0.5128
vn -0.3441 -0.9291 0.1355
vn -0.5632 -0.7634 -0.3163
vn -0.6523 -0.7567 -0.0442
vn 0.5317 -0.7678 -0.3574
vn 0.2831 -0.7085 -0.6465
vn 0.5809 -0.8014 0.1423
vn 0.5838 -0.8107 0.0432
vn 0.4152 -0.8185 0.3971
vn 0.0324 -0.8474 0.5300
vn -0.3524 -0.7693 0.5330
vn -0.2669 -0.7696 0.5801
vn -0.4945 -0.8529 -0.1672
vn -0.4475 -0.8722 0.1977
vn -0.4683 -0.7579 0.4543
vn -0.4547 -0.6477 -0.6113
vn -0.1912 -0.7275 -0.6589
vn -0.0927 -0.6979 -0.7102
vn 0.1953 -0.7040 -0.6829
vn -0.2888 -0.8775 0.3830
vn 0.6758 -0.7088 -0.2020
vn 0.7064 -0.7072 -0.0295
vn -0.2776 -0.6063 -0.7452
vn -0.8397 -0.5129 0.1787
vn -0.2396 0.6433 0.7272
vn -0.6479 0.5428 0.5344
vn -0.7678 0.5746 0.2833
vn 0.1167 0.5098 0.8523
vn 0.4211 0.6633 0.6186
vn -0.6682 0.7265 0.1600
vn -0.7346 0.6415 -0.2211
vn -0.4750 0.6767 -0.5626
vn -0.3811 0.8038 -0.4568
vn -0.0702 0.6852 -0.7250
vn 0.4841 0.6744 -0.5574
vn 0.6545 0.7521 0.0774
vn 0.5124 0.7716 -0.3770
vn 0.5810 0.7347 -0.3502
vn 0.7468 0.5470 0.3782
vn 0.4697 0.5284 0.7072
vn 0.0087 0.9937 0.1116
vn -0.2964 0.5359 0.7905
vn 0.2504 0.7971 -0.5495
vn 0.7506 0.6272 -0.2081
vn 0.7808 0.6238 -0.0361
vn -0.6391 -0.5086 -0.5769
vn 0.5997 0.1871 -0.7781
vn -0.4918 -0.4123 -0.7669
vn -0.9277 0.1049 0.3584
vn 0.0809 -0.3586 -0.9300
vn 0.2085 -0.3747 -0.9034
vn 0.2090 -0.3747 -0.9033
vn -0.1769 -0.6606 0.7295
vn 0.6489 -0.1633 0.7432
vn -0.6498 -0.6956 0.3064
vn 0.7004 -0.5407 0.4659
vn 0.5192 -0.5718 0.6352
vn 0.5200 -0.5717 0.6346
vn 0.8648 -0.4460 -0.2304
vn 0.8606 -0.4421 -0.2528
vn 0.8723 -0.4751 0.1158
vn 0.3253 -0.3840 -0.8642
vn 0.3071 -0.5673 0.7642
vn 0.7573 -0.3660 -0.5409
vn -0.9839 0.1416 -0.1089
vn 0.7475 -0.0416 0.6629
vn -0.5835 0.0161 -0.8120
vn -0.8171 -0.5070 0.2743
vn -0.8675 -0.4951 0.0487
vn -0.8676 -0.4950 0.0480
vn -0.8713 -0.4563 -0.1806
vn 0.5015 0.5352 0.6798
vn 0.7972 0.6026 -0.0364
vn 0.4533 0.7946 -0.4038
vn -0.4627 0.6761 -0.5734
vn -0.7567 0.6093 0.2371
vn -0.3061 0.5363 0.7866
vn -0.5687 -0.7623 0.3090
vn -0.8094 -0.5668 0.1533
vn -0.4595 -0.7767 0.4308
vn -0.0681 -0.8675 -0.4927
vn -0.2216 -0.8420 -0.4919
vn -0.3037 -0.8592 -0.4117
vn -0.3243 -0.8308 0.4523
vn -0.3041 -0.8589 0.4122
vn -0.1206 -0.8136 0.5688
vn 0.7473 -0.6644 -0.0083
vn 0.7663 -0.6183 0.1746
vn 0.7286 -0.6782 -0.0964
vn 0.1948 -0.7807 0.5937
vn 0.2129 -0.8525 0.4775
vn 0.2404 -0.9607 0.1385
vn 0.7289 -0.5821 -0.3604
vn -0.1985 -0.7903 -0.5796
vn -0.0375 -0.8552 -0.5169
vn -0.5405 -0.7759 -0.3252
vn 0.6945 -0.6877 -0.2117
vn -0.4616 -0.7727 -0.4357
vn -0.2400 -0.7955 0.5565
vn 0.1173 -0.6847 0.7193
vn -0.7936 -0.5834 -0.1730
vn 0.4619 -0.4656 -0.7549
vn 0.7657 0.4230 -0.4845
vn 0.5728 0.5766 -0.5827
vn 0.7369 0.5121 -0.4413
vn 0.0489 0.5685 0.8212
vn 0.0338 0.3859 0.9219
vn 0.4306 0.5961 0.6777
vn -0.7595 0.4602 -0.4597
vn -0.7500 0.5407 -0.3809
vn -0.6837 0.5376 -0.4935
vn -0.0246 0.4886 -0.8722
vn -0.1517 0.6038 -0.7826
vn 0.0694 0.5623 -0.8240
vn -0.7220 0.6826 -0.1135
vn -0.6832 0.6084 -0.4040
vn -0.6392 0.5896 0.4937
vn -0.7005 0.5850 0.4087
vn -0.2447 0.6778 0.6933
vn 0.7260 0.4665 0.5053
vn 0.6512 0.3637 0.6660
vn -0.5878 0.4588 0.6664
vn -0.7322 0.5768 0.3621
vn 0.1053 0.4826 -0.8695
vn 0.8192 0.4258 -0.3843
vn 0.8228 0.3354 -0.4588
vn 0.8267 0.4874 0.2811
vn 0.8119 0.3281 0.4830
vn 0.7579 0.4358 0.4854
vn -0.5571 0.6792 0.4780
vn -0.6568 0.6399 0.3989
vn -0.9722 0.0869 0.2172
vn -0.4444 -0.7172 -0.5367
vn -0.5682 -0.7356 -0.3689
vn -0.5774 -0.7356 -0.3542
vn 0.6671 -0.0545 -0.7430
vn -0.6850 -0.7143 -0.1432
vn 0.5516 -0.8154 0.1753
vn 0.4351 -0.1235 0.8919
vn 0.4318 -0.8110 -0.3948
vn 0.0978 -0.6967 0.7107
vn 0.2967 -0.7292 0.6166
vn 0.2968 -0.7292 0.6165
vn -0.4786 -0.6517 0.5883
vn -0.2023 -0.6523 0.7304
vn -0.4646 -0.6534 0.5976
vn -0.7900 -0.6111 0.0503
vn 0.4803 -0.7258 0.4925
vn -0.6740 -0.6032 0.4264
vn 0.2887 -0.0058 -0.9574
vn 0.3310 -0.0682 0.9412
vn -0.5539 -0.0151 -0.8325
vn 0.4764 -0.7273 -0.4941
vn 0.2979 -0.7300 -0.6151
vn 0.2980 -0.7300 -0.6150
vn 0.1053 -0.6988 -0.7075
vn -0.1846 -0.7471 -0.6386
vn 0.0291 0.3974 -0.9172
vn 0.8159 0.5325 -0.2252
vn 0.3296 0.6120 -0.7189
vn -0.5277 0.6303 -0.5693
vn 0.1665 -0.6685 0.7249
vn 0.0000 -1.0000 0.0000
usemtl HalloweenBits
s 1
f 12/1/1 2/2/2 6/3/3 11/4/4
f 5/5/5 1/6/6 9/7/7
f 7/8/8 1/6/9 4/9/10
f 11/4/4 6/3/3 3/10/11 10/11/12
f 10/11/13 3/12/14 7/8/8 14/13/15
f 4/14/16 1/6/17 8/15/18
f 8/15/18 1/6/17 5/16/19
f 14/13/15 7/8/8 4/9/10 13/17/20
f 13/17/21 4/9/22 8/18/23 16/19/24
f 2/20/25 1/6/26 6/21/27
f 9/7/7 1/6/6 2/20/28
f 16/19/24 8/18/23 5/5/29 15/22/30
f 15/22/31 5/5/5 9/7/7 17/23/32
f 17/23/32 9/7/7 2/20/28 12/1/33
f 6/21/27 1/6/26 3/12/34
f 11/4/4 10/11/12 131/24/35 132/25/36
f 15/22/31 17/23/32 138/26/37 136/27/38
f 14/13/15 13/17/20 134/28/39 135/29/40
f 13/17/21 16/19/24 137/30/41 134/28/42
f 17/23/32 12/1/33 133/31/43 138/26/37
f 12/1/1 11/4/4 132/25/36 133/31/44
f 10/11/13 14/13/15 135/29/40 131/24/45
f 16/19/24 15/22/30 136/27/46 137/30/41
f 3/12/14 1/6/9 7/8/8
f 21/32/47 24/33/48 35/34/49
f 36/35/50 29/36/51 26/37/52
f 36/35/53 26/37/54 25/38/55
f 36/35/53 25/38/55 23/39/56
f 28/40/57 29/36/51 36/35/50
f 30/41/58 28/40/57 36/35/50
f 32/42/59 33/43/60 30/41/58
f 30/41/58 36/35/50 32/42/59
f 21/32/47 36/35/61 24/33/48
f 21/32/62 20/44/63 18/45/64
f 24/33/48 36/35/61 23/39/65
f 36/35/50 19/46/66 32/42/59
f 29/36/51 34/47/67 26/37/52
f 27/48/68 25/38/55 26/37/54
f 22/49/69 20/44/63 21/32/62
f 30/41/70 31/50/70 28/40/70
f 51/51/71 38/52/72 52/53/73
f 55/54/74 19/55/75 37/56/76
f 51/51/71 24/57/77 40/58/78
f 48/59/79 41/60/80 49/61/81
f 48/59/79 29/62/82 43/63/83
f 44/64/84 47/65/85 46/66/86
f 44/64/84 46/66/86 55/54/74
f 55/54/74 37/56/76 53/67/87
f 54/68/88 44/64/84 55/54/74
f 48/59/79 43/63/83 44/64/89
f 54/68/90 48/59/79 44/64/89
f 54/68/90 41/60/80 48/59/79
f 54/68/90 50/69/91 41/60/80
f 51/51/71 40/58/78 50/69/91
f 54/68/90 51/51/71 50/69/91
f 54/68/90 38/52/72 51/51/71
f 54/68/90 55/54/74 53/67/87
f 54/68/90 53/67/87 38/52/72
f 50/69/91 25/70/92 42/71/93
f 53/67/87 20/72/94 39/73/95
f 28/40/96 31/50/97 45/74/97 43/75/98
f 18/45/99 20/44/100 37/76/101
f 33/43/102 32/42/103 46/77/104 47/78/102
f 22/49/105 21/32/105 38/79/105 39/80/105
f 21/32/106 35/34/106 52/81/106 38/79/106
f 30/41/107 33/43/107 47/78/107 44/82/107
f 24/33/108 23/39/109 40/83/110
f 23/39/109 25/38/111 40/83/110
f 25/38/112 27/48/112 42/84/112
f 27/48/113 26/37/113 41/85/113 42/84/113
f 34/47/114 29/36/114 49/86/114
f 26/37/115 34/47/115 49/86/115 41/85/115
f 29/36/116 28/40/96 43/75/98
f 20/44/117 22/49/117 39/80/117
f 31/50/118 30/41/118 44/82/118 45/74/118
f 35/34/119 24/33/119 52/81/119
f 19/46/120 18/45/99 37/76/101
f 32/42/103 19/46/121 46/77/104
f 38/52/72 53/67/87 39/73/95
f 20/72/94 53/67/87 37/56/76
f 19/55/75 55/54/74 46/66/86
f 24/57/77 51/51/71 52/53/73
f 25/70/92 50/69/91 40/58/78
f 41/60/80 50/69/91 42/71/93
f 29/62/82 48/59/79 49/61/81
f 45/87/122 44/64/89 43/63/83
f 36/35/50 21/32/62 18/45/64
f 36/35/50 18/45/64 19/46/66
f 62/88/123 59/89/124 74/90/125
f 71/91/126 57/92/127 56/93/128
f 71/91/129 62/88/123 61/94/130
f 63/95/131 71/91/132 61/94/133
f 67/96/134 64/97/135 73/98/136
f 67/96/134 71/91/126 64/97/135
f 70/99/137 68/100/138 72/101/139
f 57/92/127 71/91/126 70/99/137
f 59/89/140 71/91/141 58/102/142
f 58/102/142 71/91/141 56/93/143
f 66/103/144 71/91/126 67/96/134
f 62/88/123 71/91/129 59/89/124
f 64/97/145 63/95/131 65/104/146
f 59/89/140 58/102/142 60/105/147
f 69/106/148 68/100/138 66/103/144
f 76/107/149 62/108/150 90/109/151
f 58/110/152 92/111/153 76/107/149
f 89/112/154 63/113/155 78/114/156
f 79/115/157 67/116/158 88/117/159
f 85/118/160 86/119/161 82/120/162
f 85/118/160 57/121/163 84/122/164
f 85/118/160 92/111/153 57/121/163
f 76/107/149 92/111/153 91/123/165
f 92/111/153 58/110/152 75/124/166
f 91/123/165 85/118/160 82/120/162
f 91/123/165 82/120/162 87/125/167
f 79/115/157 87/125/167 67/116/158
f 89/112/154 79/115/157 63/113/155
f 76/107/149 89/112/154 62/108/150
f 91/123/165 92/111/153 85/118/160
f 91/123/165 89/112/154 76/107/149
f 91/123/165 87/125/167 79/115/157
f 87/125/167 83/126/168 81/127/169
f 63/95/170 80/128/170 65/104/170
f 65/104/171 80/128/171 79/129/171 64/97/171
f 73/98/172 88/130/172 67/96/172
f 64/97/173 79/129/173 88/130/173 73/98/173
f 67/96/174 81/131/175 66/103/176
f 58/102/177 77/132/177 60/105/177
f 69/106/178 83/133/178 82/134/178 68/100/178
f 74/90/179 90/135/179 62/88/179
f 57/92/180 75/136/181 56/93/182
f 70/99/183 84/137/184 57/92/185
f 66/103/176 81/131/175 83/133/186 69/106/186
f 56/93/182 75/136/181 58/102/187
f 72/101/188 86/138/188 84/137/184 70/99/183
f 60/105/189 77/132/189 76/139/189 59/89/189
f 59/89/190 76/139/190 90/135/190 74/90/190
f 68/100/191 82/134/191 86/138/191 72/101/191
f 62/88/192 78/140/193 61/94/194
f 61/94/194 78/140/193 63/95/195
f 77/141/196 58/110/152 76/107/149
f 75/124/197 57/121/163 92/111/153
f 91/123/165 79/115/157 89/112/154
f 84/122/198 86/119/161 85/118/160
f 82/120/162 83/126/168 87/125/167
f 81/127/199 67/116/158 87/125/167
f 80/142/200 63/113/155 79/115/157
f 78/114/201 62/108/150 89/112/154
f 71/91/126 68/100/138 70/99/137
f 68/100/138 71/91/126 66/103/144
f 63/95/131 64/97/145 71/91/132
f 99/143/202 110/144/203 96/145/204
f 94/146/205 111/147/206 93/148/207
f 99/143/202 111/147/208 98/149/209
f 98/149/209 111/147/208 100/150/210
f 104/151/211 109/152/212 101/153/213
f 103/154/214 111/147/215 105/155/216
f 105/155/217 107/156/217 108/157/217
f 105/155/218 111/147/206 107/156/219
f 93/148/207 111/147/206 95/158/220
f 104/151/211 101/153/213 111/147/221
f 111/147/206 96/145/222 95/158/220
f 111/147/206 94/146/205 107/156/219
f 111/147/208 101/153/223 100/150/210
f 101/153/223 102/159/224 100/150/210
f 96/145/222 97/160/225 95/158/220
f 106/161/226 103/154/226 105/155/226
f 113/162/227 126/163/228 99/164/229
f 129/165/230 94/166/231 112/167/232
f 128/168/233 116/169/234 123/170/235
f 125/171/236 115/172/237 100/173/238
f 116/169/234 124/174/239 118/175/240
f 119/176/241 122/177/242 121/178/243
f 119/176/241 121/178/243 129/165/230
f 129/165/230 112/167/232 127/179/244
f 128/168/245 129/165/230 127/179/244
f 128/168/246 123/170/247 119/176/241
f 116/169/234 118/175/240 123/170/235
f 125/171/236 100/173/238 116/169/248
f 113/162/227 99/164/229 125/171/249
f 128/168/250 113/162/227 125/171/249
f 128/168/246 119/176/241 129/165/230
f 128/168/245 127/179/244 113/162/251
f 127/179/244 95/180/252 114/181/253
f 123/170/247 103/182/254 120/183/255
f 102/159/256 101/153/256 116/184/256 117/185/256
f 109/152/257 104/151/258 118/186/259 124/187/257
f 101/153/260 109/152/260 124/187/260 116/184/260
f 104/151/258 103/154/261 118/186/259
f 95/158/262 97/160/262 114/188/262
f 106/161/263 105/155/263 119/189/263 120/190/263
f 110/144/264 99/143/264 126/191/264
f 94/146/265 93/148/266 112/192/267
f 107/156/268 94/146/269 121/193/270
f 103/154/271 106/161/271 120/190/271
f 93/148/266 95/158/272 112/192/267
f 108/157/273 107/156/268 121/193/270 122/194/273
f 97/160/274 96/145/274 113/195/274 114/188/274
f 96/145/275 110/144/275 126/191/275 113/195/275
f 105/155/276 108/157/276 122/194/276 119/189/276
f 99/143/277 98/149/278 115/196/279
f 98/149/278 100/150/280 115/196/279
f 100/150/281 102/159/281 117/185/281
f 94/166/231 129/165/230 121/178/243
f 128/168/282 125/171/236 116/169/248
f 95/180/252 127/179/244 112/167/232
f 113/162/251 127/179/244 114/181/253
f 115/172/283 125/171/249 99/164/229
f 117/197/284 116/169/248 100/173/238
f 103/182/285 123/170/235 118/175/240
f 119/176/241 123/170/247 120/183/255
f 103/154/214 104/151/286 111/147/215
f 99/143/202 96/145/204 111/147/208
f 130/198/287 132/199/287 131/200/287
f 130/198/287 133/201/287 132/199/287
f 130/198/287 135/202/287 134/203/287
f 130/198/287 131/200/287 135/202/287
f 130/198/287 137/204/287 136/205/287
f 130/198/287 134/203/287 137/204/287
f 130/198/287 138/206/287 133/201/287
f 130/198/287 136/205/287 138/206/287
